<?xml version="1.0" encoding="utf-8"?>
<!-- Generator: Adobe Illustrator 22.0.1, SVG Export Plug-In . SVG Version: 6.00 Build 0)  -->
<svg version="1.1" id="Слой_1" xmlns="http://www.w3.org/2000/svg" xmlns:xlink="http://www.w3.org/1999/xlink" x="0px" y="0px"
	 viewBox="0 0 560 254" style="enable-background:new 0 0 560 254;" xml:space="preserve">
<style type="text/css">
	.st0{opacity:0.8;}
	.st1{opacity:0.82;}
	.st2{fill:#6382D7;}
	.st3{fill:#3C5BAB;}
	.st4{fill:#E0E6F7;}
</style>
<g>
	<g>
		<g class="st0">
			
				<image style="overflow:visible;enable-background:new    ;" width="188" height="155" xlink:href="56A52DFB.png"  transform="matrix(2.9419 0 0 2.9419 3.4616 -107.7717)">
			</image>
		</g>
		<g class="st1">
			
				<image style="overflow:visible;enable-background:new    ;" width="134" height="101" xlink:href="56A52DF9.png"  transform="matrix(2.9419 0 0 2.9419 82.8929 -1.8634)">
			</image>
			<g>
				<g>
					<path class="st2" d="M266.8,245.3c-2.9,0-5.9-0.9-8.5-2.4c-5.6-3.2-9.1-9.1-9.1-15.3V187l-117.7,25.3
						c-7.4,1.5-14.7-1.5-18.8-8.2c-3.8-6.5-3.2-14.7,1.5-20.3l37.1-44.7c3.2-3.8,8.8-4.1,12.4-1.2c3.8,3.2,4.1,8.8,1.2,12.4
						l-37.1,45l117.7-25.3c5.3-1.2,10.6,0.3,14.7,3.5c4.1,3.2,6.5,8.2,6.5,13.8v40.3l164.5-101.8L266.5,24v40.6
						c0,5.3-2.4,10.3-6.5,13.8c-4.1,3.2-9.4,4.7-14.7,3.5L127.6,56.7l37.1,44.7c3.2,3.8,2.6,9.4-1.2,12.4c-3.8,3.2-9.4,2.6-12.4-1.2
						l-37.1-44.7c-5-5.9-5.6-13.8-1.5-20.3c3.8-6.5,11.5-9.7,18.8-8.2l117.7,25.3V24c0-6.5,3.5-12.4,9.1-15.3
						c5.6-3.2,12.4-2.9,17.9,0.3l164.5,101.8c5.3,3.2,8.2,8.8,8.2,15c0,6.2-3.2,11.8-8.2,15L276.2,242.6
						C273.2,244.4,270,245.3,266.8,245.3z"/>
				</g>
			</g>
		</g>
		<g>
			<g>
				<path class="st2" d="M266.8,245.3c-2.9,0-5.9-0.9-8.5-2.4c-5.6-3.2-9.1-9.1-9.1-15.3V187l-117.7,25.3
					c-7.4,1.5-14.7-1.5-18.8-8.2c-3.8-6.5-3.2-14.7,1.5-20.3l37.1-44.7c3.2-3.8,8.8-4.1,12.4-1.2c3.8,3.2,4.1,8.8,1.2,12.4l-37.1,45
					l117.7-25.3c5.3-1.2,10.6,0.3,14.7,3.5c4.1,3.2,6.5,8.2,6.5,13.8v40.3l164.5-101.8L266.5,24v40.6c0,5.3-2.4,10.3-6.5,13.8
					c-4.1,3.2-9.4,4.7-14.7,3.5L127.6,56.7l37.1,44.7c3.2,3.8,2.6,9.4-1.2,12.4c-3.8,3.2-9.4,2.6-12.4-1.2l-37.1-44.7
					c-5-5.9-5.6-13.8-1.5-20.3c3.8-6.5,11.5-9.7,18.8-8.2l117.7,25.3V24c0-6.5,3.5-12.4,9.1-15.3c5.6-3.2,12.4-2.9,17.9,0.3
					l164.5,101.8c5.3,3.2,8.2,8.8,8.2,15c0,6.2-3.2,11.8-8.2,15L276.2,242.6C273.2,244.4,270,245.3,266.8,245.3z"/>
			</g>
			<g>
				<path class="st3" d="M266.8,239.4c-2.4,0-5-0.6-7.1-1.8c-4.7-2.6-7.6-7.4-7.6-12.9v-40.6c0-1.2-0.6-2.1-1.2-2.4
					c-0.3-0.3-1.2-0.9-2.4-0.6l-117.7,25.3c-6.2,1.2-12.4-1.5-15.6-6.8c-3.2-5.6-2.6-12.1,1.2-17.1l37.1-44.7
					c2.1-2.4,5.9-2.9,8.2-0.9c2.4,2.1,2.9,5.9,0.9,8.2l-37.1,44.7c-1.2,1.5-0.6,2.9-0.3,3.5c0.3,0.6,1.2,1.8,3.2,1.5l117.7-25.3
					c4.4-0.9,8.8,0,12.4,2.9c3.5,2.9,5.6,7.1,5.6,11.5v40.6c0,1.5,1.2,2.4,1.5,2.6c0.6,0.3,1.8,0.9,2.9,0L433,125.5
					c1.2-0.9,1.5-2.1,1.5-2.6c0-0.6,0-1.8-1.5-2.4L268.2,18.4c-1.5-0.9-2.6-0.3-2.9,0c-0.6,0.3-1.5,0.9-1.5,2.6v40.6
					c0,4.4-2.1,8.5-5.6,11.5c-3.5,2.9-7.9,3.8-12.4,2.9L128.2,50.8c-1.8-0.3-2.9,0.9-3.2,1.5c-0.3,0.6-0.9,2.1,0.3,3.5l37.1,44.7
					c2.1,2.4,1.8,6.2-0.9,8.2c-2.4,2.1-6.2,1.8-8.2-0.9l-37.1-44.7c-4.1-5-4.7-11.5-1.2-17.1c3.2-5.6,9.4-8.2,15.6-6.8l117.7,25.3
					c1.2,0.3,2.1-0.3,2.4-0.6c0.3-0.3,1.2-1.2,1.2-2.4V21.1c0-5.3,2.9-10.3,7.6-12.9c4.7-2.6,10.3-2.6,15,0.3l164.5,101.8
					c4.4,2.6,7.1,7.4,7.1,12.7c0,5-2.6,9.7-7.1,12.7L274.4,237.3C272.1,238.8,269.4,239.4,266.8,239.4z"/>
			</g>
			<g>
				<path class="st4" d="M266.8,237.3c-2.1,0-4.1-0.6-6.2-1.5c-4.1-2.4-6.5-6.2-6.5-10.9v-40.6c0-1.5-0.6-2.9-1.8-4.1
					c-1.2-0.9-2.9-1.5-4.4-1.2l-117.7,25.3c-5.3,1.2-10.6-1.2-13.2-5.9c-2.9-4.7-2.4-10.3,1.2-14.4l37.1-44.7
					c1.2-1.5,3.5-1.8,5.3-0.6c1.5,1.2,1.8,3.5,0.6,5.3l-37.1,44.7c-1.8,2.1-1.5,4.4-0.6,5.9c0.9,1.5,2.9,2.9,5.6,2.4l117.7-25.3
					c3.8-0.9,7.6,0,10.6,2.6c2.9,2.4,4.7,5.9,4.7,9.7v40.6c0,1.8,0.9,3.5,2.6,4.4c1.8,0.9,3.5,0.9,5.3,0l164.5-101.8
					c1.5-0.9,2.4-2.6,2.4-4.4c0-1.8-0.9-3.5-2.4-4.4L270,16.7c-1.5-0.9-3.5-1.2-5.3,0c-1.8,0.9-2.6,2.6-2.6,4.4v40.6
					c0,3.8-1.8,7.4-4.7,9.7c-2.9,2.4-6.8,3.2-10.6,2.6L129.1,48.7c-2.6-0.6-4.7,0.9-5.6,2.4c-0.9,1.5-1.2,3.8,0.6,5.9l37.1,44.7
					c1.2,1.5,1.2,3.8-0.6,5.3c-1.5,1.2-3.8,1.2-5.3-0.6l-37.1-44.7c-3.5-4.1-3.8-9.7-1.2-14.4c2.9-4.7,7.9-6.8,13.2-5.9l117.7,25.3
					c1.5,0.3,3.2,0,4.4-0.9c1.2-0.9,1.8-2.4,1.8-4.1V21.1c0-4.7,2.4-8.8,6.5-10.9c4.1-2.4,8.8-2.1,12.7,0.3l164.5,101.8
					c3.8,2.4,5.9,6.2,5.9,10.6c0,4.4-2.4,8.2-5.9,10.6L273.2,235.3C271.2,236.7,268.8,237.3,266.8,237.3z"/>
			</g>
		</g>
	</g>
</g>
</svg>
