<?xml version="1.0" encoding="utf-8"?>
<!-- Generator: Adobe Illustrator 22.0.1, SVG Export Plug-In . SVG Version: 6.00 Build 0)  -->
<svg version="1.1" id="Слой_1" xmlns="http://www.w3.org/2000/svg" xmlns:xlink="http://www.w3.org/1999/xlink" x="0px" y="0px"
	 viewBox="0 0 560 254" style="enable-background:new 0 0 560 254;" xml:space="preserve">
<style type="text/css">
	.st0{opacity:0.8;}
	.st1{opacity:0.82;}
	.st2{fill:#6382D7;}
	.st3{fill:#3C5BAB;}
	.st4{fill:#E0E6F7;}
</style>
<g>
	<g>
		<g class="st0">
			
				<image style="overflow:visible;enable-background:new    ;" width="188" height="155" xlink:href="3AE9193C.png"  transform="matrix(-2.9419 0 0 -2.9419 552.5383 366.2224)">
			</image>
		</g>
		<g class="st1">
			
				<image style="overflow:visible;enable-background:new    ;" width="134" height="101" xlink:href="3AE9193D.png"  transform="matrix(-2.9419 0 0 -2.9419 473.1071 260.3141)">
			</image>
			<g>
				<g>
					<path class="st2" d="M289.2,13.2c2.9,0,5.9,0.9,8.5,2.4c5.6,3.2,9.1,9.1,9.1,15.3v40.6l117.7-25.3c7.4-1.5,14.7,1.5,18.8,8.2
						c3.8,6.5,3.2,14.7-1.5,20.3l-37.1,44.7c-3.2,3.8-8.8,4.1-12.4,1.2c-3.8-3.2-4.1-8.8-1.2-12.4l37.1-45L310.7,88.5
						c-5.3,1.2-10.6-0.3-14.7-3.5c-4.1-3.2-6.5-8.2-6.5-13.8V30.8L125.1,132.6l164.5,101.8v-40.6c0-5.3,2.4-10.3,6.5-13.8
						c4.1-3.2,9.4-4.7,14.7-3.5l117.7,25.3l-37.1-44.7c-3.2-3.8-2.6-9.4,1.2-12.4c3.8-3.2,9.4-2.6,12.4,1.2l37.1,44.7
						c5,5.9,5.6,13.8,1.5,20.3c-3.8,6.5-11.5,9.7-18.8,8.2l-117.7-25.3v40.6c0,6.5-3.5,12.4-9.1,15.3c-5.6,3.2-12.4,2.9-17.9-0.3
						L115.4,147.6c-5.3-3.2-8.2-8.8-8.2-15s3.2-11.8,8.2-15L279.8,15.8C282.8,14.1,286,13.2,289.2,13.2z"/>
				</g>
			</g>
		</g>
		<g>
			<g>
				<path class="st2" d="M289.2,13.2c2.9,0,5.9,0.9,8.5,2.4c5.6,3.2,9.1,9.1,9.1,15.3v40.6l117.7-25.3c7.4-1.5,14.7,1.5,18.8,8.2
					c3.8,6.5,3.2,14.7-1.5,20.3l-37.1,44.7c-3.2,3.8-8.8,4.1-12.4,1.2c-3.8-3.2-4.1-8.8-1.2-12.4l37.1-45L310.7,88.5
					c-5.3,1.2-10.6-0.3-14.7-3.5c-4.1-3.2-6.5-8.2-6.5-13.8V30.8L125.1,132.6l164.5,101.8v-40.6c0-5.3,2.4-10.3,6.5-13.8
					c4.1-3.2,9.4-4.7,14.7-3.5l117.7,25.3l-37.1-44.7c-3.2-3.8-2.6-9.4,1.2-12.4c3.8-3.2,9.4-2.6,12.4,1.2l37.1,44.7
					c5,5.9,5.6,13.8,1.5,20.3c-3.8,6.5-11.5,9.7-18.8,8.2l-117.7-25.3v40.6c0,6.5-3.5,12.4-9.1,15.3c-5.6,3.2-12.4,2.9-17.9-0.3
					L115.4,147.6c-5.3-3.2-8.2-8.8-8.2-15s3.2-11.8,8.2-15L279.8,15.8C282.8,14.1,286,13.2,289.2,13.2z"/>
			</g>
			<g>
				<path class="st3" d="M289.2,19.1c2.4,0,5,0.6,7.1,1.8c4.7,2.6,7.6,7.4,7.6,12.9v40.6c0,1.2,0.6,2.1,1.2,2.4
					c0.3,0.3,1.2,0.9,2.4,0.6L425.2,52c6.2-1.2,12.4,1.5,15.6,6.8c3.2,5.6,2.6,12.1-1.2,17.1l-37.1,44.7c-2.1,2.4-5.9,2.9-8.2,0.9
					c-2.4-2.1-2.9-5.9-0.9-8.2l37.1-44.7c1.2-1.5,0.6-2.9,0.3-3.5c-0.3-0.6-1.2-1.8-3.2-1.5L309.8,88.8c-4.4,0.9-8.8,0-12.4-2.9
					c-3.5-2.9-5.6-7.1-5.6-11.5V33.8c0-1.5-1.2-2.4-1.5-2.6c-0.6-0.3-1.8-0.9-2.9,0L123,132.9c-1.2,0.9-1.5,2.1-1.5,2.6
					c0,0.6,0,1.8,1.5,2.4L287.8,240c1.5,0.9,2.6,0.3,2.9,0c0.6-0.3,1.5-0.9,1.5-2.6v-40.6c0-4.4,2.1-8.5,5.6-11.5
					c3.5-2.9,7.9-3.8,12.4-2.9l117.7,25.3c1.8,0.3,2.9-0.9,3.2-1.5c0.3-0.6,0.9-2.1-0.3-3.5l-37.1-44.7c-2.1-2.4-1.8-6.2,0.9-8.2
					c2.4-2.1,6.2-1.8,8.2,0.9l37.1,44.7c4.1,5,4.7,11.5,1.2,17.1c-3.2,5.6-9.4,8.2-15.6,6.8l-117.7-25.3c-1.2-0.3-2.1,0.3-2.4,0.6
					c-0.3,0.3-1.2,1.2-1.2,2.4v40.6c0,5.3-2.9,10.3-7.6,12.9c-4.7,2.6-10.3,2.6-15-0.3L117.1,148.2c-4.4-2.6-7.1-7.4-7.1-12.7
					c0-5,2.6-9.7,7.1-12.7L281.6,21.1C283.9,19.7,286.6,19.1,289.2,19.1z"/>
			</g>
			<g>
				<path class="st4" d="M289.2,21.1c2.1,0,4.1,0.6,6.2,1.5c4.1,2.4,6.5,6.2,6.5,10.9v40.6c0,1.5,0.6,2.9,1.8,4.1
					c1.2,0.9,2.9,1.5,4.4,1.2l117.7-25.3c5.3-1.2,10.6,1.2,13.2,5.9c2.9,4.7,2.4,10.3-1.2,14.4l-37.1,44.7c-1.2,1.5-3.5,1.8-5.3,0.6
					c-1.5-1.2-1.8-3.5-0.6-5.3l37.1-44.7c1.8-2.1,1.5-4.4,0.6-5.9c-0.9-1.5-2.9-2.9-5.6-2.4L309.2,86.7c-3.8,0.9-7.6,0-10.6-2.6
					c-2.9-2.4-4.7-5.9-4.7-9.7V33.8c0-1.8-0.9-3.5-2.6-4.4c-1.8-0.9-3.5-0.9-5.3,0L121.6,131.2c-1.5,0.9-2.4,2.6-2.4,4.4
					s0.9,3.5,2.4,4.4L286,241.8c1.5,0.9,3.5,1.2,5.3,0c1.8-0.9,2.6-2.6,2.6-4.4v-40.6c0-3.8,1.8-7.4,4.7-9.7s6.8-3.2,10.6-2.6
					l117.7,25.3c2.6,0.6,4.7-0.9,5.6-2.4c0.9-1.5,1.2-3.8-0.6-5.9l-37.1-44.7c-1.2-1.5-1.2-3.8,0.6-5.3c1.5-1.2,3.8-1.2,5.3,0.6
					l37.1,44.7c3.5,4.1,3.8,9.7,1.2,14.4c-2.9,4.7-7.9,6.8-13.2,5.9l-117.7-25.3c-1.5-0.3-3.2,0-4.4,0.9c-1.2,0.9-1.8,2.4-1.8,4.1
					v40.6c0,4.7-2.4,8.8-6.5,10.9c-4.1,2.4-8.8,2.1-12.7-0.3L118.3,146.2c-3.8-2.4-5.9-6.2-5.9-10.6c0-4.4,2.4-8.2,5.9-10.6
					L282.8,23.2C284.8,21.7,287.2,21.1,289.2,21.1z"/>
			</g>
		</g>
	</g>
</g>
</svg>
