<?xml version="1.0" encoding="utf-8"?>
<!-- Generator: Adobe Illustrator 22.0.1, SVG Export Plug-In . SVG Version: 6.00 Build 0)  -->
<svg version="1.1" id="Слой_1" xmlns="http://www.w3.org/2000/svg" xmlns:xlink="http://www.w3.org/1999/xlink" x="0px" y="0px"
	 viewBox="0 0 210 219" style="enable-background:new 0 0 210 219;" xml:space="preserve">
<style type="text/css">
	.st0{fill:#BBBDBF;}
	.st1{fill:#8957FF;}
	.st2{fill:#00D5FF;}
	.st3{fill:#B57DFF;}
	.st4{fill:#E8BAFF;}
	.st5{fill:#E6E7E8;}
	.st6{fill:#FFFFFF;}
	.st7{fill:#85E0FF;}
	.st8{fill:#E2FAFF;}
</style>
<g>
	<g>
		<g>
			<path class="st0" d="M165.5,191.5H44.2c-9.9,0-18-7.9-18-17.7V45.1c0-9.7,8.1-17.7,18-17.7h121.4c9.9,0,18,7.9,18,17.7v128.7
				C183.5,183.6,175.5,191.5,165.5,191.5z M44.2,33.3c-6.6,0-12,5.3-12,11.8v128.7c0,6.5,5.4,11.8,12,11.8h121.4
				c6.6,0,12-5.3,12-11.8V45.1c0-6.5-5.4-11.8-12-11.8H44.2z M104.8,175.3c-29,0-52.5-23.2-52.5-51.6c0-28.5,23.6-51.6,52.5-51.6
				c29,0,52.5,23.2,52.5,51.6C157.4,152.2,133.8,175.3,104.8,175.3z M104.8,78c-25.7,0-46.5,20.5-46.5,45.7
				c0,25.2,20.9,45.7,46.5,45.7c25.7,0,46.5-20.5,46.5-45.7C151.4,98.5,130.5,78,104.8,78z M169.4,62.8H40.3c-1.7,0-3-1.3-3-2.9
				c0-1.6,1.3-2.9,3-2.9h129.1c1.7,0,3,1.3,3,2.9C172.4,61.5,171.1,62.8,169.4,62.8z"/>
		</g>
	</g>
	<g>
		<g>
			<path class="st1" d="M159.9,53.5c-4.5,0-8.1-3.6-8.1-8c0-4.4,3.7-8,8.1-8c4.5,0,8.2,3.6,8.2,8C168,49.9,164.4,53.5,159.9,53.5z
				 M159.9,43.3c-1.2,0-2.2,0.9-2.2,2.1c0,1.2,1,2.1,2.2,2.1c1.2,0,2.2-0.9,2.2-2.1C162,44.3,161.1,43.3,159.9,43.3z M138.2,53.5
				c-4.5,0-8.2-3.6-8.2-8c0-4.4,3.7-8,8.2-8c4.5,0,8.2,3.6,8.2,8C146.4,49.9,142.7,53.5,138.2,53.5z M138.2,43.3
				c-1.2,0-2.2,0.9-2.2,2.1c0,1.2,1,2.1,2.2,2.1c1.2,0,2.2-0.9,2.2-2.1C140.4,44.3,139.4,43.3,138.2,43.3z M70.9,53.5h-21
				c-4.5,0-8.2-3.6-8.2-8c0-4.4,3.7-8,8.2-8h21c4.5,0,8.2,3.6,8.2,8C79,49.9,75.4,53.5,70.9,53.5z M49.9,43.3
				c-1.2,0-2.2,0.9-2.2,2.1c0,1.2,1,2.1,2.2,2.1h21c1.2,0,2.2-0.9,2.2-2.1c0-1.2-1-2.1-2.2-2.1H49.9z"/>
		</g>
	</g>
	<g>
		<g>
			<path class="st2" d="M104.8,160.6c-20.6,0-37.3-16.4-37.3-36.7c0.5-4.6,4-12.9,14.5-11.2c7.2,1.1,11.2,3.7,15.7,6.6
				c6.3,4,9.8,6.1,14.6,6.1c5.2,0,9.7-2.7,10.6-6.5c0.8-2.9-0.5-4.7-2-5.9c-0.3,0.7-0.8,1.3-1.3,1.9c-3.4,3.8-10.7,4.1-15.2,0.5
				c-5.2-4.1-7.5-14.4,0.6-20c7.1-4.9,18.7-3.3,27.4,5.3c6.6,6.5,9.6,13.6,9.6,23.2C142.1,144.1,125.4,160.6,104.8,160.6z
				 M73.5,124.3c0,16.6,14.1,30.4,31.3,30.4c17.3,0,31.3-13.8,31.3-30.8c0-8-2.3-13.7-7.8-19c-7.3-7.2-15.7-7.5-19.7-4.7
				c-4.7,3.3-2.4,9-0.3,10.6c2.1,1.6,5.6,1.6,7,0.1c0.5-0.5,0.7-1.2,0.6-2c-0.1-1,0.3-2,1.1-2.6c0.8-0.6,1.8-0.8,2.8-0.6
				c4.2,1.2,11.4,5.9,9.1,14.6c-1.7,6.4-8.4,10.9-16.4,10.9c-6.7,0-11.4-2.9-17.9-7.1c-4.3-2.8-7.4-4.7-13.4-5.7
				C76.5,117.8,74,120.6,73.5,124.3z M87.2,108.3c-3.9,0-7-3.1-7-6.9c0-3.8,3.1-6.9,7-6.9c3.9,0,7,3.1,7,6.9
				C94.2,105.2,91.1,108.3,87.2,108.3z M87.2,100.4c-0.6,0-1,0.4-1,1c0,1.1,2,1.1,2,0C88.2,100.8,87.8,100.4,87.2,100.4z"/>
		</g>
	</g>
	<image style="overflow:visible;" width="214" height="102" xlink:href="11E6871A.png"  transform="matrix(1 0 0 1 -2 -5)">
	</image>
	<g>
		<path class="st3" d="M159.9,52.3c-3.8,0-7-3.1-7-6.8c0-3.8,3.1-6.8,7-6.8c3.8,0,7,3.1,7,6.8C166.8,49.2,163.7,52.3,159.9,52.3z
			 M159.9,42.2c-1.8,0-3.4,1.5-3.4,3.3c0,1.8,1.5,3.3,3.4,3.3c1.9,0,3.4-1.5,3.4-3.3C163.2,43.7,161.7,42.2,159.9,42.2z"/>
	</g>
	<g>
		<path class="st3" d="M138.2,52.3c-3.8,0-7-3.1-7-6.8c0-3.8,3.1-6.8,7-6.8c3.8,0,7,3.1,7,6.8C145.2,49.2,142,52.3,138.2,52.3z
			 M138.2,42.2c-1.9,0-3.4,1.5-3.4,3.3c0,1.8,1.5,3.3,3.4,3.3c1.9,0,3.4-1.5,3.4-3.3C141.6,43.7,140.1,42.2,138.2,42.2z"/>
	</g>
	<g>
		<path class="st3" d="M70.9,52.3h-21c-3.8,0-7-3.1-7-6.8c0-3.8,3.1-6.8,7-6.8h21c3.8,0,7,3.1,7,6.8C77.8,49.2,74.7,52.3,70.9,52.3z
			 M49.9,42.2c-1.9,0-3.4,1.5-3.4,3.3c0,1.8,1.5,3.3,3.4,3.3h21c1.8,0,3.4-1.5,3.4-3.3c0-1.8-1.5-3.3-3.4-3.3H49.9z"/>
	</g>
	<g>
		<path class="st4" d="M159.9,51.1c-3.2,0-5.8-2.5-5.8-5.7c0-3.1,2.6-5.7,5.8-5.7s5.8,2.5,5.8,5.7C165.6,48.6,163,51.1,159.9,51.1z
			 M159.9,41c-2.5,0-4.6,2-4.6,4.5c0,2.5,2,4.5,4.6,4.5c2.5,0,4.6-2,4.6-4.5C164.4,43,162.4,41,159.9,41z"/>
	</g>
	<g>
		<path class="st4" d="M138.2,51.1c-3.2,0-5.8-2.5-5.8-5.7c0-3.1,2.6-5.7,5.8-5.7c3.2,0,5.8,2.5,5.8,5.7
			C144,48.6,141.4,51.1,138.2,51.1z M138.2,41c-2.5,0-4.6,2-4.6,4.5c0,2.5,2,4.5,4.6,4.5c2.5,0,4.6-2,4.6-4.5
			C142.8,43,140.7,41,138.2,41z"/>
	</g>
	<g>
		<path class="st4" d="M70.9,51.1h-21c-3.2,0-5.8-2.5-5.8-5.7c0-3.1,2.6-5.7,5.8-5.7h21c3.2,0,5.8,2.5,5.8,5.7
			C76.7,48.6,74.1,51.1,70.9,51.1z M49.9,41c-2.5,0-4.6,2-4.6,4.5c0,2.5,2,4.5,4.6,4.5h21c2.5,0,4.6-2,4.6-4.5c0-2.5-2-4.5-4.6-4.5
			H49.9z"/>
	</g>
	<image style="overflow:visible;" width="244" height="250" xlink:href="11E6871B.png"  transform="matrix(1 0 0 1 -17 -15)">
	</image>
	<g>
		<path class="st5" d="M165.5,190.3H44.2c-9.3,0-16.8-7.4-16.8-16.5V45.1c0-9.1,7.5-16.5,16.8-16.5h121.4c9.3,0,16.8,7.4,16.8,16.5
			v128.7C182.3,182.9,174.8,190.3,165.5,190.3z M44.2,32.1c-7.3,0-13.2,5.8-13.2,13v128.7c0,7.2,5.9,13,13.2,13h121.4
			c7.3,0,13.2-5.8,13.2-13V45.1c0-7.2-5.9-13-13.2-13H44.2z"/>
	</g>
	<g>
		<path class="st5" d="M104.8,174.1c-28.3,0-51.3-22.6-51.3-50.4c0-27.8,23-50.4,51.3-50.4c28.3,0,51.3,22.6,51.3,50.4
			C156.2,151.5,133.1,174.1,104.8,174.1z M104.8,76.8c-26.3,0-47.7,21-47.7,46.9c0,25.9,21.4,46.9,47.7,46.9
			c26.3,0,47.7-21,47.7-46.9C152.6,97.8,131.2,76.8,104.8,76.8z"/>
	</g>
	<g>
		<path class="st5" d="M169.4,61.6H40.3c-1,0-1.8-0.8-1.8-1.8c0-1,0.8-1.8,1.8-1.8h129.1c1,0,1.8,0.8,1.8,1.8
			C171.2,60.8,170.4,61.6,169.4,61.6z"/>
	</g>
	<g>
		<path class="st6" d="M165.5,189.2H44.2c-8.6,0-15.6-6.9-15.6-15.3V45.1c0-8.5,7-15.3,15.6-15.3h121.4c8.6,0,15.6,6.9,15.6,15.3
			v128.7C181.1,182.3,174.1,189.2,165.5,189.2z M44.2,31c-7.9,0-14.4,6.3-14.4,14.1v128.7c0,7.8,6.5,14.1,14.4,14.1h121.4
			c7.9,0,14.4-6.3,14.4-14.1V45.1c0-7.8-6.5-14.1-14.4-14.1H44.2z"/>
	</g>
	<g>
		<path class="st6" d="M104.8,173c-27.6,0-50.1-22.1-50.1-49.3s22.5-49.3,50.1-49.3c27.6,0,50.1,22.1,50.1,49.3S132.5,173,104.8,173
			z M104.8,75.6c-27,0-48.9,21.6-48.9,48.1c0,26.5,21.9,48.1,48.9,48.1c27,0,48.9-21.6,48.9-48.1C153.8,97.2,131.8,75.6,104.8,75.6z
			"/>
	</g>
	<g>
		<path class="st6" d="M169.4,60.4H40.3c-0.3,0-0.6-0.3-0.6-0.6c0-0.3,0.3-0.6,0.6-0.6h129.1c0.3,0,0.6,0.3,0.6,0.6
			C170,60.2,169.7,60.4,169.4,60.4z"/>
	</g>
	<image style="overflow:visible;" width="162" height="155" xlink:href="11E6871C.png"  transform="matrix(1 0 0 1 24 50)">
	</image>
	<image style="overflow:visible;" width="214" height="102" xlink:href="11E6871D.png"  transform="matrix(1 0 0 1 -2 -5)">
	</image>
	<image style="overflow:visible;" width="244" height="250" xlink:href="11E68718.png"  transform="matrix(1 0 0 1 -17 -15)">
	</image>
	<image style="overflow:visible;" width="162" height="155" xlink:href="11E68719.png"  transform="matrix(1 0 0 1 24 50)">
	</image>
	<g>
		<path class="st7" d="M104.8,159.4c-19.9,0-36.1-15.9-36.1-35.5c0.5-4,3.7-11.5,13.2-10c7,1.1,10.8,3.5,15.3,6.4
			c6.4,4.1,10.1,6.3,15.3,6.3c5.8,0,10.7-3,11.8-7.4c1.1-4.4-1.6-6.8-3.8-8c-0.3,1.1-0.8,2-1.6,2.9c-3,3.3-9.6,3.6-13.6,0.4
			c-4.6-3.6-6.8-13,0.5-18.1c6.5-4.6,17.5-3,25.9,5.2c6.4,6.2,9.2,13.2,9.2,22.4C140.9,143.5,124.8,159.4,104.8,159.4z M72.3,124.1
			c0,17.4,14.6,31.7,32.5,31.7c17.9,0,32.5-14.3,32.5-32c0-8.3-2.4-14.3-8.1-19.9c-7.6-7.5-16.6-8-21.3-4.8
			c-4.7,3.3-3.8,9.8-0.3,12.5c2.5,2,6.8,1.9,8.6,0c0.7-0.8,1-1.8,0.9-2.9c-0.1-0.6,0.2-1.2,0.6-1.6c0.5-0.4,1.1-0.5,1.7-0.3
			c3.8,1.1,10.4,5.3,8.3,13.2c-1.5,5.9-7.8,10-15.3,10c-6.3,0-10.8-2.8-17.2-6.9c-4.3-2.7-7.6-4.9-13.9-5.9
			C75.9,116.5,72.8,120,72.3,124.1z"/>
	</g>
	<g>
		<path class="st7" d="M87.2,107.1c-3.2,0-5.8-2.6-5.8-5.7c0-3.1,2.6-5.7,5.8-5.7c3.2,0,5.8,2.6,5.8,5.7
			C93,104.5,90.4,107.1,87.2,107.1z M87.2,99.2c-1.2,0-2.2,1-2.2,2.2c0,1.2,1,2.2,2.2,2.2c1.2,0,2.2-1,2.2-2.2
			C89.4,100.2,88.4,99.2,87.2,99.2z"/>
	</g>
	<g>
		<path class="st8" d="M104.8,158.2c-19.2,0-34.9-15.4-34.9-34.3c0.2-2.7,2.9-10.3,11.8-8.9c6.7,1.1,10.3,3.3,14.8,6.2
			c6.3,4,10.3,6.5,15.9,6.5c6.4,0,11.7-3.4,13-8.3c1.6-6.3-3.8-9.2-5.9-10c0,1.5-0.5,2.8-1.5,3.8c-2.6,2.9-8.1,3.3-11.9,0.3
			c-4.1-3.2-6.2-11.7,0.4-16.3c6.1-4.3,16.4-2.7,24.3,5.1c6.2,6.1,8.9,12.5,8.9,21.5C139.8,142.8,124.1,158.2,104.8,158.2z
			 M71.1,124c0,18.2,15.1,33.1,33.7,33.1c18.6,0,33.7-14.9,33.7-33.1c0-8.7-2.5-14.8-8.5-20.7c-7.6-7.5-17.3-8.8-22.8-4.9
			c-5.5,3.9-4.3,11.3-0.4,14.4c3.3,2.6,8.1,2.2,10.3-0.1c0.9-1,1.3-2.4,1.2-3.9c0-0.2,0.1-0.4,0.2-0.5c0.1-0.1,0.4-0.2,0.6-0.1
			c0.1,0,9.8,3,7.5,11.8c-1.4,5.4-7.2,9.1-14.1,9.1c-5.9,0-10.1-2.5-16.6-6.7c-4.4-2.8-7.9-5-14.3-6C75.2,115.2,71.7,119.2,71.1,124
			z"/>
	</g>
	<g>
		<path class="st8" d="M87.2,105.9c-2.5,0-4.6-2-4.6-4.5c0-2.5,2.1-4.5,4.6-4.5s4.6,2,4.6,4.5C91.8,103.9,89.8,105.9,87.2,105.9z
			 M87.2,98c-1.9,0-3.4,1.5-3.4,3.3c0,1.9,1.5,3.4,3.4,3.4c1.9,0,3.4-1.5,3.4-3.4C90.6,99.5,89.1,98,87.2,98z"/>
	</g>
</g>
</svg>
