<?xml version="1.0" encoding="utf-8"?>
<!-- Generator: Adobe Illustrator 22.0.1, SVG Export Plug-In . SVG Version: 6.00 Build 0)  -->
<svg version="1.1" id="Слой_1" xmlns="http://www.w3.org/2000/svg" xmlns:xlink="http://www.w3.org/1999/xlink" x="0px" y="0px"
	 viewBox="0 0 210 219" style="enable-background:new 0 0 210 219;" xml:space="preserve">
<style type="text/css">
	.st0{fill:#B9BBBC;}
	.st1{fill:#78D3FC;}
	.st2{fill:#A3DEFD;}
	.st3{fill:#E8F9FF;}
	.st4{filter:url(#Adobe_OpacityMaskFilter);}
	.st5{mask:url(#SVGID_1_);}
	.st6{fill:#E5E5E6;}
	.st7{fill:#FFFFFF;}
	.st8{filter:url(#Adobe_OpacityMaskFilter_1_);}
	.st9{mask:url(#SVGID_2_);}
</style>
<g>
	<image style="overflow:visible;" width="230" height="194" xlink:href="FD38B361.png"  transform="matrix(1 0 0 1 -15 39)">
	</image>
	<g>
		<g>
			<path class="st0" d="M77.3,80.2c-1.1,0-2.1-0.8-2.4-2c-0.3-1.4,0.5-2.8,1.8-3.1l15.3-3.8c1.3-0.3,2.6,0.5,2.9,1.9
				c0.3,1.4-0.5,2.8-1.8,3.1l-15.3,3.8C77.7,80.1,77.5,80.2,77.3,80.2z M121.3,80.1c-5.3-1.3-19.5-4.1-19.7-4.1
				c-1.1-0.2-1.9-1.1-2-2.3c-0.9-9.2,1.9-12,5.9-15l0.9-0.6c1.7-1.3,3.7-3.9,3.7-7c0-4.6-3.6-8.3-8-8.3c-4.4,0-8,3.7-8,8.3
				c0,1.4-1.1,2.6-2.4,2.6c-1.3,0-2.4-1.2-2.4-2.6c0-7.4,5.8-13.5,12.9-13.5c7.1,0,12.9,6.1,12.9,13.5c0,5.1-3,9.1-5.7,11.2
				l-0.9,0.7c-2.7,2-4.1,3.1-3.9,8.2c4.1,0.8,13.7,2.7,18,3.8c1.3,0.3,2.1,1.7,1.8,3.1C123.9,79.6,122.6,80.4,121.3,80.1z"/>
		</g>
	</g>
	<g>
		<g>
			<path class="st1" d="M142.6,194.3H57c-1.3,0-2.4-1.2-2.4-2.6v-52.6l-8.5,9.1c-0.5,0.5-1.1,0.8-1.8,0.8c-0.7,0-1.3-0.4-1.8-0.9
				l-21.7-27.4c-0.8-1-0.8-2.6,0.1-3.5l28.1-30.2c0-0.1,0.1-0.1,0.2-0.2c0.4-0.4,9.2-9.4,19.5-9.4c1,0,1.9,0.6,2.2,1.6
				c3.5,9.1,14.1,15,27.7,15.3c1.4,0.1,0.9,0.1,2.3,0c13.6-0.3,24.3-6.2,27.7-15.3c0.4-1,1.3-1.6,2.3-1.6c10.3,0,19.1,9,19.5,9.4
				l28.3,30.3c0.9,1,1,2.5,0.1,3.5L157.1,148c-0.4,0.6-1.1,0.9-1.8,0.9c-0.7,0.1-1.3-0.2-1.8-0.8l-8.5-9.1v52.6
				C145.1,193.1,144,194.3,142.6,194.3z M59.4,189.1h80.8v-56.3c0-1.1,0.6-2,1.5-2.4c0.9-0.4,2-0.2,2.7,0.6l10.7,11.5l18.5-23.4
				L147,90.5c0,0-6.8-7-14.5-7.8c-4.8,10.1-16.6,16.5-31.4,16.8c-1.3,0.1-1.2,0.1-2.5,0C83.8,99.1,72,92.7,67.2,82.6
				c-7.2,0.8-13.5,6.8-14.4,7.8c0,0-0.1,0.1-0.1,0.1L26,119.1l18.5,23.4l10.7-11.5c0.7-0.7,1.7-1,2.6-0.6c0.9,0.4,1.5,1.4,1.5,2.4
				V189.1z"/>
		</g>
	</g>
	<image style="overflow:visible;" width="230" height="194" xlink:href="FD38B363.png"  transform="matrix(1 0 0 1 -15 39)">
	</image>
	<g>
		<path class="st2" d="M142.6,193.3H57c-0.8,0-1.5-0.7-1.5-1.6v-55.1l-10.1,10.9c-0.3,0.3-0.7,0.5-1.1,0.5c-0.4,0-0.8-0.2-1.1-0.6
			l-21.7-27.4c-0.5-0.6-0.5-1.5,0.1-2.1l28.1-30.2c0-0.1,0.1-0.1,0.1-0.1c0.4-0.4,8.9-9.1,18.8-9.1c0.6,0,1.1,0.4,1.4,1
			c3.6,9.5,14.6,15.6,28.6,15.9c1.1,0.1,1.1,0.1,2.3,0c14-0.3,25-6.4,28.6-15.9c0.2-0.6,0.8-1,1.4-1c9.9,0,18.4,8.8,18.8,9.1
			l28.3,30.3c0.5,0.6,0.6,1.5,0.1,2.1l-21.7,27.4c-0.3,0.3-0.6,0.5-1.1,0.6c-0.5,0-0.8-0.1-1.1-0.5l-10.1-10.9v55.1
			C144.1,192.6,143.5,193.3,142.6,193.3z M58.4,190.1h82.7v-57.3c0-0.6,0.4-1.2,0.9-1.4c0.5-0.2,1.2-0.1,1.6,0.3l11.5,12.3l19.8-25
			l-27.3-29.3c-0.1-0.1-7.5-7.7-15.8-8.2c-4.4,10.1-16.1,16.5-30.8,16.9c-1.3,0.1-1.2,0.1-2.5,0C83.9,98,72.2,91.6,67.8,81.5
			C59.9,82,52.9,88.8,52,89.6c0,0,0,0.1-0.1,0.1L24.7,119l19.8,25L56,131.7c0.4-0.4,1-0.6,1.6-0.3c0.5,0.2,0.9,0.8,0.9,1.4V190.1z"
			/>
	</g>
	<g>
		<path class="st3" d="M142.6,192.2H57c-0.3,0-0.5-0.2-0.5-0.5V134l-11.8,12.6c-0.1,0.1-0.2,0.2-0.4,0.1c-0.1,0-0.3-0.1-0.4-0.2
			l-21.7-27.4c-0.2-0.2-0.2-0.5,0-0.7l28.2-30.2c0,0,0-0.1,0.1-0.1c0.3-0.4,8.6-8.8,18.1-8.8c0.2,0,0.4,0.1,0.4,0.3
			c3.8,9.9,15,16.2,29.5,16.6c1.6,0-0.6,0.1,2.4,0c14.4-0.4,25.7-6.7,29.5-16.6c0.1-0.2,0.3-0.3,0.5-0.3c9.5,0,17.8,8.5,18.1,8.8
			l28.3,30.3c0.2,0.2,0.2,0.5,0,0.7l-21.7,27.4c-0.1,0.1-0.2,0.2-0.4,0.2c-0.1,0-0.3,0-0.4-0.2L143.1,134v57.6
			C143.1,192,142.9,192.2,142.6,192.2z M57.5,191.2h84.7v-58.4c0-0.2,0.1-0.4,0.3-0.5c0.2-0.1,0.4,0,0.5,0.1l12.2,13.1l21.1-26.6
			l-27.9-30c-0.1-0.1-8.1-8.3-17.1-8.5c-4,10.1-15.6,16.5-30.2,16.9c-1.6,0,0.5,0.1-2.4,0C83.9,97,72.4,90.5,68.4,80.4
			c-8.6,0.2-16.3,7.7-17.1,8.5c0,0,0,0,0,0.1l-27.9,30l21.1,26.6l12.2-13.1c0.1-0.1,0.3-0.2,0.5-0.1c0.2,0.1,0.3,0.3,0.3,0.5V191.2z
			"/>
	</g>
	<defs>
		<filter id="Adobe_OpacityMaskFilter" filterUnits="userSpaceOnUse" x="37" y="0" width="126" height="218">
			<feColorMatrix  type="matrix" values="1 0 0 0 0  0 1 0 0 0  0 0 1 0 0  0 0 0 1 0"/>
		</filter>
	</defs>
	<mask maskUnits="userSpaceOnUse" x="37" y="0" width="126" height="218" id="SVGID_1_">
		<g class="st4">
			
				<image style="overflow:visible;" width="124.2" height="217.4" xlink:href="EB97A0D3.png"  transform="matrix(1 0 0 1 37.998 0)"/>
		</g>
	</mask>
	<g class="st5">
		<g>
			<image style="overflow:visible;" width="126" height="218" xlink:href="FD38B366.png"  transform="matrix(1 0 0 1 37 0)">
			</image>
		</g>
	</g>
	<g>
		<path class="st6" d="M121.5,79.1c-5.3-1.3-19.6-4.1-19.7-4.1c-0.6-0.1-1.1-0.7-1.2-1.4c-0.9-9.3,2.2-11.6,5.5-14l0.9-0.7
			c1.9-1.4,4.1-4.4,4.1-7.8c0-5.1-4-9.3-9-9.3c-5,0-9,4.2-9,9.3c0,0.9-0.7,1.6-1.5,1.6c-0.8,0-1.5-0.7-1.5-1.6
			c0-6.9,5.3-12.5,11.9-12.5c6.6,0,11.9,5.6,11.9,12.5c0,4.7-2.8,8.4-5.3,10.4l-0.9,0.7c-2.9,2.2-4.7,3.5-4.3,9.9
			c3.5,0.7,14.2,2.8,18.7,3.9c0.8,0.2,1.3,1,1.1,1.9C123.1,78.8,122.3,79.3,121.5,79.1z"/>
	</g>
	<g>
		<path class="st6" d="M77.3,79.1c-0.7,0-1.3-0.5-1.4-1.2c-0.2-0.8,0.3-1.7,1.1-1.9l15.3-3.8c0.8-0.2,1.6,0.3,1.8,1.2
			c0.2,0.8-0.3,1.7-1.1,1.9l-15.3,3.8C77.5,79.1,77.4,79.1,77.3,79.1z"/>
	</g>
	<g>
		<path class="st7" d="M121.7,78.1c-5.4-1.3-19.6-4.1-19.8-4.1c-0.2,0-0.4-0.2-0.4-0.5c-0.8-8.7,1.8-10.6,5-13
			c0.3-0.2,0.6-0.4,0.9-0.7c2.1-1.6,4.5-4.8,4.5-8.7c0-5.7-4.5-10.4-10-10.4c-5.5,0-10,4.7-10,10.4c0,0.3-0.2,0.5-0.5,0.5
			c-0.3,0-0.5-0.2-0.5-0.5c0-6.3,4.9-11.4,10.9-11.4c6,0,10.9,5.1,10.9,11.4c0,4.3-2.7,7.8-4.9,9.5c-0.3,0.2-0.6,0.5-0.9,0.7
			c-3.1,2.3-5.3,3.9-4.7,11.7c2.3,0.4,14.5,2.9,19.4,4.1c0.3,0.1,0.4,0.3,0.4,0.6C122.2,77.9,122,78.1,121.7,78.1z"/>
	</g>
	<g>
		<path class="st7" d="M77.3,78.1c-0.2,0-0.4-0.2-0.5-0.4c-0.1-0.3,0.1-0.6,0.4-0.6l15.3-3.8c0.3-0.1,0.5,0.1,0.6,0.4
			c0.1,0.3-0.1,0.6-0.4,0.6l-15.3,3.8C77.4,78.1,77.4,78.1,77.3,78.1z"/>
	</g>
	<defs>
		<filter id="Adobe_OpacityMaskFilter_1_" filterUnits="userSpaceOnUse" x="37" y="0" width="126" height="218">
			<feColorMatrix  type="matrix" values="1 0 0 0 0  0 1 0 0 0  0 0 1 0 0  0 0 0 1 0"/>
		</filter>
	</defs>
	<mask maskUnits="userSpaceOnUse" x="37" y="0" width="126" height="218" id="SVGID_2_">
		<g class="st8">
			
				<image style="overflow:visible;" width="124.2" height="217.4" xlink:href="EB97A0D1.png"  transform="matrix(1 0 0 1 37.997 0)"/>
		</g>
	</mask>
	<g class="st9">
		<g>
			<image style="overflow:visible;" width="126" height="218" xlink:href="FD38B367.png"  transform="matrix(1 0 0 1 37 0)">
			</image>
		</g>
	</g>
</g>
</svg>
