<?xml version="1.0" encoding="utf-8"?>
<!-- Generator: Adobe Illustrator 22.0.1, SVG Export Plug-In . SVG Version: 6.00 Build 0)  -->
<svg version="1.1" id="Слой_1" xmlns="http://www.w3.org/2000/svg" xmlns:xlink="http://www.w3.org/1999/xlink" x="0px" y="0px"
	 viewBox="0 0 210 219" style="enable-background:new 0 0 210 219;" xml:space="preserve">
<style type="text/css">
	.st0{fill:#00D5FF;}
	.st1{fill:#FF0703;}
	.st2{fill:#85E0FF;}
	.st3{fill:#E2FAFF;}
	.st4{fill:#FF751F;}
	.st5{fill:#FFEB36;}
</style>
<g>
	<g>
		<g>
			<path class="st0" d="M135.3,157.7c0,0-0.1,0-0.1,0c-1.2,0-3.4-0.7-4.5-5.1c-0.4-1.7-1.7-9.2-3.8-21.4c-1.2-7.2-2.4-14.5-3.2-18.6
				c-2,7.2-7,25.1-7.8,27.8c-0.8,2.9-2.8,5-5,5.1c-1.9,0.1-3.7-1-4.6-3.2c-0.6-1.4-1.4-3-2.2-4.7c-0.8-1.7-1.6-3.3-2.2-4.6
				c-0.1-0.2-0.2-0.4-0.3-0.5c-0.1,0.1-0.2,0.4-0.4,0.7c-2,3.7-3.8,7-8.9,7l-26.7,0c-5.2,0-9.4-4.5-9.4-10.1v-27.9h-26
				c-5.2,0-9.4-4.5-9.4-10.1V69.6c0-5.6,4.2-10.1,9.4-10.1h26V31.6c0-5.5,4.2-10.1,9.4-10.1h21.1c5.2,0,9.4,4.5,9.4,10.1v27.9h26
				c5.2,0,9.4,4.5,9.4,10.1V82c0,1.6-1.2,2.9-2.7,2.9c-1.5,0-2.7-1.3-2.7-2.9V69.6c0-2.4-1.8-4.3-4-4.3H93.3c-1.5,0-2.7-1.3-2.7-2.9
				V31.6c0-2.4-1.8-4.3-4-4.3H65.5c-2.2,0-4,1.9-4,4.3v30.8c0,1.6-1.2,2.9-2.7,2.9H30.1c-2.2,0-4,1.9-4,4.3v22.7
				c0,2.4,1.8,4.3,4,4.3h28.7c1.5,0,2.7,1.3,2.7,2.9v30.8c0,2.4,1.8,4.3,4,4.3l26.7,0c1.8,0,2.2-0.4,4.2-4.1
				c1.8-3.4,4.1-3.8,5.3-3.7c2.1,0.1,3.9,1.6,4.9,3.9c0.5,1.2,1.3,2.7,2.1,4.3c0.7,1.4,1.4,2.8,1.9,4c0-0.1,0-0.1,0.1-0.2
				c0.9-3.2,7.4-26.6,8.5-30.4c0.4-1.4,1.6-5.6,4.8-5.5c3.1,0.1,4,4.2,4.4,5.7c0.6,2.7,2.1,11.9,3.8,21.6c1.2,7.2,2.5,15.2,3.3,18.9
				c1.5-5.4,4.2-16.8,5.6-23.4c1.1-4.8,3.8-5.5,4.9-5.6c2.2-0.2,4.2,1.5,5.3,4.3c0.8,2.4,2.8,7.5,3.6,9.3c0.1,0.1,0.1,0.2,0.1,0.3
				c0.1-0.1,0.1-0.2,0.2-0.3c2.1-3.5,4.1-4.5,8.8-4.5c4.1,0,8,0.1,8,0.1c1.5,0,2.7,1.3,2.6,2.9c0,1.6-1.3,2.8-2.7,2.8
				c0,0-3.9-0.1-7.9-0.1c-3.2,0-3.4,0.4-4.3,1.8c-1.3,2.2-3.2,3.4-5.2,3.3c-1.1-0.1-3.2-0.7-4.6-4c-0.7-1.8-2.7-6.7-3.6-9.2
				c0,0.1,0,0.1-0.1,0.2c-0.5,2.1-4.6,20.4-6.3,25.7C138.9,156,137.4,157.7,135.3,157.7z"/>
		</g>
	</g>
	<g>
		<g>
			<path class="st1" d="M130.2,187.7c-0.5,0-0.9-0.1-1.3-0.4c-1-0.6-24.3-14.9-42.5-34.5c-1.3-1.4-2.5-2.8-3.6-4.3
				c-0.9-1.2-0.7-3.1,0.4-4.1c1.2-1,2.9-0.8,3.8,0.4c1,1.3,2.1,2.6,3.2,3.9c15.3,16.4,34.8,29.4,40,32.7c5.2-3.3,24.7-16.3,40-32.7
				c13.6-14.6,16-36.4,10.4-49c-5.8-13-20.5-17.7-30.7-14c-9.7,3.6-17.7,12.6-17.8,12.7c-0.5,0.6-1.2,0.9-2,0.9l0,0
				c-0.7,0-1.5-0.3-2-0.9c-0.1-0.1-8-9.1-17.8-12.7c-10.2-3.7-24.9,1-30.7,14c-3.3,7.4-3.8,17.2-1.3,27c0.4,1.5-0.5,3.1-1.9,3.5
				c-1.4,0.4-2.9-0.5-3.3-2c-2.8-11.1-2.1-22.4,1.7-31c7-15.8,24.9-21.5,37.3-17c8.1,3,14.8,9,18,12.2c3.2-3.2,9.9-9.2,18-12.2
				c12.4-4.5,30.3,1.2,37.3,17c7.4,16.7,2.5,40.6-11.5,55.6c-18.3,19.6-41.5,33.9-42.5,34.5C131.1,187.6,130.7,187.7,130.2,187.7z"
				/>
		</g>
	</g>
	<image style="overflow:visible;" width="232" height="220" xlink:href="63A75E48.png"  transform="matrix(1 0 0 1 -18 -20)">
	</image>
	<g>
		<path class="st2" d="M135.3,156.5C135.3,156.5,135.3,156.5,135.3,156.5c-1.2,0-2.7-0.8-3.6-4.3c-0.5-1.7-2.1-11.2-3.8-21.3
			c-1.5-9.2-3.1-18.7-3.7-21.3c-0.1-0.6-0.3-1-0.4-1.3c-0.2,0.4-0.3,0.8-0.5,1.4c-1.1,3.8-7.6,27.2-8.5,30.4
			c-0.7,2.5-2.3,4.2-4.1,4.3c-1.5,0.1-2.8-0.8-3.6-2.5c-0.6-1.4-1.5-3.1-2.3-4.7c-0.8-1.7-1.6-3.3-2.2-4.5c-0.4-0.9-0.9-1.3-1.2-1.3
			c-0.4,0-0.8,0.4-1.4,1.4c-1.9,3.6-3.5,6.4-7.9,6.4l-26.7,0c-4.6,0-8.3-4-8.3-8.9v-29H30.1c-4.6,0-8.3-4-8.3-8.9V69.6
			c0-4.9,3.7-8.9,8.3-8.9h27.1v-29c0-4.9,3.7-8.9,8.3-8.9h21.1c4.6,0,8.3,4,8.3,8.9v29H122c4.6,0,8.3,4,8.3,8.9V82
			c0,1-0.7,1.7-1.6,1.7c-0.9,0-1.6-0.8-1.6-1.7V69.6c0-3-2.3-5.5-5.1-5.5H93.3c-0.9,0-1.6-0.8-1.6-1.7V31.6c0-3-2.3-5.5-5.1-5.5
			H65.5c-2.8,0-5.1,2.4-5.1,5.5v30.8c0,1-0.7,1.7-1.6,1.7H30.1c-2.8,0-5.1,2.4-5.1,5.5v22.7c0,3,2.3,5.5,5.1,5.5h28.7
			c0.9,0,1.6,0.8,1.6,1.7v30.8c0,3,2.3,5.5,5.1,5.5l26.7,0c2.5,0,3.2-1,5.1-4.7c1.5-2.8,3.4-3.2,4.4-3.2c1.6,0.1,3.1,1.3,4,3.3
			c0.5,1.2,1.3,2.8,2.1,4.4c0.8,1.7,1.7,3.5,2.3,4.9c0.2,0.4,0.4,0.6,0.4,0.6c0.2,0.1,0.9-0.5,1.2-1.8c0.9-3.2,7.4-26.6,8.5-30.4
			c0.3-1.2,1.2-4.7,3.7-4.7c2.3,0.1,3.1,3.5,3.4,4.8c0.6,2.7,2.1,11.8,3.8,21.5c1.5,9.1,3.3,19.4,3.7,21c0.2,0.6,0.4,1.1,0.5,1.4
			c0.2-0.3,0.4-0.8,0.6-1.5c1.3-4.1,4.5-17.8,6.2-25.3c0.9-4,3.1-4.6,3.9-4.7c1.7-0.1,3.4,1.2,4.2,3.5c0.8,2.4,2.9,7.5,3.6,9.3
			c0.4,0.9,0.8,1.3,1,1.3c0.2,0.1,0.7-0.3,1.3-1.1c1.8-3.1,3.6-4,7.9-4c4.1,0,8,0.1,8,0.1c0.9,0,1.6,0.8,1.6,1.8
			c0,1-0.6,1.8-1.6,1.7c0,0-3.9-0.1-7.9-0.1c-3.6,0-4.1,0.6-5.2,2.4c-1.1,1.9-2.6,2.8-4.2,2.7c-0.9-0.1-2.6-0.6-3.7-3.3
			c-0.8-1.8-2.8-7.1-3.7-9.5c-0.4-1-0.9-1.4-1-1.3c-0.1,0-0.6,0.4-1,2c-0.5,2.1-4.6,20.4-6.3,25.6
			C138.6,153.3,137.6,156.5,135.3,156.5z"/>
	</g>
	<g>
		<path class="st3" d="M135.3,155.3C135.3,155.3,135.3,155.3,135.3,155.3c-1.1,0-2-1.3-2.6-3.4c-0.5-1.7-2-11.2-3.7-21.2
			c-1.6-9.2-3.2-18.8-3.7-21.4c-0.7-3-1.3-3-1.3-3c0,0,0,0,0,0c-0.3,0-1,0.8-1.6,3.1c-1.1,3.8-7.6,27.2-8.5,30.4
			c-0.6,2-1.8,3.4-3.1,3.5c-1,0.1-1.9-0.6-2.5-1.9c-0.6-1.4-1.5-3.1-2.3-4.8c-0.8-1.7-1.6-3.2-2.1-4.5c-0.5-1.2-1.3-1.9-2.2-2
			c-0.9-0.1-1.7,0.7-2.4,2c-1.9,3.5-3.2,5.8-7,5.8l-26.7,0c-4,0-7.2-3.5-7.2-7.8V100H30.1c-4,0-7.2-3.5-7.2-7.8V69.6
			c0-4.3,3.2-7.8,7.2-7.8h28.1V31.6c0-4.3,3.2-7.8,7.2-7.8h21.1c4,0,7.2,3.5,7.2,7.8v30.2H122c4,0,7.2,3.5,7.2,7.8V82
			c0,0.3-0.2,0.6-0.5,0.6c-0.3,0-0.5-0.3-0.5-0.6V69.6c0-3.6-2.8-6.6-6.2-6.6H93.3c-0.3,0-0.5-0.3-0.5-0.6V31.6
			c0-3.6-2.8-6.6-6.2-6.6H65.5c-3.4,0-6.2,3-6.2,6.6v30.8c0,0.3-0.2,0.6-0.5,0.6H30.1c-3.4,0-6.2,3-6.2,6.6v22.7
			c0,3.6,2.8,6.6,6.2,6.6h28.7c0.3,0,0.5,0.3,0.5,0.6v30.8c0,3.6,2.8,6.6,6.2,6.6l26.7,0c3.1,0,4-1.5,6.1-5.3
			c1.2-2.2,2.5-2.6,3.4-2.6c1.2,0.1,2.4,1,3.1,2.6c0.5,1.2,1.3,2.8,2.1,4.4c0.8,1.7,1.7,3.4,2.3,4.8c0.4,0.8,0.9,1.2,1.5,1.2
			c0.7-0.1,1.7-0.9,2.2-2.7c0.9-3.2,7.4-26.6,8.5-30.4c0.7-2.6,1.6-3.9,2.6-3.9c0,0,0,0,0,0c1,0,1.7,1.3,2.3,3.9
			c0.6,2.7,2.2,12.2,3.8,21.5c1.6,9.6,3.3,19.4,3.7,21.1c0.5,1.8,1.1,2.6,1.5,2.6c0.4,0.1,1-0.7,1.6-2.6c1.7-5.1,5.8-23.3,6.2-25.4
			c0.5-2.3,1.6-3.7,3-3.8c1.2,0,2.5,1,3.1,2.8c0.8,2.3,2.9,7.5,3.6,9.4c0.5,1.2,1.2,1.9,1.9,1.9c0.7,0,1.6-0.6,2.2-1.7
			c1.5-2.5,2.8-3.4,7-3.4c4,0,7.9,0.1,7.9,0.1c0.3,0,0.5,0.3,0.5,0.6c0,0.3-0.2,0.6-0.5,0.6h0c0,0-3.9-0.1-7.9-0.1
			c-4,0-4.8,0.8-6.1,2.9c-0.9,1.5-2,2.3-3.2,2.2c-0.8-0.1-1.9-0.6-2.8-2.6c-0.8-1.9-2.8-7.1-3.7-9.5c-0.5-1.3-1.2-2.1-2-2.1
			c0,0,0,0-0.1,0c-0.8,0.1-1.6,1.2-2,2.9c-0.5,2.1-4.6,20.3-6.3,25.5C137.2,154.2,136.4,155.3,135.3,155.3z"/>
	</g>
	<image style="overflow:visible;" width="196" height="193" xlink:href="63A75E4F.png"  transform="matrix(1 0 0 1 32 37)">
	</image>
	<g>
		<path class="st4" d="M130.2,186.5c-0.3,0-0.6-0.1-0.8-0.2c-0.2-0.1-24.1-14.8-42.3-34.3c-1.2-1.3-2.4-2.8-3.5-4.2
			c-0.6-0.7-0.4-1.8,0.3-2.4c0.7-0.6,1.7-0.5,2.3,0.3c1,1.4,2.2,2.7,3.3,4c16,17.1,36.5,30.5,40.8,33.2c4.3-2.7,24.8-16.1,40.8-33.2
			c14-15,16.4-37.4,10.6-50.3c-6-13.5-21.4-18.5-32-14.6c-10,3.7-18.1,12.9-18.2,13c-0.3,0.3-0.7,0.5-1.2,0.5l0,0
			c-0.4,0-0.9-0.2-1.2-0.5c-0.1-0.1-8.2-9.4-18.2-13c-10.6-3.9-26,1-32,14.6c-3.4,7.7-3.9,17.8-1.4,27.8c0.2,0.9-0.3,1.9-1.1,2.1
			c-0.9,0.3-1.7-0.3-2-1.2c-2.7-10.8-2.1-21.8,1.6-30.2c6.8-15.2,24.1-20.7,36-16.4c8.6,3.1,15.7,9.8,18.4,12.7
			c2.7-2.8,9.8-9.5,18.4-12.7c11.9-4.4,29.2,1.2,36,16.4c7.2,16.3,2.4,39.6-11.2,54.3c-18.2,19.5-42.1,34.1-42.3,34.3
			C130.7,186.4,130.5,186.5,130.2,186.5z"/>
	</g>
	<g>
		<path class="st5" d="M130.2,185.4c-0.1,0-0.2,0-0.3-0.1c-0.2-0.1-24-14.7-42.1-34.1c-1.2-1.3-2.4-2.7-3.5-4.2
			c-0.2-0.2-0.1-0.6,0.1-0.8c0.2-0.2,0.6-0.2,0.8,0.1c1.1,1.4,2.2,2.8,3.4,4.1c16.9,18.2,38.9,32.1,41.6,33.7
			c2.7-1.7,24.6-15.6,41.6-33.7c14.3-15.4,16.7-38.3,10.8-51.6c-6.3-14.1-22.3-19.2-33.3-15.2c-10.3,3.8-18.6,13.2-18.7,13.3
			c-0.1,0.1-0.2,0.2-0.4,0.2l0,0c-0.2,0-0.3-0.1-0.4-0.2c-0.1-0.1-8.4-9.6-18.7-13.3c-11-4-27.1,1.1-33.3,15.2
			c-3.5,7.9-4,18.3-1.5,28.6c0.1,0.3-0.1,0.6-0.4,0.7c-0.3,0.1-0.6-0.1-0.7-0.4c-2.6-10.5-2.1-21.3,1.5-29.4
			c6.5-14.6,23.2-20,34.7-15.8c9.3,3.4,16.9,11.3,18.7,13.2c1.8-1.9,9.5-9.8,18.7-13.2c11.5-4.2,28.2,1.1,34.6,15.8
			c7.1,15.9,2.3,38.6-11,53c-18.1,19.4-41.8,33.9-42.1,34.1C130.4,185.3,130.3,185.4,130.2,185.4z"/>
	</g>
	<image style="overflow:visible;" width="232" height="220" xlink:href="63A75E4A.png"  transform="matrix(1 0 0 1 -18 -20)">
	</image>
	<image style="overflow:visible;" width="196" height="193" xlink:href="63A75E45.png"  transform="matrix(1 0 0 1 32 37)">
	</image>
</g>
</svg>
