<?xml version="1.0" encoding="utf-8"?>
<!-- Generator: Adobe Illustrator 22.0.1, SVG Export Plug-In . SVG Version: 6.00 Build 0)  -->
<svg version="1.1" id="Слой_1" xmlns="http://www.w3.org/2000/svg" xmlns:xlink="http://www.w3.org/1999/xlink" x="0px" y="0px"
	 viewBox="0 0 210 219" style="enable-background:new 0 0 210 219;" xml:space="preserve">
<style type="text/css">
	.st0{fill:#FF0703;}
	.st1{fill:#FF7B24;}
	.st2{fill:#FFC661;}
	.st3{fill:#BBBDBF;}
	.st4{fill:#F0F1F1;}
	.st5{fill:#FFFFFF;}
	.st6{fill:#845EFF;}
	.st7{fill:#704DFF;}
	.st8{fill:#5E52FF;}
	.st9{fill:#A494FF;}
	.st10{fill:#D2C7FF;}
	.st11{fill:#00BEFF;}
	.st12{fill:#73E4FF;}
	.st13{fill:#E2FAFF;}
</style>
<g>
	<image style="overflow:visible;" width="116" height="116" xlink:href="FC05A8C4.png"  transform="matrix(1 0 0 1 36 3)">
	</image>
	<g>
		<g>
			<path class="st0" d="M114,96.2c-1.6,0-3.5-0.4-5.8-1.4c-0.8-0.3-1.1-1.2-0.8-2c0.3-0.8,1.2-1.1,2-0.8c6.3,2.7,8.5-0.5,8.6-0.7
				c0.4-0.7,1.4-0.9,2.1-0.5c0.7,0.4,0.9,1.3,0.5,2C120.4,93.2,118.5,96.2,114,96.2z M75.7,88.3c-0.2,0-0.3,0-0.5-0.1
				c-6.9-2.3-12.5-8.5-15.2-16.8c-3.6-10.8-1.9-23.1,4.4-32.2c14.1-20.3,37-11.8,37.3-11.7c0.8,0.3,1.2,1.2,0.9,1.9
				c-0.3,0.8-1.2,1.2-1.9,0.9c-0.9-0.3-21-7.8-33.7,10.6c-5.8,8.3-7.3,19.6-4,29.5c2.5,7.4,7.3,12.9,13.3,14.9
				c0.8,0.3,1.2,1.1,0.9,1.9C76.9,87.9,76.3,88.3,75.7,88.3z M89.4,53.2C89.3,53.2,89.3,53.2,89.4,53.2c-0.9,0-1.5-0.7-1.5-1.6
				c0.3-7.1,4-13.1,10.5-16.9c6.8-4,15.4-4.7,21.5-1.7c12.3,6,8.7,17.9,8.7,18.1c-0.3,0.8-1.1,1.2-1.9,1c-0.8-0.2-1.2-1.1-1-1.9
				c0.1-0.4,2.8-9.6-7.1-14.5c-5.2-2.6-12.7-1.9-18.7,1.6c-3.2,1.9-8.7,6.3-9,14.5C90.8,52.6,90.2,53.2,89.4,53.2z"/>
		</g>
	</g>
	<g>
		<path class="st1" d="M114,95.6c-1.5,0-3.4-0.4-5.6-1.3c-0.5-0.2-0.7-0.7-0.5-1.2c0.2-0.5,0.7-0.7,1.2-0.5c6.8,2.9,9.2-0.7,9.3-0.9
			c0.3-0.4,0.8-0.6,1.2-0.3c0.4,0.3,0.6,0.8,0.3,1.2C119.9,92.9,118.2,95.6,114,95.6z M75.7,87.7c-0.1,0-0.2,0-0.3,0
			c-6.7-2.3-12.1-8.3-14.8-16.4c-3.5-10.6-1.8-22.7,4.3-31.7c13.8-19.9,36.3-11.5,36.5-11.4c0.5,0.2,0.7,0.7,0.5,1.2
			c-0.2,0.5-0.7,0.7-1.2,0.5c-0.9-0.3-21.4-8-34.4,10.8c-5.9,8.5-7.4,20-4.1,30.1C64.8,78.3,69.8,83.9,76,86
			c0.5,0.2,0.7,0.7,0.6,1.1C76.4,87.5,76.1,87.7,75.7,87.7z M89.4,52.6C89.4,52.6,89.3,52.6,89.4,52.6c-0.5,0-0.9-0.4-0.9-0.9
			c0.3-6.9,3.9-12.7,10.2-16.4c6.6-3.9,15-4.6,20.9-1.7c11.8,5.8,8.4,17.2,8.3,17.3c-0.1,0.5-0.7,0.7-1.1,0.6
			c-0.5-0.1-0.7-0.7-0.6-1.1c0.1-0.4,3-10.1-7.4-15.2c-5.4-2.6-13.1-2-19.2,1.6c-5.7,3.4-9.1,8.7-9.3,15
			C90.2,52.2,89.9,52.6,89.4,52.6z"/>
	</g>
	<g>
		<path class="st2" d="M113.9,95c-1.4,0-3.2-0.3-5.2-1.2c-0.2-0.1-0.2-0.2-0.2-0.4c0.1-0.2,0.2-0.2,0.4-0.2c7.4,3.2,10-0.9,10.1-1.1
			c0.1-0.1,0.3-0.2,0.4-0.1c0.1,0.1,0.2,0.3,0.1,0.4C119.5,92.4,117.9,95,113.9,95z M75.7,87.1C75.7,87.1,75.6,87.1,75.7,87.1
			c-6.7-2.2-11.9-8.1-14.6-16.1c-3.4-10.4-1.8-22.4,4.3-31.1c13.5-19.6,35.6-11.3,35.8-11.2c0.2,0.1,0.2,0.2,0.2,0.4
			c-0.1,0.2-0.2,0.2-0.4,0.2c-0.2-0.1-21.9-8.2-35.1,11c-6,8.6-7.6,20.3-4.2,30.6c2.6,7.8,7.7,13.5,14.1,15.7
			c0.2,0.1,0.2,0.2,0.2,0.4C75.9,87,75.8,87.1,75.7,87.1z M89.4,52C89.4,52,89.4,52,89.4,52c-0.2,0-0.3-0.1-0.3-0.3
			c0.3-6.7,3.8-12.3,9.9-16c6.4-3.8,14.6-4.5,20.4-1.7c11.3,5.5,8.1,16.5,8,16.6c0,0.2-0.2,0.3-0.4,0.2c-0.2-0.1-0.2-0.2-0.2-0.4
			c0.1-0.4,3.2-10.6-7.7-15.9c-5.6-2.7-13.5-2.1-19.8,1.7c-5.9,3.5-9.3,9-9.6,15.5C89.7,51.9,89.5,52,89.4,52z"/>
	</g>
	<image style="overflow:visible;" width="137" height="170" xlink:href="FC05A8C5.png"  transform="matrix(1 0 0 1 53 24)">
	</image>
	<g>
		<g>
			<path class="st3" d="M137.8,170.7c-10.1,0-20.7-1.4-26-4.4c-0.3-0.1-0.5-0.4-0.6-0.7c-0.2-0.5-5.3-11.4,1.6-22.4
				c0.4-0.7,1.4-0.9,2.1-0.5c0.7,0.4,0.9,1.4,0.5,2.1c-5.3,8.5-2.4,17.1-1.6,19.1c9.1,4.7,34,4.8,43.3,1.4c2.3-0.9,2.6-1.6,2.7-1.7
				c1.1-3.4,5.9-69.9,3.5-76.1c-0.9-2.3-12.1-14.3-14.4-14.9c-1.5,0.2-10,4.5-10.8,5.9c-0.5,1-0.1,1.7-0.1,1.8
				c0.4,0.7,0.2,1.6-0.5,2.1c-0.7,0.4-1.6,0.3-2-0.4c-0.5-0.8-1.1-2.6-0.1-4.8c1.3-2.7,11.5-7.5,13.6-7.6c0,0,0,0,0,0
				c3.5,0,16,14,17.1,16.8c2.7,7-2.3,74.9-3.5,78.2c-0.5,1.4-2,2.6-4.5,3.5C153.5,169.8,145.8,170.7,137.8,170.7z M146.8,149.9
				c-0.2,0-0.5-0.1-0.7-0.2c-0.4-0.2-1.1-0.6-1.9-1.1c-0.7-0.4-1.5-0.9-1.9-1.1c-0.8-0.3-1.1-1.2-0.7-2c0.3-0.8,1.2-1.1,2-0.7
				c0.4,0.2,1.1,0.6,1.8,1.1l4.5-48.9c-5.5-1.9-15.8-6-17-9.3c-0.3-0.7-0.2-1.5,0.3-2.1c2.5-3.8,7.4-2.4,11-1.4
				c0.8,0.2,1.5,0.4,2.2,0.6c0.3,0.1,0.7,0.1,0.8-0.1c0.2-0.3,0.2-0.8,0.1-1.3l-0.5,0.4c-0.4,0.3-0.9,0.4-1.4,0.3
				c-0.7-0.2-2.4-0.8-3.2-1.4c-0.6-0.5-0.7-1.5-0.2-2.1c0.5-0.6,1.5-0.8,2.1-0.2c0.2,0.1,0.8,0.4,1.5,0.6l1.4-1.1
				c0.6-0.4,1.3-0.4,1.9,0c1.3,1,2,4.1,1.1,6.1c-0.7,1.5-2.3,2.1-4.1,1.7c-0.7-0.2-1.5-0.4-2.4-0.6c-3.5-1-6.2-1.6-7.5-0.1
				c1.2,1.6,8.3,4.9,16.1,7.6c0.7,0.2,1.1,0.9,1,1.6l-4.9,52.5c0,0.5-0.3,0.9-0.8,1.2C147.3,149.9,147.1,149.9,146.8,149.9z
				 M131.1,148.3c-0.2,0-0.4,0-0.6-0.1c-4-1.9-3.6-9.5-3.6-9.6c0.1-1.3,3.3-7.6,5.5-9.3c0.6-0.5,1.3-0.7,1.9-0.6c3.4,0.4,8.5,7,10,9
				c0.5,0.7,0.4,1.6-0.3,2.1c-0.7,0.5-1.6,0.4-2.1-0.3c-2.6-3.4-6.1-7.1-7.7-7.7c-1.2,1-4,6.2-4.3,7.3c-0.1,1.3,0.3,5.7,1.9,6.5
				c0.8,0.3,1.1,1.2,0.7,2C132.2,148,131.7,148.3,131.1,148.3z M137.5,148.3c-0.4,0-0.8-0.1-1.2-0.2c-1.9-0.7-3.5-3-4-5.5
				c-0.7-3.6,2.2-6.5,2.3-6.7c0.6-0.6,1.5-0.6,2.1,0c0.6,0.6,0.6,1.5,0,2.1c-0.1,0.1-1.8,1.9-1.5,3.9c0.3,1.5,1.2,2.6,1.8,3
				c-0.1-0.6-0.3-1.5-0.8-2c-0.6-0.6-0.6-1.5-0.1-2.1c0.6-0.6,1.5-0.6,2.1-0.1c1.3,1.3,1.8,3.4,1.8,4.8c-0.1,0.9-0.4,1.6-0.9,2
				C138.6,148.1,138.1,148.3,137.5,148.3z M125.5,147.6c-0.4,0-0.9-0.2-1.2-0.6c-2.1-2.6-3.2-8.3-3.3-9.5c-0.1-1.7,0.7-2.9,3.7-7.4
				c1.8-2.7,3.1-3.7,4.4-3.5c0.9,0.2,1.4,0.9,1.6,1.5c0.2,0.8-0.3,1.6-1.1,1.8c-0.3,0.1-0.6,0.1-0.9,0c-0.3,0.3-0.8,0.9-1.5,1.9
				c-2.4,3.7-3.3,4.9-3.2,5.6c0,0.9,1.1,5.9,2.6,7.7c0.5,0.6,0.4,1.6-0.2,2.1C126.1,147.5,125.8,147.6,125.5,147.6z M119.4,144.4
				c-0.4,0-0.8-0.2-1.1-0.5c-2.2-2.5-3-7.2-2.7-8.4c0.2-0.9,2-4.2,3.5-6.8c1.1-1.8,2.1-2.7,3.3-2.8c0.8-0.1,1.5,0.3,1.8,0.7
				c0.6,0.6,0.5,1.6-0.1,2.1c-0.4,0.4-1,0.5-1.5,0.3c-0.2,0.2-0.5,0.5-0.9,1.2c-1.8,2.9-3,5.5-3.2,5.9c0,0.6,0.6,4.1,2.1,5.8
				c0.5,0.6,0.5,1.6-0.1,2.1C120.1,144.3,119.7,144.4,119.4,144.4z M101.6,121.3c-1.4,0-3.1-0.4-5.2-1.3c-6.7-2.9-17.5-8.7-17.9-8.9
				c-0.5-0.3-0.8-0.8-0.8-1.3V90.3c0-0.8,0.7-1.5,1.5-1.5c0.8,0,1.5,0.7,1.5,1.5v18.5c2.6,1.4,11.3,6,16.9,8.4c3.5,1.5,4.6,1,4.7,1
				l0.1-7.2c0-0.8,0.7-1.5,1.5-1.5c0.8,0,1.5,0.7,1.5,1.5v7.2c0,0.7-0.4,1.8-1.4,2.5C103.3,121.1,102.5,121.3,101.6,121.3z
				 M111.1,107.3c-8.5,0-20-6.7-24.9-17.9c-1.6-0.9-7-4.3-9.3-8.6c-2.3-4.3-1.6-8.3-0.2-10.6c1.1-1.8,2.8-2.9,4.5-2.8
				c0.9,0,2.7,0.5,4,3c1.1,2.1,1.8,2.9,2.1,3.2c0.2-0.4,0.4-1,0.4-1.4C88.3,55,95,46.5,108.4,46.5c15.2,0,17.9,10,18.7,20.7
				c0,0.1,0,0.3,0,0.4c0,0.2-0.1,0.4-0.3,0.6c-0.1,0.2-0.3,0.3-0.5,0.4c-0.1,0.1-0.3,0.1-0.4,0.1l-6.4,1.3c-0.8,0.2-1.6-0.4-1.8-1.2
				c-0.2-0.8,0.4-1.6,1.2-1.8l5.1-1c-1.1-12.2-5.3-16.6-15.6-16.6c-11.7,0-17.2,7.1-17.6,22.9c-0.1,1.1-0.7,3.9-2.9,4.3
				c-2.3,0.4-4.1-2.5-5.4-5c-0.2-0.5-0.8-1.3-1.4-1.3c-0.6,0-1.3,0.5-1.9,1.4c-1,1.6-1.5,4.5,0.2,7.6c2,3.7,7.1,6.8,8.3,7.5
				c0.4,0.1,0.7,0.4,0.9,0.8c4.2,10.3,14.6,16.5,22.3,16.5c3,0,5.5-1,7.4-3c4.4-4.5,6.4-14.3,5.9-28.9c0-0.8,0.6-1.5,1.5-1.6
				c0.8,0,1.5,0.6,1.6,1.5c0.5,15.7-1.7,25.9-6.7,31.1C118.1,106,114.9,107.3,111.1,107.3z M109.7,70.2h-8.9c-0.8,0-1.5-0.7-1.5-1.5
				c0-0.8,0.7-1.5,1.5-1.5h8.9c0.8,0,1.5,0.7,1.5,1.5C111.2,69.5,110.5,70.2,109.7,70.2z"/>
		</g>
	</g>
	<g>
		<path class="st4" d="M137.7,170.1c-10,0-20.5-1.4-25.7-4.3c-0.2-0.1-0.3-0.2-0.4-0.4c-0.2-0.4-5.1-11.1,1.6-21.9
			c0.3-0.4,0.8-0.5,1.2-0.3c0.4,0.3,0.6,0.8,0.3,1.2c-5.6,9.1-2.3,18.2-1.6,19.9c9.1,4.8,34.5,5,43.9,1.5c2.3-0.9,2.9-1.7,3.1-2.1
			c1.1-3.1,5.9-70.2,3.5-76.5c-1.1-2.9-12.9-15.1-14.8-15.3c-1.6,0-10.8,4.7-11.5,6.2c-0.7,1.4-0.1,2.3-0.1,2.4
			c0.3,0.4,0.1,1-0.3,1.2c-0.4,0.3-1,0.2-1.2-0.2c-0.1-0.1-1.2-1.8-0.1-4.2c1.1-2.4,11.3-7.2,13.1-7.2c0,0,0,0,0,0
			c3.1,0,15.5,13.9,16.5,16.5c2.7,6.9-2.3,74.5-3.5,77.8c-0.5,1.3-1.8,2.3-4.1,3.2C153.3,169.2,145.6,170.1,137.7,170.1z
			 M146.8,149.3c-0.1,0-0.3,0-0.4-0.1c-0.4-0.2-1.1-0.6-1.8-1.1c-0.8-0.5-1.5-0.9-1.9-1.1c-0.5-0.2-0.7-0.7-0.4-1.2
			c0.2-0.5,0.7-0.7,1.2-0.4c0.4,0.2,1.3,0.7,2.1,1.2c0.2,0.1,0.3,0.2,0.5,0.3l4.7-50.3c-3.8-1.3-15.9-5.8-17-9.1
			c-0.2-0.6-0.1-1.1,0.2-1.6c2.3-3.4,6.7-2.2,10.4-1.2c0.8,0.2,1.6,0.4,2.2,0.6c1.1,0.2,1.4-0.2,1.5-0.4c0.3-0.7,0.2-1.8-0.1-2.5
			l-1.3,1c-0.2,0.2-0.6,0.2-0.8,0.2c-0.4-0.1-2.3-0.7-3-1.3c-0.4-0.3-0.4-0.9-0.1-1.3c0.3-0.4,0.9-0.4,1.3-0.1
			c0.2,0.2,1.1,0.6,1.9,0.8l1.7-1.3c0.3-0.3,0.8-0.3,1.1,0c1.1,0.9,1.7,3.7,0.9,5.4c-0.3,0.6-1.2,1.9-3.5,1.4
			c-0.7-0.2-1.5-0.4-2.3-0.6c-3.2-0.9-6.8-1.9-8.4,0.4c0,1.4,7.8,5.2,16.6,8.2c0.4,0.1,0.6,0.5,0.6,0.9l-4.9,52.5
			c0,0.3-0.2,0.6-0.5,0.7C147.1,149.3,147,149.3,146.8,149.3z M131.1,147.7c-0.1,0-0.3,0-0.4-0.1c-3.6-1.7-3.2-8.9-3.2-9
			c0.1-1.1,3.2-7.3,5.2-8.9c0.5-0.4,1-0.6,1.4-0.5c3.2,0.4,8.6,7.3,9.6,8.7c0.3,0.4,0.2,1-0.2,1.3c-0.4,0.3-1,0.2-1.3-0.2
			c-2.2-3-6.5-7.8-8.4-8c-1,0.4-4.4,6.6-4.7,7.8c-0.1,1,0.1,6.2,2.2,7.2c0.5,0.2,0.7,0.7,0.4,1.2
			C131.8,147.5,131.4,147.7,131.1,147.7z M137.5,147.7c-0.3,0-0.7-0.1-1-0.2c-1.7-0.7-3.2-2.8-3.6-5c-0.6-3.3,2-6,2.1-6.1
			c0.4-0.3,0.9-0.3,1.3,0c0.4,0.4,0.3,0.9,0,1.3c0,0-2.1,2.1-1.6,4.5c0.3,1.8,1.6,3.3,2.5,3.7c0.3,0.1,0.5,0.1,0.6,0
			c0-0.2-0.1-2.2-1.1-3.1c-0.4-0.3-0.4-0.9,0-1.3c0.3-0.4,0.9-0.4,1.3,0c1.2,1.1,1.6,3.1,1.6,4.4c0,0.7-0.3,1.3-0.7,1.5
			C138.4,147.5,137.9,147.7,137.5,147.7z M125.5,147c-0.3,0-0.5-0.1-0.7-0.3c-1.9-2.3-3.1-7.8-3.2-9.1c-0.1-1.5,0.7-2.7,3.6-7.1
			c1.6-2.4,2.8-3.4,3.8-3.2c0.6,0.1,1,0.6,1.1,1c0.1,0.5-0.2,1-0.7,1.1c-0.3,0.1-0.6,0-0.8-0.2c-0.3,0.2-0.9,0.8-1.9,2.3
			c-2.6,3.9-3.4,5.1-3.3,6c0,1.1,1.1,6.1,2.8,8.1c0.3,0.4,0.3,1-0.1,1.3C125.9,146.9,125.7,147,125.5,147z M119.4,143.8
			c-0.3,0-0.5-0.1-0.7-0.3c-2.1-2.4-2.8-6.9-2.6-7.9c0.1-0.7,1.8-3.8,3.4-6.6c1-1.6,1.9-2.4,2.8-2.5c0.6-0.1,1.1,0.2,1.3,0.5
			c0.3,0.4,0.3,0.9-0.1,1.3c-0.3,0.3-0.8,0.3-1.1,0.1c-0.1,0.1-0.6,0.3-1.4,1.6c-1.9,3.1-3.1,5.6-3.2,6c-0.1,0.6,0.5,4.4,2.2,6.3
			c0.3,0.4,0.3,0.9-0.1,1.3C119.8,143.7,119.6,143.8,119.4,143.8z M101.6,120.7c-1.3,0-2.9-0.4-4.9-1.3c-6.7-2.9-17.8-8.9-17.9-8.9
			c-0.3-0.2-0.5-0.5-0.5-0.8V90.3c0-0.5,0.4-0.9,0.9-0.9c0.5,0,0.9,0.4,0.9,0.9v18.8c2.2,1.2,11.4,6.1,17.2,8.6
			c3.6,1.5,4.9,1.2,5.2,0.9c0.3-0.2,0.4-0.5,0.4-0.5V111c0-0.5,0.4-0.9,0.9-0.9c0.5,0,0.9,0.4,0.9,0.9v7.2c0,0.1,0,1.3-1.1,2
			C103.1,120.5,102.4,120.7,101.6,120.7z M111.1,106.7c-8.4,0-19.7-6.6-24.4-17.7c-1.3-0.8-6.9-4.2-9.2-8.5c-2.2-4.1-1.5-7.8-0.2-10
			c1-1.6,2.5-2.6,4-2.5c0.8,0,2.3,0.4,3.5,2.6c1.9,3.8,2.8,3.7,2.8,3.7c0.3,0,0.7-1.1,0.9-2.1c0.4-17.1,6.8-25.1,20-25.1
			c13.9,0,17.3,8.1,18.1,20.2c0,0.1,0,0.2,0,0.3c0,0.1-0.1,0.2-0.2,0.3c-0.1,0.1-0.2,0.2-0.3,0.3c-0.1,0-0.2,0.1-0.2,0.1l-6.4,1.3
			c-0.5,0.1-1-0.2-1.1-0.7c-0.1-0.5,0.2-1,0.7-1.1l5.6-1.2c-0.9-11-4-17.7-16.2-17.7c-12.1,0-17.7,7.2-18.2,23.5
			c-0.1,0.7-0.6,3.4-2.4,3.7c-1.5,0.3-3-1.2-4.7-4.7c-0.4-0.7-1-1.6-1.9-1.6c-0.8,0-1.7,0.6-2.4,1.7c-1.1,1.8-1.6,4.8,0.2,8.2
			c2.1,3.9,7.5,7.2,8.6,7.8c0.3,0.1,0.5,0.2,0.6,0.5c4.3,10.6,15,16.9,22.8,16.9c3.2,0,5.8-1,7.9-3.2c4.5-4.7,6.5-14.5,6-29.4
			c0-0.5,0.4-0.9,0.9-0.9c0.5,0,0.9,0.4,0.9,0.9c0.5,15.5-1.6,25.6-6.5,30.7C117.8,105.5,114.7,106.7,111.1,106.7z M109.7,69.6h-8.9
			c-0.5,0-0.9-0.4-0.9-0.9c0-0.5,0.4-0.9,0.9-0.9h8.9c0.5,0,0.9,0.4,0.9,0.9C110.6,69.2,110.2,69.6,109.7,69.6z"/>
	</g>
	<g>
		<path class="st5" d="M137.7,169.5c-9.9,0-20.2-1.4-25.3-4.2c-0.1,0-0.1-0.1-0.1-0.1c-0.1-0.1-5-10.8,1.5-21.3
			c0.1-0.1,0.3-0.2,0.4-0.1c0.1,0.1,0.2,0.3,0.1,0.4c-6,9.8-2,19.6-1.5,20.6c9.2,5.1,34.8,5.3,44.6,1.6c1.9-0.7,3.1-1.6,3.4-2.4
			c1.1-3.1,6-70.5,3.5-77c-1.1-2.8-13.2-15.7-15.4-15.7c0,0,0,0,0,0c-1.6,0-11.2,4.7-12,6.5c-0.8,1.7-0.1,2.9,0,3
			c0.1,0.1,0.1,0.3-0.1,0.4c-0.1,0.1-0.3,0.1-0.4-0.1c0-0.1-1-1.5,0-3.6c1-2,10.7-6.8,12.6-6.9c0,0,0,0,0,0c2.6,0,14.9,13.4,16,16.1
			c2.6,6.9-2.3,74.1-3.5,77.4c-0.4,1.1-1.6,2-3.8,2.8C153.1,168.6,145.5,169.5,137.7,169.5z M146.8,148.7c0,0-0.1,0-0.1,0
			c-0.4-0.2-1.1-0.6-1.8-1c-0.8-0.5-1.6-1-2-1.1c-0.2-0.1-0.2-0.2-0.1-0.4c0.1-0.2,0.3-0.2,0.4-0.1c0.4,0.2,1.2,0.7,2,1.2
			c0.5,0.3,1,0.6,1.3,0.8l4.8-51.8c-2-0.7-16-5.7-17.1-8.9c-0.1-0.4-0.1-0.8,0.1-1.1c2-3.1,6.3-1.9,9.7-0.9c0.8,0.2,1.6,0.4,2.3,0.6
			c1.1,0.2,1.8,0,2.1-0.8c0.5-1.1,0.1-3-0.4-3.7l-1.8,1.5c-0.1,0.1-0.2,0.1-0.3,0.1c-0.2-0.1-2.2-0.7-2.8-1.2
			c-0.1-0.1-0.1-0.3,0-0.4c0.1-0.1,0.3-0.2,0.4,0c0.4,0.3,1.8,0.8,2.4,1l1.9-1.5c0.1-0.1,0.3-0.1,0.4,0c0.8,0.7,1.5,3.1,0.8,4.6
			c-0.3,0.6-1,1.5-2.8,1.1c-0.7-0.2-1.5-0.4-2.3-0.6c-3.4-0.9-7.3-2-9,0.7c-0.1,0.2-0.1,0.3-0.1,0.6c0.9,2.6,12.5,7.1,17,8.6
			c0.1,0,0.2,0.2,0.2,0.3l-4.9,52.5c0,0.1-0.1,0.2-0.2,0.2C146.9,148.7,146.9,148.7,146.8,148.7z M131.1,147.1c0,0-0.1,0-0.1,0
			c-2.9-1.4-3-7.4-2.9-8.4c0.1-1,3.2-7,5-8.5c0.4-0.3,0.7-0.4,1-0.4c3.1,0.4,9,8.1,9.2,8.5c0.1,0.1,0.1,0.3-0.1,0.4
			c-0.1,0.1-0.3,0.1-0.4-0.1c-0.1-0.1-5.9-7.9-8.8-8.2c-0.1,0-0.2,0-0.5,0.3c-1.8,1.4-4.7,7.4-4.8,8.1c-0.1,0.8,0,6.6,2.5,7.8
			c0.2,0.1,0.2,0.3,0.1,0.4C131.3,147,131.2,147.1,131.1,147.1z M137.5,147.1c-0.3,0-0.5-0.1-0.8-0.2c-1.5-0.6-2.9-2.5-3.3-4.6
			c-0.6-3,1.9-5.5,2-5.6c0.1-0.1,0.3-0.1,0.4,0c0.1,0.1,0.1,0.3,0,0.4c0,0-2.3,2.3-1.8,5c0.4,2,1.8,3.7,2.9,4.1
			c0.5,0.2,0.9,0.2,1.1-0.1c0,0,0.1-0.2,0.2-0.6c0.1-1.1-0.3-2.6-1.2-3.4c-0.1-0.1-0.1-0.3,0-0.4c0.1-0.1,0.3-0.1,0.4,0
			c1,0.9,1.5,2.7,1.4,3.9c0,0.6-0.2,0.9-0.4,1.1C138.1,147,137.8,147.1,137.5,147.1z M125.5,146.4c-0.1,0-0.2,0-0.2-0.1
			c-1.9-2.3-3-7.7-3-8.8c-0.1-1.2,0.6-2.3,3.5-6.7c1.9-2.8,2.7-3,3.2-3c0.4,0.1,0.6,0.4,0.6,0.6c0,0.2-0.1,0.3-0.2,0.4
			c-0.2,0-0.3-0.1-0.4-0.2c0,0,0-0.1-0.1-0.1c-0.1,0-0.8,0-2.6,2.7c-2.8,4.2-3.5,5.3-3.4,6.3c0,1.2,1.2,6.3,2.9,8.4
			c0.1,0.1,0.1,0.3,0,0.4C125.6,146.3,125.5,146.4,125.5,146.4z M119.4,143.2c-0.1,0-0.2,0-0.2-0.1c-1.9-2.2-2.6-6.5-2.4-7.4
			c0.1-0.5,1.6-3.4,3.4-6.4c0.8-1.4,1.6-2.1,2.4-2.2c0.5-0.1,0.8,0.2,0.8,0.3c0.1,0.1,0.1,0.3,0,0.4c-0.1,0.1-0.3,0.1-0.4,0
			c0,0-0.1-0.1-0.3-0.1c-0.3,0-0.9,0.3-1.9,1.9c-1.9,3.2-3.2,5.9-3.3,6.2c-0.1,0.7,0.5,4.8,2.3,6.9c0.1,0.1,0.1,0.3,0,0.4
			C119.5,143.2,119.4,143.2,119.4,143.2z M101.6,120.1c-1.2,0-2.8-0.4-4.7-1.3c-6.6-2.9-17.7-8.8-17.8-8.9c-0.1-0.1-0.2-0.2-0.2-0.3
			V90.3c0-0.2,0.1-0.3,0.3-0.3c0.2,0,0.3,0.1,0.3,0.3v19.2c1.4,0.7,11.4,6.1,17.6,8.8c3.5,1.5,5.1,1.3,5.8,0.9c0.6-0.4,0.6-1,0.6-1
			V111c0-0.2,0.1-0.3,0.3-0.3c0.2,0,0.3,0.1,0.3,0.3v7.2c0,0,0,0.9-0.9,1.5C102.8,120,102.3,120.1,101.6,120.1z M111.1,106.1
			c-8.2,0-19.4-6.5-23.9-17.5c-0.8-0.4-6.8-3.9-9.2-8.3c-2.1-3.8-1.5-7.4-0.2-9.4c0.9-1.5,2.2-2.3,3.5-2.2c0.8,0,2,0.5,3,2.3
			c1.9,3.7,3,4.1,3.5,4c0.8-0.1,1.3-2,1.4-2.6c0.4-16.8,6.6-24.6,19.4-24.6c13.4,0,16.7,7.8,17.5,19.6c0,0,0,0.1,0,0.1
			c0,0,0,0.1-0.1,0.1l0,0l0,0c0,0-0.1,0.1-0.1,0.1c0,0-0.1,0-0.1,0l-6.4,1.3c-0.2,0-0.3-0.1-0.4-0.2c0-0.2,0.1-0.3,0.2-0.4l6.1-1.3
			c-0.8-11.6-4-18.8-16.9-18.8C96,48.3,90.1,56,89.7,72.4c0,0.3-0.5,2.9-1.9,3.1c-1.2,0.2-2.5-1.2-4.1-4.3c-0.6-1.3-1.5-1.9-2.5-2
			c0,0-0.1,0-0.1,0c-1,0-2.1,0.7-2.8,2c-1.2,1.9-1.8,5.2,0.2,8.8c2.3,4.1,8,7.6,8.9,8.1c0.1,0,0.2,0.1,0.2,0.2
			C92,99,103,105.5,111.1,105.5c3.3,0,6.1-1.1,8.3-3.4c4.6-4.8,6.7-14.8,6.2-29.8c0-0.2,0.1-0.3,0.3-0.3c0.2,0,0.3,0.1,0.3,0.3
			c0.5,15.2-1.6,25.3-6.4,30.2C117.5,104.9,114.6,106.1,111.1,106.1z M109.7,69h-8.9c-0.2,0-0.3-0.1-0.3-0.3c0-0.2,0.1-0.3,0.3-0.3
			h8.9c0.2,0,0.3,0.1,0.3,0.3C110,68.9,109.9,69,109.7,69z"/>
	</g>
	<g>
		<path class="st6" d="M125.6,193.6c-0.6,0-1.2-0.4-1.4-1.1c-0.2-0.8,0.2-1.6,1-1.9c12-3.7,22.7-10.6,30.9-20
			c0.6-0.6,1.5-0.7,2.1-0.1c0.6,0.6,0.7,1.5,0.1,2.1c-8.7,9.8-19.8,17-32.3,20.8C125.9,193.6,125.7,193.6,125.6,193.6z M62.5,182.9
			c-0.3,0-0.6-0.1-0.9-0.3c-18.1-13.4-28.4-33.9-28.4-56.2c0-19.4,8.3-38.2,22.7-51.4c0.6-0.6,1.6-0.5,2.1,0.1
			c0.6,0.6,0.5,1.6-0.1,2.1C44.1,90,36.2,107.9,36.2,126.5c0,21.3,9.9,40.9,27.2,53.7c0.7,0.5,0.8,1.4,0.3,2.1
			C63.4,182.7,62.9,182.9,62.5,182.9z M166.6,159.6c-0.2,0-0.5-0.1-0.7-0.2c-0.7-0.4-1-1.3-0.6-2c5-9.5,7.6-20.2,7.6-30.9
			c0-8.1-1.4-15.9-4.2-23.4c-0.3-0.8,0.1-1.6,0.9-1.9c0.8-0.3,1.6,0.1,1.9,0.9c2.9,7.8,4.4,16,4.4,24.5c0,11.2-2.8,22.4-8,32.3
			C167.7,159.3,167.2,159.6,166.6,159.6z M141.7,69.7c-0.3,0-0.5-0.1-0.8-0.2c-3.6-2.3-7.5-4.2-11.5-5.7c-0.8-0.3-1.2-1.2-0.9-1.9
			c0.3-0.8,1.2-1.2,1.9-0.9c4.2,1.6,8.2,3.6,12,6c0.7,0.4,0.9,1.4,0.5,2.1C142.7,69.4,142.2,69.7,141.7,69.7z M78.2,66.1
			c-0.8,0-1.4-0.6-1.5-1.4c-0.9-11.8,3.6-19.5,6.6-23.3l-1.8,0c-0.4,0-0.9-0.2-1.2-0.5c-0.3-0.4-0.4-0.8-0.3-1.3l1.6-7.9
			c0.1-0.4,0.3-0.7,0.7-1c0.3-0.2,0.8-0.3,1.1-0.2l10.1,2.3c0.8,0.2,1.3,1,1.1,1.8c-0.2,0.8-1,1.3-1.8,1.1l-8.6-1.9l-0.9,4.5
			l3.5-0.1c0.6,0,1.2,0.4,1.4,1c0.2,0.6,0,1.3-0.4,1.7c-0.4,0.3-9.3,8-8.2,23.5c0.1,0.8-0.6,1.6-1.4,1.6
			C78.2,66.1,78.2,66.1,78.2,66.1z M106.5,29.6c-0.5,0-1-0.3-1.3-0.7c-0.4-0.7-0.2-1.6,0.5-2.1l7.5-4.7c0.4-0.2,0.8-0.3,1.3-0.1
			c0.4,0.1,0.8,0.5,0.9,0.9l1.7,4.2c0.3,0.8-0.1,1.6-0.9,1.9c-0.8,0.3-1.6-0.1-1.9-0.9l-1-2.6l-6,3.7
			C107,29.6,106.7,29.6,106.5,29.6z"/>
	</g>
	<g>
		<path class="st7" d="M125.6,193.6c-0.6,0-1.2-0.4-1.4-1.1c-0.2-0.8,0.2-1.6,1-1.9c12-3.7,22.7-10.6,30.9-20
			c0.6-0.6,1.5-0.7,2.1-0.1c0.6,0.6,0.7,1.5,0.1,2.1c-8.7,9.8-19.8,17-32.3,20.8C125.9,193.6,125.7,193.6,125.6,193.6z M62.5,182.9
			c-0.3,0-0.6-0.1-0.9-0.3c-18.1-13.4-28.4-33.9-28.4-56.2c0-19.4,8.3-38.2,22.7-51.4c0.6-0.6,1.6-0.5,2.1,0.1
			c0.6,0.6,0.5,1.6-0.1,2.1C44.1,90,36.2,107.9,36.2,126.5c0,21.3,9.9,40.9,27.2,53.7c0.7,0.5,0.8,1.4,0.3,2.1
			C63.4,182.7,62.9,182.9,62.5,182.9z M166.6,159.6c-0.2,0-0.5-0.1-0.7-0.2c-0.7-0.4-1-1.3-0.6-2c5-9.5,7.6-20.2,7.6-30.9
			c0-8.1-1.4-15.9-4.2-23.4c-0.3-0.8,0.1-1.6,0.9-1.9c0.8-0.3,1.6,0.1,1.9,0.9c2.9,7.8,4.4,16,4.4,24.5c0,11.2-2.8,22.4-8,32.3
			C167.7,159.3,167.2,159.6,166.6,159.6z M141.7,69.7c-0.3,0-0.5-0.1-0.8-0.2c-3.6-2.3-7.5-4.2-11.5-5.7c-0.8-0.3-1.2-1.2-0.9-1.9
			c0.3-0.8,1.2-1.2,1.9-0.9c4.2,1.6,8.2,3.6,12,6c0.7,0.4,0.9,1.4,0.5,2.1C142.7,69.4,142.2,69.7,141.7,69.7z M78.2,66.1
			c-0.8,0-1.4-0.6-1.5-1.4c-0.9-11.8,3.6-19.5,6.6-23.3l-1.8,0c-0.4,0-0.9-0.2-1.2-0.5c-0.3-0.4-0.4-0.8-0.3-1.3l1.6-7.9
			c0.1-0.4,0.3-0.7,0.7-1c0.3-0.2,0.8-0.3,1.1-0.2l10.1,2.3c0.8,0.2,1.3,1,1.1,1.8c-0.2,0.8-1,1.3-1.8,1.1l-8.6-1.9l-0.9,4.5
			l3.5-0.1c0.6,0,1.2,0.4,1.4,1c0.2,0.6,0,1.3-0.4,1.7c-0.4,0.3-9.3,8-8.2,23.5c0.1,0.8-0.6,1.6-1.4,1.6
			C78.2,66.1,78.2,66.1,78.2,66.1z M106.5,29.6c-0.5,0-1-0.3-1.3-0.7c-0.4-0.7-0.2-1.6,0.5-2.1l7.5-4.7c0.4-0.2,0.8-0.3,1.3-0.1
			c0.4,0.1,0.8,0.5,0.9,0.9l1.7,4.2c0.3,0.8-0.1,1.6-0.9,1.9c-0.8,0.3-1.6-0.1-1.9-0.9l-1-2.6l-6,3.7
			C107,29.6,106.7,29.6,106.5,29.6z"/>
	</g>
	<image style="overflow:visible;" width="187" height="217" xlink:href="FC05A8C3.png"  transform="matrix(1 0 0 1 11 0)">
	</image>
	<g>
		<g>
			<path class="st8" d="M125.6,193.6c-0.6,0-1.2-0.4-1.4-1.1c-0.2-0.8,0.2-1.6,1-1.9c12-3.7,22.7-10.6,30.9-20
				c0.6-0.6,1.5-0.7,2.1-0.1c0.6,0.6,0.7,1.5,0.1,2.1c-8.7,9.8-19.8,17-32.3,20.8C125.9,193.6,125.7,193.6,125.6,193.6z M62.5,182.9
				c-0.3,0-0.6-0.1-0.9-0.3c-18.1-13.4-28.4-33.9-28.4-56.2c0-19.4,8.3-38.2,22.7-51.4c0.6-0.6,1.6-0.5,2.1,0.1
				c0.6,0.6,0.5,1.6-0.1,2.1C44.1,90,36.2,107.9,36.2,126.5c0,21.3,9.9,40.9,27.2,53.7c0.7,0.5,0.8,1.4,0.3,2.1
				C63.4,182.7,62.9,182.9,62.5,182.9z M166.6,159.6c-0.2,0-0.5-0.1-0.7-0.2c-0.7-0.4-1-1.3-0.6-2c5-9.5,7.6-20.2,7.6-30.9
				c0-8.1-1.4-15.9-4.2-23.4c-0.3-0.8,0.1-1.6,0.9-1.9c0.8-0.3,1.6,0.1,1.9,0.9c2.9,7.8,4.4,16,4.4,24.5c0,11.2-2.8,22.4-8,32.3
				C167.7,159.3,167.2,159.6,166.6,159.6z M141.7,69.7c-0.3,0-0.5-0.1-0.8-0.2c-3.6-2.3-7.5-4.2-11.5-5.7c-0.8-0.3-1.2-1.2-0.9-1.9
				c0.3-0.8,1.2-1.2,1.9-0.9c4.2,1.6,8.2,3.6,12,6c0.7,0.4,0.9,1.4,0.5,2.1C142.7,69.4,142.2,69.7,141.7,69.7z M78.2,66.1
				c-0.8,0-1.4-0.6-1.5-1.4c-0.9-11.8,3.6-19.5,6.6-23.3l-1.8,0c-0.4,0-0.9-0.2-1.2-0.5c-0.3-0.4-0.4-0.8-0.3-1.3l1.6-7.9
				c0.1-0.4,0.3-0.7,0.7-1c0.3-0.2,0.8-0.3,1.1-0.2l10.1,2.3c0.8,0.2,1.3,1,1.1,1.8c-0.2,0.8-1,1.3-1.8,1.1l-8.6-1.9l-0.9,4.5
				l3.5-0.1c0.6,0,1.2,0.4,1.4,1c0.2,0.6,0,1.3-0.4,1.7c-0.4,0.3-9.3,8-8.2,23.5c0.1,0.8-0.6,1.6-1.4,1.6
				C78.2,66.1,78.2,66.1,78.2,66.1z M106.5,29.6c-0.5,0-1-0.3-1.3-0.7c-0.4-0.7-0.2-1.6,0.5-2.1l7.5-4.7c0.4-0.2,0.8-0.3,1.3-0.1
				c0.4,0.1,0.8,0.5,0.9,0.9l1.7,4.2c0.3,0.8-0.1,1.6-0.9,1.9c-0.8,0.3-1.6-0.1-1.9-0.9l-1-2.6l-6,3.7
				C107,29.6,106.7,29.6,106.5,29.6z"/>
		</g>
	</g>
	<g>
		<path class="st9" d="M125.6,193c-0.4,0-0.7-0.3-0.9-0.6c-0.1-0.5,0.1-1,0.6-1.1c12.1-3.7,22.9-10.7,31.2-20.1
			c0.3-0.4,0.9-0.4,1.3-0.1c0.4,0.3,0.4,0.9,0.1,1.3c-8.6,9.7-19.7,16.8-32,20.7C125.7,193,125.7,193,125.6,193z M62.5,182.3
			c-0.2,0-0.4-0.1-0.5-0.2c-17.9-13.3-28.2-33.6-28.2-55.7c0-19.2,8.2-37.8,22.5-51c0.4-0.3,0.9-0.3,1.3,0.1
			c0.3,0.4,0.3,0.9-0.1,1.3c-13.9,12.8-21.9,30.9-21.9,49.6c0,21.5,10,41.3,27.4,54.2c0.4,0.3,0.5,0.9,0.2,1.3
			C63,182.2,62.7,182.3,62.5,182.3z M166.6,159c-0.1,0-0.3,0-0.4-0.1c-0.4-0.2-0.6-0.8-0.4-1.2c5-9.6,7.7-20.3,7.7-31.2
			c0-8.1-1.4-16.1-4.3-23.6c-0.2-0.5,0.1-1,0.5-1.2c0.5-0.2,1,0.1,1.2,0.5c2.9,7.8,4.4,15.9,4.4,24.3c0,11.1-2.7,22.2-7.9,32
			C167.3,158.8,166.9,159,166.6,159z M141.7,69.1c-0.2,0-0.3,0-0.5-0.1c-3.7-2.3-7.6-4.2-11.6-5.8c-0.5-0.2-0.7-0.7-0.5-1.2
			c0.2-0.5,0.7-0.7,1.2-0.5c4.1,1.6,8.1,3.6,11.9,5.9c0.4,0.3,0.6,0.8,0.3,1.2C142.3,68.9,142,69.1,141.7,69.1z M78.2,65.5
			c-0.5,0-0.9-0.4-0.9-0.8c-1-12.8,4.5-20.7,7.4-23.9l-3.1,0.1c-0.2,0-0.5-0.1-0.7-0.3c-0.2-0.2-0.2-0.5-0.2-0.8l1.6-7.9
			c0-0.2,0.2-0.4,0.4-0.6c0.2-0.1,0.5-0.2,0.7-0.1l10.1,2.3c0.5,0.1,0.8,0.6,0.7,1.1c-0.1,0.5-0.6,0.8-1.1,0.7l-9.2-2.1L82.6,39
			l4.3-0.1c0.4,0,0.7,0.2,0.9,0.6c0.1,0.4,0,0.8-0.3,1c-0.1,0.1-9.6,8.1-8.4,24C79.1,65.1,78.7,65.5,78.2,65.5
			C78.2,65.5,78.2,65.5,78.2,65.5z M106.5,29c-0.3,0-0.6-0.2-0.8-0.4c-0.3-0.4-0.1-1,0.3-1.2l7.6-4.7c0.2-0.1,0.5-0.2,0.8-0.1
			c0.3,0.1,0.5,0.3,0.6,0.5l1.6,4.2c0.2,0.5,0,1-0.5,1.2c-0.5,0.2-1,0-1.2-0.5l-1.3-3.2l-6.6,4.1C106.8,29,106.6,29,106.5,29z"/>
	</g>
	<g>
		<path class="st10" d="M125.6,192.4c-0.1,0-0.2-0.1-0.3-0.2c0-0.2,0-0.3,0.2-0.4c12.2-3.8,23.1-10.8,31.5-20.3
			c0.1-0.1,0.3-0.1,0.4,0c0.1,0.1,0.1,0.3,0,0.4C148.9,181.5,137.9,188.6,125.6,192.4C125.6,192.4,125.6,192.4,125.6,192.4z
			 M62.5,181.7c-0.1,0-0.1,0-0.2-0.1c-17.7-13.2-27.9-33.3-27.9-55.2c0-19.1,8.1-37.5,22.3-50.5c0.1-0.1,0.3-0.1,0.4,0
			c0.1,0.1,0.1,0.3,0,0.4C43,89.3,35,107.6,35,126.5c0,21.7,10.1,41.6,27.7,54.7c0.1,0.1,0.2,0.3,0.1,0.4
			C62.7,181.7,62.6,181.7,62.5,181.7z M166.6,158.4c0,0-0.1,0-0.1,0c-0.1-0.1-0.2-0.3-0.1-0.4c5.1-9.6,7.8-20.5,7.8-31.5
			c0-8.2-1.5-16.2-4.3-23.8c-0.1-0.2,0-0.3,0.2-0.4c0.2-0.1,0.3,0,0.4,0.2c2.9,7.7,4.4,15.8,4.4,24c0,11-2.7,22-7.8,31.7
			C166.8,158.3,166.7,158.4,166.6,158.4z M141.7,68.5c-0.1,0-0.1,0-0.2,0c-3.7-2.3-7.6-4.2-11.7-5.8c-0.2-0.1-0.2-0.2-0.2-0.4
			c0.1-0.2,0.2-0.2,0.4-0.2c4.1,1.6,8.1,3.5,11.8,5.8c0.1,0.1,0.2,0.3,0.1,0.4C141.9,68.4,141.8,68.5,141.7,68.5z M78.2,64.9
			c-0.2,0-0.3-0.1-0.3-0.3c-1.1-14.2,6.1-22.4,8.2-24.5l-4.6,0.1c-0.1,0-0.2,0-0.2-0.1c-0.1-0.1-0.1-0.2-0.1-0.3l1.6-7.9
			c0-0.1,0.1-0.2,0.1-0.2c0.1,0,0.2-0.1,0.2,0l10.1,2.3c0.2,0,0.3,0.2,0.2,0.4c0,0.2-0.2,0.3-0.4,0.2l-9.8-2.2l-1.5,7.2l5-0.1
			c0,0,0,0,0,0c0.1,0,0.2,0.1,0.3,0.2c0,0.1,0,0.3-0.1,0.3c-0.1,0.1-9.8,8.3-8.6,24.6C78.5,64.8,78.4,64.9,78.2,64.9
			C78.2,64.9,78.2,64.9,78.2,64.9z M106.5,28.4c-0.1,0-0.2-0.1-0.3-0.1c-0.1-0.1,0-0.3,0.1-0.4l7.5-4.7c0.1,0,0.2-0.1,0.3,0
			c0.1,0,0.2,0.1,0.2,0.2l1.7,4.2c0.1,0.2,0,0.3-0.2,0.4c-0.2,0.1-0.3,0-0.4-0.2l-1.5-3.9l-7.2,4.5
			C106.6,28.4,106.5,28.4,106.5,28.4z"/>
	</g>
	<image style="overflow:visible;" width="115" height="169" xlink:href="FC05A8CC.png"  transform="matrix(1 0 0 1 38 50)">
	</image>
	<image style="overflow:visible;" width="116" height="116" xlink:href="FC05A8CF.png"  transform="matrix(1 0 0 1 36 3)">
	</image>
	<image style="overflow:visible;" width="137" height="170" xlink:href="FC05A8CD.png"  transform="matrix(1 0 0 1 53 24)">
	</image>
	<image style="overflow:visible;" width="187" height="217" xlink:href="FC05A8C2.png"  transform="matrix(1 0 0 1 11 0)">
	</image>
	<image style="overflow:visible;" width="115" height="169" xlink:href="FC05A8C6.png"  transform="matrix(1 0 0 1 38 50)">
	</image>
	<g>
		<g>
			<path class="st11" d="M104.5,196.8c-13,0-25.8-3.5-36.8-10.1c0,0,0,0,0,0l0,0c0,0,0,0,0,0c-0.2-0.1-0.3-0.2-0.4-0.4l0,0l0,0
				c-0.1-0.2-0.2-0.3-0.2-0.5l0,0v0c0,0,0,0,0,0v0c0,0,0,0,0,0c-0.4-1.8-0.9-3.7-1.3-5.7c-2.4-10-5.1-21.4-5.1-30.5
				c-0.1-20.2,13.4-36.1,14-36.8c0.5-0.6,1.5-0.7,2.1-0.2c0.6,0.5,0.7,1.5,0.2,2.1c-0.1,0.2-13.3,15.7-13.3,34.8
				c0,8.7,2.7,19.9,5,29.8c0.4,1.8,0.8,3.5,1.2,5.1c10.5,6.1,22.5,9.3,34.7,9.3c4.1,0,8.2-0.4,12.1-1.1c2.3-3.6,8.4-13.2,11.2-19.3
				c0.3-0.8,1.2-1.1,2-0.7c0.8,0.3,1.1,1.2,0.7,2c-3,6.6-9.7,17.1-11.7,20.2l0,0c0,0,0,0,0,0s0,0,0,0c-0.1,0.2-0.3,0.3-0.4,0.4
				c-0.2,0.1-0.4,0.2-0.6,0.2C113.6,196.4,109.1,196.8,104.5,196.8z M106.8,167.1c-0.1,0-0.3,0-0.4-0.1l-5.5-1.6
				c-0.5-0.1-0.9-0.6-1-1.1c-5.7-21.9,8.5-30.7,8.6-30.8c0.4-0.2,0.8-0.3,1.2-0.2l1.5,0.4c0.8,0.2,1.3,1.1,1,1.9s-1.1,1.3-1.9,1
				l-0.9-0.2c-2.3,1.7-11,9.3-7,26.3l4.7,1.3c0.8,0.2,1.3,1.1,1,1.9C108.1,166.7,107.5,167.1,106.8,167.1z M96,164.8
				c-0.1,0-0.2,0-0.3,0c-0.4-0.1-10.7-2.2-18-8.8c-5.6-5.1-7.7-12.8-5.5-19.6c2-6,7-10,13.4-10.7c12.1-1.3,19.8,5.7,20.1,6
				c0.6,0.6,0.6,1.5,0.1,2.1c-0.6,0.6-1.5,0.6-2.1,0.1c-0.1-0.1-7.1-6.4-17.7-5.2c-5.3,0.6-9.2,3.7-10.8,8.6
				c-1.9,5.6,0,12.1,4.7,16.4c6.6,6.1,16.4,8.1,16.5,8.1c0.8,0.2,1.3,1,1.2,1.8C97.3,164.3,96.7,164.8,96,164.8z M114,131.8
				c-0.4,0-0.9-0.2-1.1-0.5l-6.5-7.7c-0.5-0.6-0.5-1.6,0.2-2.1c0.6-0.5,1.6-0.5,2.1,0.2l6.5,7.7c0.5,0.6,0.5,1.6-0.2,2.1
				C114.7,131.7,114.3,131.8,114,131.8z M120.8,78c-1.4,0-2.6-1.1-2.6-2.6c0-1.4,1.1-2.6,2.6-2.6c1.4,0,2.6,1.1,2.6,2.6
				C123.4,76.9,122.2,78,120.8,78z M120.8,75c-0.3,0-0.5,0.2-0.5,0.5c0,0.5,0.9,0.5,0.9,0C121.3,75.2,121.1,75,120.8,75z M107.5,78
				c-1.4,0-2.6-1.1-2.6-2.6c0-1.4,1.1-2.6,2.6-2.6c1.4,0,2.6,1.1,2.6,2.6C110.1,76.9,108.9,78,107.5,78z M107.5,75
				c-0.3,0-0.5,0.2-0.5,0.5c0,0.5,0.9,0.5,0.9,0C108,75.2,107.8,75,107.5,75z"/>
		</g>
	</g>
	<g>
		<path class="st12" d="M104.5,196.2c-12.9,0-25.5-3.5-36.5-10c0,0,0,0,0,0h0l0,0c-0.1-0.1-0.2-0.1-0.2-0.2
			c-0.1-0.1-0.1-0.2-0.2-0.3c-0.4-1.8-0.9-3.8-1.3-5.8c-2.4-10-5.1-21.3-5.1-30.4c-0.1-20,13.3-35.7,13.9-36.4
			c0.3-0.4,0.9-0.4,1.3-0.1c0.4,0.3,0.4,0.9,0.1,1.3c-0.1,0.2-13.5,15.9-13.4,35.2c0,8.8,2.7,20,5,29.9c0.4,1.9,0.9,3.7,1.3,5.4
			c10.6,6.3,22.8,9.6,35.3,9.6c4.3,0,8.5-0.4,12.5-1.1c2.2-3.4,8.5-13.3,11.3-19.6c0.2-0.5,0.7-0.7,1.2-0.5c0.5,0.2,0.7,0.7,0.4,1.2
			c-3,6.6-9.7,17.1-11.7,20.1c0,0,0,0,0,0c0,0,0,0,0,0l0,0c-0.1,0.1-0.1,0.2-0.2,0.2c-0.1,0.1-0.2,0.1-0.3,0.1l0,0h0c0,0,0,0,0,0
			C113.5,195.8,109,196.2,104.5,196.2z M106.8,166.5c-0.1,0-0.2,0-0.2,0l-5.5-1.6c-0.3-0.1-0.5-0.3-0.6-0.6
			c-5.6-21.5,8.2-30.1,8.4-30.2c0.2-0.1,0.5-0.2,0.7-0.1l1.5,0.4c0.5,0.1,0.8,0.6,0.6,1.1c-0.1,0.5-0.6,0.7-1.1,0.6l-1.1-0.3
			c-2,1.4-11.9,9.2-7.3,27.4l5,1.4c0.5,0.1,0.8,0.6,0.6,1.1C107.6,166.2,107.2,166.5,106.8,166.5z M96,164.2c-0.1,0-0.1,0-0.2,0
			c-0.4-0.1-10.6-2.1-17.7-8.7c-5.4-5-7.5-12.4-5.4-18.9c1.9-5.8,6.7-9.6,12.9-10.3c11.8-1.3,19.3,5.6,19.6,5.9
			c0.4,0.3,0.4,0.9,0,1.3c-0.3,0.4-0.9,0.4-1.3,0c-0.1-0.1-7.3-6.6-18.2-5.4c-5.4,0.6-9.7,4-11.3,9c-1.9,5.8,0,12.5,4.9,17
			c6.7,6.2,16.7,8.2,16.8,8.2c0.5,0.1,0.8,0.6,0.7,1.1C96.8,163.9,96.4,164.2,96,164.2z M114,131.2c-0.3,0-0.5-0.1-0.7-0.3l-6.5-7.7
			c-0.3-0.4-0.3-1,0.1-1.3c0.4-0.3,1-0.3,1.3,0.1l6.5,7.7c0.3,0.4,0.3,1-0.1,1.3C114.4,131.2,114.2,131.2,114,131.2z M120.8,77.4
			c-1.1,0-1.9-0.9-1.9-1.9c0-1.1,0.9-1.9,1.9-1.9c1.1,0,2,0.9,2,1.9C122.8,76.6,121.9,77.4,120.8,77.4z M107.5,77.4
			c-1.1,0-2-0.9-2-1.9c0-1.1,0.9-1.9,2-1.9c1.1,0,2,0.9,2,1.9C109.5,76.6,108.6,77.4,107.5,77.4z"/>
	</g>
	<g>
		<path class="st13" d="M104.5,195.6c-12.8,0-25.3-3.4-36.2-9.9c0,0,0,0,0,0l0,0l0,0c0,0-0.1,0-0.1-0.1v0l0,0c0,0,0-0.1,0-0.1
			c0,0,0,0,0,0c-0.4-1.8-0.9-3.7-1.3-5.8c-2.4-10-5-21.3-5-30.2c-0.1-19.8,13.6-35.9,13.7-36c0.1-0.1,0.3-0.1,0.4,0
			c0.1,0.1,0.1,0.3,0,0.4c-0.1,0.2-13.6,16.1-13.6,35.6c0,8.9,2.7,20.1,5,30.1c0.5,2,0.9,3.9,1.3,5.6c10.8,6.4,23.1,9.8,35.8,9.8
			c4.4,0,8.7-0.4,12.9-1.2c2.1-3.2,8.6-13.4,11.5-19.9c0.1-0.1,0.3-0.2,0.4-0.1c0.2,0.1,0.2,0.2,0.1,0.4c-3,6.6-9.7,17-11.6,20
			c0,0-0.1,0.1-0.1,0.1l0,0c0,0,0,0,0,0l0,0v0c0,0-0.1,0-0.1,0l0,0l0,0c0,0,0,0,0,0C113.4,195.2,109,195.6,104.5,195.6z
			 M106.8,165.9C106.8,165.9,106.8,165.9,106.8,165.9l-5.6-1.6c-0.1,0-0.2-0.1-0.2-0.2c-5.5-21.1,7.9-29.4,8.1-29.5
			c0.1,0,0.2-0.1,0.2,0l1.5,0.4c0.2,0,0.3,0.2,0.2,0.4c0,0.2-0.2,0.2-0.4,0.2l-1.4-0.4c-1.2,0.8-12.7,9.1-7.7,28.6l5.3,1.5
			c0.2,0,0.3,0.2,0.2,0.4C107.1,165.8,107,165.9,106.8,165.9z M96,163.6C96,163.6,95.9,163.6,96,163.6c-0.2,0-10.4-2.1-17.4-8.6
			c-5.2-4.8-7.3-12-5.2-18.3c1.8-5.5,6.4-9.2,12.4-9.9c11.5-1.3,19.1,5.6,19.2,5.7c0.1,0.1,0.1,0.3,0,0.4c-0.1,0.1-0.3,0.1-0.4,0
			c-0.1-0.1-7.5-6.8-18.7-5.5c-5.7,0.6-10.1,4.2-11.9,9.5c-2,6.1,0,13,5,17.7c6.9,6.3,17,8.4,17.1,8.4c0.2,0,0.3,0.2,0.2,0.4
			C96.2,163.5,96.1,163.6,96,163.6z M114,130.6c-0.1,0-0.2,0-0.2-0.1l-6.5-7.7c-0.1-0.1-0.1-0.3,0-0.4c0.1-0.1,0.3-0.1,0.4,0
			l6.5,7.7c0.1,0.1,0.1,0.3,0,0.4C114.1,130.6,114.1,130.6,114,130.6z M120.8,76.8c-0.7,0-1.3-0.6-1.3-1.3c0-0.7,0.6-1.3,1.3-1.3
			s1.3,0.6,1.3,1.3C122.2,76.2,121.6,76.8,120.8,76.8z M120.8,74.7c-0.4,0-0.7,0.3-0.7,0.7c0,0.4,0.3,0.7,0.7,0.7
			c0.4,0,0.7-0.3,0.7-0.7C121.6,75.1,121.2,74.7,120.8,74.7z M107.5,76.8c-0.7,0-1.3-0.6-1.3-1.3c0-0.7,0.6-1.3,1.3-1.3
			c0.7,0,1.3,0.6,1.3,1.3C108.8,76.2,108.2,76.8,107.5,76.8z M107.5,74.7c-0.4,0-0.7,0.3-0.7,0.7c0,0.4,0.3,0.7,0.7,0.7
			c0.4,0,0.7-0.3,0.7-0.7C108.2,75.1,107.9,74.7,107.5,74.7z"/>
	</g>
</g>
</svg>
