<?xml version="1.0" encoding="utf-8"?>
<!-- Generator: Adobe Illustrator 22.0.1, SVG Export Plug-In . SVG Version: 6.00 Build 0)  -->
<svg version="1.1" id="Layer_1" xmlns="http://www.w3.org/2000/svg" xmlns:xlink="http://www.w3.org/1999/xlink" x="0px" y="0px"
	 viewBox="0 0 200 200" style="enable-background:new 0 0 200 200;" xml:space="preserve">
<style type="text/css">
	.st0{fill:#00F9FF;}
	.st1{opacity:0.15;}
	.st2{fill:none;stroke:#00FFFF;stroke-width:2;stroke-miterlimit:10;}
	.st3{fill:none;stroke:#00FFFF;stroke-width:4;stroke-miterlimit:10;}
	.st4{fill:none;stroke:#00FFFF;stroke-width:6;stroke-miterlimit:10;}
	.st5{fill:none;stroke:#00FFFF;stroke-width:8;stroke-miterlimit:10;}
	.st6{fill:none;stroke:#00FFFF;stroke-width:10;stroke-miterlimit:10;}
</style>
<g>
	<path class="st0" d="M170.1,162.6l-9.1-100.9c-0.6-8.1-5.2-15.2-12.4-19l-7.9-4.3c0-2.4-0.4-9.2-2.3-17.1c0,0,0,0,0-0.1h0
		c0-0.1,0-0.1,0-0.2c-0.5-1.9-1.8-3.6-3.7-5c-8.1-5.7-16.7-8.3-23.3-9.4c-6.3-1-17.5-1-23.8,0c-6.7,1.1-15.2,3.6-23.3,9.4
		c-1.9,1.4-3.2,3-3.7,4.9c0,0.1-0.1,0.2-0.1,0.3c-1.9,7.9-2.2,14.7-2.3,17.1l-7.9,4.3c-7.1,3.8-11.8,10.9-12.4,19l-9.1,101
		c-0.2,2.7,0.3,5.5,1.5,7.9l1.4,3l-0.4,7.8c0,1,0.6,1.8,1.6,2.1l11.4,2.5c0.5,0.1,1.1,0,1.5-0.3c0.5-0.3,0.8-0.8,0.9-1.3l1.5-7.8
		c1.1-1.2,2-2.6,2.7-4c0.8-1.7,1.3-3.4,1.4-5.3l4.7-42.6c0.1,15.1,0,32-0.6,42.7c-0.2,3.6,1.4,6.9,4.1,9v12.3c0,0.9,0.7,1.8,1.6,2
		c12.3,2.7,24.9,4.1,37.5,4.1c12.6,0,25.2-1.4,37.5-4.1c0.9-0.2,1.6-1,1.6-2v-12.3c2.7-2.1,4.3-5.4,4.1-9
		c-0.7-10.7-0.7-27.6-0.6-42.7l4.7,42.7c0.3,3.5,1.8,6.8,4.1,9.3l1.5,7.9c0.1,0.5,0.4,1,0.9,1.3c0.3,0.2,0.7,0.3,1.1,0.3
		c0.1,0,0.3,0,0.4,0l11.4-2.5c1-0.2,1.6-1.1,1.6-2.1l-0.4-7.8l1.4-3C169.8,168.1,170.4,165.4,170.1,162.6L170.1,162.6z M136,30.3
		c0.5,3.7,0.6,6.6,0.7,8.1c-7.1,5.3-16.5,8.9-24.1,11.2c2.4-1.5,5.1-3.2,7.6-5C127.9,39.3,133.2,34.5,136,30.3L136,30.3z M80.9,41.3
		c-5.5-3.8-9.7-7.4-12.6-10.5c7.6-4.9,15.6-6.9,21.5-7.7c5.5-0.7,13.6-0.8,19.2,0c5.9,0.8,13.9,2.8,21.5,7.7
		c-2.8,3.1-7.1,6.7-12.5,10.5c-7.8,5.4-15.9,9.8-18.5,11.2C96.8,51.1,88.7,46.7,80.9,41.3L80.9,41.3z M64.3,22.3
		C64.3,22.2,64.4,22.2,64.3,22.3L64.3,22.3C64.4,22.2,64.4,22.2,64.3,22.3C64.4,22.2,64.4,22.2,64.3,22.3c0.3-1.1,1-2,2.2-2.8
		c6.8-4.8,14.1-7.2,20.1-8.4c7.3-1.4,18.4-1.4,25.7,0c6,1.2,13.2,3.5,20,8.4c1.2,0.8,1.9,1.8,2.2,2.8c0,0,0,0,0,0c0,0,0,0,0,0.1
		c0,0,0,0,0,0c0.4,1.4-0.2,3.3-1.5,5.3c-8.5-5.5-17.3-7.7-23.8-8.6c-5.2-0.7-14.3-0.7-19.5,0c-6.5,0.8-15.3,3-23.8,8.6
		C64.5,25.5,64,23.7,64.3,22.3L64.3,22.3z M62.8,30.3c2.9,4.2,8.1,8.9,15.8,14.3c2.6,1.8,5.2,3.5,7.6,5c-7.6-2.3-17-5.9-24.1-11.2
		C62.2,37,62.3,34,62.8,30.3L62.8,30.3z M35.3,179.8l0.2-4.3l8.4,1.6l-0.9,4.4L35.3,179.8z M64.4,186.8v-8.7c22.9,6,47.2,6,70.1,0
		v8.7C111.5,191.7,87.4,191.7,64.4,186.8L64.4,186.8z M155.9,181.5l-0.9-4.4l8.4-1.6l0.2,4.3L155.9,181.5z M165.1,168.9l-1.2,2.5
		l-10.5,2c-1.5-1.8-2.5-4.1-2.7-6.5c0,0,0,0,0,0L142.4,92c-0.1-1.1-1-1.8-2.1-1.8c-1.1,0-1.9,0.9-1.9,2c0,0.5-1.2,52.2,0.2,75.2
		c0.2,3.1-1.9,5.9-4.9,6.7c-22.4,5.9-46.1,5.9-68.5,0c-3-0.8-5.1-3.6-4.9-6.7c1.4-23,0.2-74.7,0.2-75.2c0-1.1-0.9-1.9-1.9-2
		c-1.1,0-2,0.7-2.1,1.8l-8.2,74.7c0,0,0,0,0,0c-0.1,1.4-0.5,2.7-1.1,4c-0.4,0.9-1,1.8-1.6,2.6l-10.5-2l-1.2-2.5
		c-0.9-1.8-1.2-3.9-1.1-5.9l9.1-101c0.5-6.7,4.3-12.6,10.3-15.8l8.1-4.3c6.1,4.5,14.3,8.3,24.5,11.4c0.4,0.1,0.8,0.2,1.1,0.3V110
		c0,1.1,0.9,2,2,2c1.1,0,2-0.9,2-2V54.8c5.2,1.3,8.8,2,9.3,2c0.1,0,0.2,0,0.4,0h0c0.1,0,0.2,0,0.4,0c0.4-0.1,4.1-0.7,9.3-2V110
		c0,1.1,0.9,2,2,2c1.1,0,2-0.9,2-2V53.6c0.4-0.1,0.7-0.2,1.1-0.3c10.1-3.1,18.4-6.9,24.5-11.4l8.1,4.3c5.9,3.2,9.8,9.1,10.3,15.8
		l9.1,100.9C166.3,165,165.9,167,165.1,168.9L165.1,168.9z M165.1,168.9"/>
	<g class="st1">
		<path class="st2" d="M170.1,162.6l-9.1-100.9c-0.6-8.1-5.2-15.2-12.4-19l-7.9-4.3c0-2.4-0.4-9.2-2.3-17.1c0,0,0,0,0-0.1h0
			c0-0.1,0-0.1,0-0.2c-0.5-1.9-1.8-3.6-3.7-5c-8.1-5.7-16.7-8.3-23.3-9.4c-6.3-1-17.5-1-23.8,0c-6.7,1.1-15.2,3.6-23.3,9.4
			c-1.9,1.4-3.2,3-3.7,4.9c0,0.1-0.1,0.2-0.1,0.3c-1.9,7.9-2.2,14.7-2.3,17.1l-7.9,4.3c-7.1,3.8-11.8,10.9-12.4,19l-9.1,101
			c-0.2,2.7,0.3,5.5,1.5,7.9l1.4,3l-0.4,7.8c0,1,0.6,1.8,1.6,2.1l11.4,2.5c0.5,0.1,1.1,0,1.5-0.3c0.5-0.3,0.8-0.8,0.9-1.3l1.5-7.8
			c1.1-1.2,2-2.6,2.7-4c0.8-1.7,1.3-3.4,1.4-5.3l4.7-42.6c0.1,15.1,0,32-0.6,42.7c-0.2,3.6,1.4,6.9,4.1,9v12.3c0,0.9,0.7,1.8,1.6,2
			c12.3,2.7,24.9,4.1,37.5,4.1c12.6,0,25.2-1.4,37.5-4.1c0.9-0.2,1.6-1,1.6-2v-12.3c2.7-2.1,4.3-5.4,4.1-9
			c-0.7-10.7-0.7-27.6-0.6-42.7l4.7,42.7c0.3,3.5,1.8,6.8,4.1,9.3l1.5,7.9c0.1,0.5,0.4,1,0.9,1.3c0.3,0.2,0.7,0.3,1.1,0.3
			c0.1,0,0.3,0,0.4,0l11.4-2.5c1-0.2,1.6-1.1,1.6-2.1l-0.4-7.8l1.4-3C169.8,168.1,170.4,165.4,170.1,162.6L170.1,162.6z M136,30.3
			c0.5,3.7,0.6,6.6,0.7,8.1c-7.1,5.3-16.5,8.9-24.1,11.2c2.4-1.5,5.1-3.2,7.6-5C127.9,39.3,133.2,34.5,136,30.3L136,30.3z
			 M80.9,41.3c-5.5-3.8-9.7-7.4-12.6-10.5c7.6-4.9,15.6-6.9,21.5-7.7c5.5-0.7,13.6-0.8,19.2,0c5.9,0.8,13.9,2.8,21.5,7.7
			c-2.8,3.1-7.1,6.7-12.5,10.5c-7.8,5.4-15.9,9.8-18.5,11.2C96.8,51.1,88.7,46.7,80.9,41.3L80.9,41.3z M64.3,22.3
			C64.3,22.2,64.4,22.2,64.3,22.3L64.3,22.3C64.4,22.2,64.4,22.2,64.3,22.3C64.4,22.2,64.4,22.2,64.3,22.3c0.3-1.1,1-2,2.2-2.8
			c6.8-4.8,14.1-7.2,20.1-8.4c7.3-1.4,18.4-1.4,25.7,0c6,1.2,13.2,3.5,20,8.4c1.2,0.8,1.9,1.8,2.2,2.8c0,0,0,0,0,0c0,0,0,0,0,0.1
			c0,0,0,0,0,0c0.4,1.4-0.2,3.3-1.5,5.3c-8.5-5.5-17.3-7.7-23.8-8.6c-5.2-0.7-14.3-0.7-19.5,0c-6.5,0.8-15.3,3-23.8,8.6
			C64.5,25.5,64,23.7,64.3,22.3L64.3,22.3z M62.8,30.3c2.9,4.2,8.1,8.9,15.8,14.3c2.6,1.8,5.2,3.5,7.6,5c-7.6-2.3-17-5.9-24.1-11.2
			C62.2,37,62.3,34,62.8,30.3L62.8,30.3z M35.3,179.8l0.2-4.3l8.4,1.6l-0.9,4.4L35.3,179.8z M64.4,186.8v-8.7c22.9,6,47.2,6,70.1,0
			v8.7C111.5,191.7,87.4,191.7,64.4,186.8L64.4,186.8z M155.9,181.5l-0.9-4.4l8.4-1.6l0.2,4.3L155.9,181.5z M165.1,168.9l-1.2,2.5
			l-10.5,2c-1.5-1.8-2.5-4.1-2.7-6.5c0,0,0,0,0,0L142.4,92c-0.1-1.1-1-1.8-2.1-1.8c-1.1,0-1.9,0.9-1.9,2c0,0.5-1.2,52.2,0.2,75.2
			c0.2,3.1-1.9,5.9-4.9,6.7c-22.4,5.9-46.1,5.9-68.5,0c-3-0.8-5.1-3.6-4.9-6.7c1.4-23,0.2-74.7,0.2-75.2c0-1.1-0.9-1.9-1.9-2
			c-1.1,0-2,0.7-2.1,1.8l-8.2,74.7c0,0,0,0,0,0c-0.1,1.4-0.5,2.7-1.1,4c-0.4,0.9-1,1.8-1.6,2.6l-10.5-2l-1.2-2.5
			c-0.9-1.8-1.2-3.9-1.1-5.9l9.1-101c0.5-6.7,4.3-12.6,10.3-15.8l8.1-4.3c6.1,4.5,14.3,8.3,24.5,11.4c0.4,0.1,0.8,0.2,1.1,0.3V110
			c0,1.1,0.9,2,2,2c1.1,0,2-0.9,2-2V54.8c5.2,1.3,8.8,2,9.3,2c0.1,0,0.2,0,0.4,0h0c0.1,0,0.2,0,0.4,0c0.4-0.1,4.1-0.7,9.3-2V110
			c0,1.1,0.9,2,2,2c1.1,0,2-0.9,2-2V53.6c0.4-0.1,0.7-0.2,1.1-0.3c10.1-3.1,18.4-6.9,24.5-11.4l8.1,4.3c5.9,3.2,9.8,9.1,10.3,15.8
			l9.1,100.9C166.3,165,165.9,167,165.1,168.9L165.1,168.9z M165.1,168.9"/>
	</g>
	<g class="st1">
		<path class="st3" d="M170.1,162.6l-9.1-100.9c-0.6-8.1-5.2-15.2-12.4-19l-7.9-4.3c0-2.4-0.4-9.2-2.3-17.1c0,0,0,0,0-0.1h0
			c0-0.1,0-0.1,0-0.2c-0.5-1.9-1.8-3.6-3.7-5c-8.1-5.7-16.7-8.3-23.3-9.4c-6.3-1-17.5-1-23.8,0c-6.7,1.1-15.2,3.6-23.3,9.4
			c-1.9,1.4-3.2,3-3.7,4.9c0,0.1-0.1,0.2-0.1,0.3c-1.9,7.9-2.2,14.7-2.3,17.1l-7.9,4.3c-7.1,3.8-11.8,10.9-12.4,19l-9.1,101
			c-0.2,2.7,0.3,5.5,1.5,7.9l1.4,3l-0.4,7.8c0,1,0.6,1.8,1.6,2.1l11.4,2.5c0.5,0.1,1.1,0,1.5-0.3c0.5-0.3,0.8-0.8,0.9-1.3l1.5-7.8
			c1.1-1.2,2-2.6,2.7-4c0.8-1.7,1.3-3.4,1.4-5.3l4.7-42.6c0.1,15.1,0,32-0.6,42.7c-0.2,3.6,1.4,6.9,4.1,9v12.3c0,0.9,0.7,1.8,1.6,2
			c12.3,2.7,24.9,4.1,37.5,4.1c12.6,0,25.2-1.4,37.5-4.1c0.9-0.2,1.6-1,1.6-2v-12.3c2.7-2.1,4.3-5.4,4.1-9
			c-0.7-10.7-0.7-27.6-0.6-42.7l4.7,42.7c0.3,3.5,1.8,6.8,4.1,9.3l1.5,7.9c0.1,0.5,0.4,1,0.9,1.3c0.3,0.2,0.7,0.3,1.1,0.3
			c0.1,0,0.3,0,0.4,0l11.4-2.5c1-0.2,1.6-1.1,1.6-2.1l-0.4-7.8l1.4-3C169.8,168.1,170.4,165.4,170.1,162.6L170.1,162.6z M136,30.3
			c0.5,3.7,0.6,6.6,0.7,8.1c-7.1,5.3-16.5,8.9-24.1,11.2c2.4-1.5,5.1-3.2,7.6-5C127.9,39.3,133.2,34.5,136,30.3L136,30.3z
			 M80.9,41.3c-5.5-3.8-9.7-7.4-12.6-10.5c7.6-4.9,15.6-6.9,21.5-7.7c5.5-0.7,13.6-0.8,19.2,0c5.9,0.8,13.9,2.8,21.5,7.7
			c-2.8,3.1-7.1,6.7-12.5,10.5c-7.8,5.4-15.9,9.8-18.5,11.2C96.8,51.1,88.7,46.7,80.9,41.3L80.9,41.3z M64.3,22.3
			C64.3,22.2,64.4,22.2,64.3,22.3L64.3,22.3C64.4,22.2,64.4,22.2,64.3,22.3C64.4,22.2,64.4,22.2,64.3,22.3c0.3-1.1,1-2,2.2-2.8
			c6.8-4.8,14.1-7.2,20.1-8.4c7.3-1.4,18.4-1.4,25.7,0c6,1.2,13.2,3.5,20,8.4c1.2,0.8,1.9,1.8,2.2,2.8c0,0,0,0,0,0c0,0,0,0,0,0.1
			c0,0,0,0,0,0c0.4,1.4-0.2,3.3-1.5,5.3c-8.5-5.5-17.3-7.7-23.8-8.6c-5.2-0.7-14.3-0.7-19.5,0c-6.5,0.8-15.3,3-23.8,8.6
			C64.5,25.5,64,23.7,64.3,22.3L64.3,22.3z M62.8,30.3c2.9,4.2,8.1,8.9,15.8,14.3c2.6,1.8,5.2,3.5,7.6,5c-7.6-2.3-17-5.9-24.1-11.2
			C62.2,37,62.3,34,62.8,30.3L62.8,30.3z M35.3,179.8l0.2-4.3l8.4,1.6l-0.9,4.4L35.3,179.8z M64.4,186.8v-8.7c22.9,6,47.2,6,70.1,0
			v8.7C111.5,191.7,87.4,191.7,64.4,186.8L64.4,186.8z M155.9,181.5l-0.9-4.4l8.4-1.6l0.2,4.3L155.9,181.5z M165.1,168.9l-1.2,2.5
			l-10.5,2c-1.5-1.8-2.5-4.1-2.7-6.5c0,0,0,0,0,0L142.4,92c-0.1-1.1-1-1.8-2.1-1.8c-1.1,0-1.9,0.9-1.9,2c0,0.5-1.2,52.2,0.2,75.2
			c0.2,3.1-1.9,5.9-4.9,6.7c-22.4,5.9-46.1,5.9-68.5,0c-3-0.8-5.1-3.6-4.9-6.7c1.4-23,0.2-74.7,0.2-75.2c0-1.1-0.9-1.9-1.9-2
			c-1.1,0-2,0.7-2.1,1.8l-8.2,74.7c0,0,0,0,0,0c-0.1,1.4-0.5,2.7-1.1,4c-0.4,0.9-1,1.8-1.6,2.6l-10.5-2l-1.2-2.5
			c-0.9-1.8-1.2-3.9-1.1-5.9l9.1-101c0.5-6.7,4.3-12.6,10.3-15.8l8.1-4.3c6.1,4.5,14.3,8.3,24.5,11.4c0.4,0.1,0.8,0.2,1.1,0.3V110
			c0,1.1,0.9,2,2,2c1.1,0,2-0.9,2-2V54.8c5.2,1.3,8.8,2,9.3,2c0.1,0,0.2,0,0.4,0h0c0.1,0,0.2,0,0.4,0c0.4-0.1,4.1-0.7,9.3-2V110
			c0,1.1,0.9,2,2,2c1.1,0,2-0.9,2-2V53.6c0.4-0.1,0.7-0.2,1.1-0.3c10.1-3.1,18.4-6.9,24.5-11.4l8.1,4.3c5.9,3.2,9.8,9.1,10.3,15.8
			l9.1,100.9C166.3,165,165.9,167,165.1,168.9L165.1,168.9z M165.1,168.9"/>
	</g>
	<g class="st1">
		<path class="st4" d="M170.1,162.6l-9.1-100.9c-0.6-8.1-5.2-15.2-12.4-19l-7.9-4.3c0-2.4-0.4-9.2-2.3-17.1c0,0,0,0,0-0.1h0
			c0-0.1,0-0.1,0-0.2c-0.5-1.9-1.8-3.6-3.7-5c-8.1-5.7-16.7-8.3-23.3-9.4c-6.3-1-17.5-1-23.8,0c-6.7,1.1-15.2,3.6-23.3,9.4
			c-1.9,1.4-3.2,3-3.7,4.9c0,0.1-0.1,0.2-0.1,0.3c-1.9,7.9-2.2,14.7-2.3,17.1l-7.9,4.3c-7.1,3.8-11.8,10.9-12.4,19l-9.1,101
			c-0.2,2.7,0.3,5.5,1.5,7.9l1.4,3l-0.4,7.8c0,1,0.6,1.8,1.6,2.1l11.4,2.5c0.5,0.1,1.1,0,1.5-0.3c0.5-0.3,0.8-0.8,0.9-1.3l1.5-7.8
			c1.1-1.2,2-2.6,2.7-4c0.8-1.7,1.3-3.4,1.4-5.3l4.7-42.6c0.1,15.1,0,32-0.6,42.7c-0.2,3.6,1.4,6.9,4.1,9v12.3c0,0.9,0.7,1.8,1.6,2
			c12.3,2.7,24.9,4.1,37.5,4.1c12.6,0,25.2-1.4,37.5-4.1c0.9-0.2,1.6-1,1.6-2v-12.3c2.7-2.1,4.3-5.4,4.1-9
			c-0.7-10.7-0.7-27.6-0.6-42.7l4.7,42.7c0.3,3.5,1.8,6.8,4.1,9.3l1.5,7.9c0.1,0.5,0.4,1,0.9,1.3c0.3,0.2,0.7,0.3,1.1,0.3
			c0.1,0,0.3,0,0.4,0l11.4-2.5c1-0.2,1.6-1.1,1.6-2.1l-0.4-7.8l1.4-3C169.8,168.1,170.4,165.4,170.1,162.6L170.1,162.6z M136,30.3
			c0.5,3.7,0.6,6.6,0.7,8.1c-7.1,5.3-16.5,8.9-24.1,11.2c2.4-1.5,5.1-3.2,7.6-5C127.9,39.3,133.2,34.5,136,30.3L136,30.3z
			 M80.9,41.3c-5.5-3.8-9.7-7.4-12.6-10.5c7.6-4.9,15.6-6.9,21.5-7.7c5.5-0.7,13.6-0.8,19.2,0c5.9,0.8,13.9,2.8,21.5,7.7
			c-2.8,3.1-7.1,6.7-12.5,10.5c-7.8,5.4-15.9,9.8-18.5,11.2C96.8,51.1,88.7,46.7,80.9,41.3L80.9,41.3z M64.3,22.3
			C64.3,22.2,64.4,22.2,64.3,22.3L64.3,22.3C64.4,22.2,64.4,22.2,64.3,22.3C64.4,22.2,64.4,22.2,64.3,22.3c0.3-1.1,1-2,2.2-2.8
			c6.8-4.8,14.1-7.2,20.1-8.4c7.3-1.4,18.4-1.4,25.7,0c6,1.2,13.2,3.5,20,8.4c1.2,0.8,1.9,1.8,2.2,2.8c0,0,0,0,0,0c0,0,0,0,0,0.1
			c0,0,0,0,0,0c0.4,1.4-0.2,3.3-1.5,5.3c-8.5-5.5-17.3-7.7-23.8-8.6c-5.2-0.7-14.3-0.7-19.5,0c-6.5,0.8-15.3,3-23.8,8.6
			C64.5,25.5,64,23.7,64.3,22.3L64.3,22.3z M62.8,30.3c2.9,4.2,8.1,8.9,15.8,14.3c2.6,1.8,5.2,3.5,7.6,5c-7.6-2.3-17-5.9-24.1-11.2
			C62.2,37,62.3,34,62.8,30.3L62.8,30.3z M35.3,179.8l0.2-4.3l8.4,1.6l-0.9,4.4L35.3,179.8z M64.4,186.8v-8.7c22.9,6,47.2,6,70.1,0
			v8.7C111.5,191.7,87.4,191.7,64.4,186.8L64.4,186.8z M155.9,181.5l-0.9-4.4l8.4-1.6l0.2,4.3L155.9,181.5z M165.1,168.9l-1.2,2.5
			l-10.5,2c-1.5-1.8-2.5-4.1-2.7-6.5c0,0,0,0,0,0L142.4,92c-0.1-1.1-1-1.8-2.1-1.8c-1.1,0-1.9,0.9-1.9,2c0,0.5-1.2,52.2,0.2,75.2
			c0.2,3.1-1.9,5.9-4.9,6.7c-22.4,5.9-46.1,5.9-68.5,0c-3-0.8-5.1-3.6-4.9-6.7c1.4-23,0.2-74.7,0.2-75.2c0-1.1-0.9-1.9-1.9-2
			c-1.1,0-2,0.7-2.1,1.8l-8.2,74.7c0,0,0,0,0,0c-0.1,1.4-0.5,2.7-1.1,4c-0.4,0.9-1,1.8-1.6,2.6l-10.5-2l-1.2-2.5
			c-0.9-1.8-1.2-3.9-1.1-5.9l9.1-101c0.5-6.7,4.3-12.6,10.3-15.8l8.1-4.3c6.1,4.5,14.3,8.3,24.5,11.4c0.4,0.1,0.8,0.2,1.1,0.3V110
			c0,1.1,0.9,2,2,2c1.1,0,2-0.9,2-2V54.8c5.2,1.3,8.8,2,9.3,2c0.1,0,0.2,0,0.4,0h0c0.1,0,0.2,0,0.4,0c0.4-0.1,4.1-0.7,9.3-2V110
			c0,1.1,0.9,2,2,2c1.1,0,2-0.9,2-2V53.6c0.4-0.1,0.7-0.2,1.1-0.3c10.1-3.1,18.4-6.9,24.5-11.4l8.1,4.3c5.9,3.2,9.8,9.1,10.3,15.8
			l9.1,100.9C166.3,165,165.9,167,165.1,168.9L165.1,168.9z M165.1,168.9"/>
	</g>
	<g class="st1">
		<path class="st5" d="M170.1,162.6l-9.1-100.9c-0.6-8.1-5.2-15.2-12.4-19l-7.9-4.3c0-2.4-0.4-9.2-2.3-17.1c0,0,0,0,0-0.1h0
			c0-0.1,0-0.1,0-0.2c-0.5-1.9-1.8-3.6-3.7-5c-8.1-5.7-16.7-8.3-23.3-9.4c-6.3-1-17.5-1-23.8,0c-6.7,1.1-15.2,3.6-23.3,9.4
			c-1.9,1.4-3.2,3-3.7,4.9c0,0.1-0.1,0.2-0.1,0.3c-1.9,7.9-2.2,14.7-2.3,17.1l-7.9,4.3c-7.1,3.8-11.8,10.9-12.4,19l-9.1,101
			c-0.2,2.7,0.3,5.5,1.5,7.9l1.4,3l-0.4,7.8c0,1,0.6,1.8,1.6,2.1l11.4,2.5c0.5,0.1,1.1,0,1.5-0.3c0.5-0.3,0.8-0.8,0.9-1.3l1.5-7.8
			c1.1-1.2,2-2.6,2.7-4c0.8-1.7,1.3-3.4,1.4-5.3l4.7-42.6c0.1,15.1,0,32-0.6,42.7c-0.2,3.6,1.4,6.9,4.1,9v12.3c0,0.9,0.7,1.8,1.6,2
			c12.3,2.7,24.9,4.1,37.5,4.1c12.6,0,25.2-1.4,37.5-4.1c0.9-0.2,1.6-1,1.6-2v-12.3c2.7-2.1,4.3-5.4,4.1-9
			c-0.7-10.7-0.7-27.6-0.6-42.7l4.7,42.7c0.3,3.5,1.8,6.8,4.1,9.3l1.5,7.9c0.1,0.5,0.4,1,0.9,1.3c0.3,0.2,0.7,0.3,1.1,0.3
			c0.1,0,0.3,0,0.4,0l11.4-2.5c1-0.2,1.6-1.1,1.6-2.1l-0.4-7.8l1.4-3C169.8,168.1,170.4,165.4,170.1,162.6L170.1,162.6z M136,30.3
			c0.5,3.7,0.6,6.6,0.7,8.1c-7.1,5.3-16.5,8.9-24.1,11.2c2.4-1.5,5.1-3.2,7.6-5C127.9,39.3,133.2,34.5,136,30.3L136,30.3z
			 M80.9,41.3c-5.5-3.8-9.7-7.4-12.6-10.5c7.6-4.9,15.6-6.9,21.5-7.7c5.5-0.7,13.6-0.8,19.2,0c5.9,0.8,13.9,2.8,21.5,7.7
			c-2.8,3.1-7.1,6.7-12.5,10.5c-7.8,5.4-15.9,9.8-18.5,11.2C96.8,51.1,88.7,46.7,80.9,41.3L80.9,41.3z M64.3,22.3
			C64.3,22.2,64.4,22.2,64.3,22.3L64.3,22.3C64.4,22.2,64.4,22.2,64.3,22.3C64.4,22.2,64.4,22.2,64.3,22.3c0.3-1.1,1-2,2.2-2.8
			c6.8-4.8,14.1-7.2,20.1-8.4c7.3-1.4,18.4-1.4,25.7,0c6,1.2,13.2,3.5,20,8.4c1.2,0.8,1.9,1.8,2.2,2.8c0,0,0,0,0,0c0,0,0,0,0,0.1
			c0,0,0,0,0,0c0.4,1.4-0.2,3.3-1.5,5.3c-8.5-5.5-17.3-7.7-23.8-8.6c-5.2-0.7-14.3-0.7-19.5,0c-6.5,0.8-15.3,3-23.8,8.6
			C64.5,25.5,64,23.7,64.3,22.3L64.3,22.3z M62.8,30.3c2.9,4.2,8.1,8.9,15.8,14.3c2.6,1.8,5.2,3.5,7.6,5c-7.6-2.3-17-5.9-24.1-11.2
			C62.2,37,62.3,34,62.8,30.3L62.8,30.3z M35.3,179.8l0.2-4.3l8.4,1.6l-0.9,4.4L35.3,179.8z M64.4,186.8v-8.7c22.9,6,47.2,6,70.1,0
			v8.7C111.5,191.7,87.4,191.7,64.4,186.8L64.4,186.8z M155.9,181.5l-0.9-4.4l8.4-1.6l0.2,4.3L155.9,181.5z M165.1,168.9l-1.2,2.5
			l-10.5,2c-1.5-1.8-2.5-4.1-2.7-6.5c0,0,0,0,0,0L142.4,92c-0.1-1.1-1-1.8-2.1-1.8c-1.1,0-1.9,0.9-1.9,2c0,0.5-1.2,52.2,0.2,75.2
			c0.2,3.1-1.9,5.9-4.9,6.7c-22.4,5.9-46.1,5.9-68.5,0c-3-0.8-5.1-3.6-4.9-6.7c1.4-23,0.2-74.7,0.2-75.2c0-1.1-0.9-1.9-1.9-2
			c-1.1,0-2,0.7-2.1,1.8l-8.2,74.7c0,0,0,0,0,0c-0.1,1.4-0.5,2.7-1.1,4c-0.4,0.9-1,1.8-1.6,2.6l-10.5-2l-1.2-2.5
			c-0.9-1.8-1.2-3.9-1.1-5.9l9.1-101c0.5-6.7,4.3-12.6,10.3-15.8l8.1-4.3c6.1,4.5,14.3,8.3,24.5,11.4c0.4,0.1,0.8,0.2,1.1,0.3V110
			c0,1.1,0.9,2,2,2c1.1,0,2-0.9,2-2V54.8c5.2,1.3,8.8,2,9.3,2c0.1,0,0.2,0,0.4,0h0c0.1,0,0.2,0,0.4,0c0.4-0.1,4.1-0.7,9.3-2V110
			c0,1.1,0.9,2,2,2c1.1,0,2-0.9,2-2V53.6c0.4-0.1,0.7-0.2,1.1-0.3c10.1-3.1,18.4-6.9,24.5-11.4l8.1,4.3c5.9,3.2,9.8,9.1,10.3,15.8
			l9.1,100.9C166.3,165,165.9,167,165.1,168.9L165.1,168.9z M165.1,168.9"/>
	</g>
	<g class="st1">
		<path class="st6" d="M170.1,162.6l-9.1-100.9c-0.6-8.1-5.2-15.2-12.4-19l-7.9-4.3c0-2.4-0.4-9.2-2.3-17.1c0,0,0,0,0-0.1h0
			c0-0.1,0-0.1,0-0.2c-0.5-1.9-1.8-3.6-3.7-5c-8.1-5.7-16.7-8.3-23.3-9.4c-6.3-1-17.5-1-23.8,0c-6.7,1.1-15.2,3.6-23.3,9.4
			c-1.9,1.4-3.2,3-3.7,4.9c0,0.1-0.1,0.2-0.1,0.3c-1.9,7.9-2.2,14.7-2.3,17.1l-7.9,4.3c-7.1,3.8-11.8,10.9-12.4,19l-9.1,101
			c-0.2,2.7,0.3,5.5,1.5,7.9l1.4,3l-0.4,7.8c0,1,0.6,1.8,1.6,2.1l11.4,2.5c0.5,0.1,1.1,0,1.5-0.3c0.5-0.3,0.8-0.8,0.9-1.3l1.5-7.8
			c1.1-1.2,2-2.6,2.7-4c0.8-1.7,1.3-3.4,1.4-5.3l4.7-42.6c0.1,15.1,0,32-0.6,42.7c-0.2,3.6,1.4,6.9,4.1,9v12.3c0,0.9,0.7,1.8,1.6,2
			c12.3,2.7,24.9,4.1,37.5,4.1c12.6,0,25.2-1.4,37.5-4.1c0.9-0.2,1.6-1,1.6-2v-12.3c2.7-2.1,4.3-5.4,4.1-9
			c-0.7-10.7-0.7-27.6-0.6-42.7l4.7,42.7c0.3,3.5,1.8,6.8,4.1,9.3l1.5,7.9c0.1,0.5,0.4,1,0.9,1.3c0.3,0.2,0.7,0.3,1.1,0.3
			c0.1,0,0.3,0,0.4,0l11.4-2.5c1-0.2,1.6-1.1,1.6-2.1l-0.4-7.8l1.4-3C169.8,168.1,170.4,165.4,170.1,162.6L170.1,162.6z M136,30.3
			c0.5,3.7,0.6,6.6,0.7,8.1c-7.1,5.3-16.5,8.9-24.1,11.2c2.4-1.5,5.1-3.2,7.6-5C127.9,39.3,133.2,34.5,136,30.3L136,30.3z
			 M80.9,41.3c-5.5-3.8-9.7-7.4-12.6-10.5c7.6-4.9,15.6-6.9,21.5-7.7c5.5-0.7,13.6-0.8,19.2,0c5.9,0.8,13.9,2.8,21.5,7.7
			c-2.8,3.1-7.1,6.7-12.5,10.5c-7.8,5.4-15.9,9.8-18.5,11.2C96.8,51.1,88.7,46.7,80.9,41.3L80.9,41.3z M64.3,22.3
			C64.3,22.2,64.4,22.2,64.3,22.3L64.3,22.3C64.4,22.2,64.4,22.2,64.3,22.3C64.4,22.2,64.4,22.2,64.3,22.3c0.3-1.1,1-2,2.2-2.8
			c6.8-4.8,14.1-7.2,20.1-8.4c7.3-1.4,18.4-1.4,25.7,0c6,1.2,13.2,3.5,20,8.4c1.2,0.8,1.9,1.8,2.2,2.8c0,0,0,0,0,0c0,0,0,0,0,0.1
			c0,0,0,0,0,0c0.4,1.4-0.2,3.3-1.5,5.3c-8.5-5.5-17.3-7.7-23.8-8.6c-5.2-0.7-14.3-0.7-19.5,0c-6.5,0.8-15.3,3-23.8,8.6
			C64.5,25.5,64,23.7,64.3,22.3L64.3,22.3z M62.8,30.3c2.9,4.2,8.1,8.9,15.8,14.3c2.6,1.8,5.2,3.5,7.6,5c-7.6-2.3-17-5.9-24.1-11.2
			C62.2,37,62.3,34,62.8,30.3L62.8,30.3z M35.3,179.8l0.2-4.3l8.4,1.6l-0.9,4.4L35.3,179.8z M64.4,186.8v-8.7c22.9,6,47.2,6,70.1,0
			v8.7C111.5,191.7,87.4,191.7,64.4,186.8L64.4,186.8z M155.9,181.5l-0.9-4.4l8.4-1.6l0.2,4.3L155.9,181.5z M165.1,168.9l-1.2,2.5
			l-10.5,2c-1.5-1.8-2.5-4.1-2.7-6.5c0,0,0,0,0,0L142.4,92c-0.1-1.1-1-1.8-2.1-1.8c-1.1,0-1.9,0.9-1.9,2c0,0.5-1.2,52.2,0.2,75.2
			c0.2,3.1-1.9,5.9-4.9,6.7c-22.4,5.9-46.1,5.9-68.5,0c-3-0.8-5.1-3.6-4.9-6.7c1.4-23,0.2-74.7,0.2-75.2c0-1.1-0.9-1.9-1.9-2
			c-1.1,0-2,0.7-2.1,1.8l-8.2,74.7c0,0,0,0,0,0c-0.1,1.4-0.5,2.7-1.1,4c-0.4,0.9-1,1.8-1.6,2.6l-10.5-2l-1.2-2.5
			c-0.9-1.8-1.2-3.9-1.1-5.9l9.1-101c0.5-6.7,4.3-12.6,10.3-15.8l8.1-4.3c6.1,4.5,14.3,8.3,24.5,11.4c0.4,0.1,0.8,0.2,1.1,0.3V110
			c0,1.1,0.9,2,2,2c1.1,0,2-0.9,2-2V54.8c5.2,1.3,8.8,2,9.3,2c0.1,0,0.2,0,0.4,0h0c0.1,0,0.2,0,0.4,0c0.4-0.1,4.1-0.7,9.3-2V110
			c0,1.1,0.9,2,2,2c1.1,0,2-0.9,2-2V53.6c0.4-0.1,0.7-0.2,1.1-0.3c10.1-3.1,18.4-6.9,24.5-11.4l8.1,4.3c5.9,3.2,9.8,9.1,10.3,15.8
			l9.1,100.9C166.3,165,165.9,167,165.1,168.9L165.1,168.9z M165.1,168.9"/>
	</g>
</g>
</svg>
