<?xml version="1.0" encoding="utf-8"?>
<!-- Generator: Adobe Illustrator 22.0.1, SVG Export Plug-In . SVG Version: 6.00 Build 0)  -->
<svg version="1.1" xmlns="http://www.w3.org/2000/svg" xmlns:xlink="http://www.w3.org/1999/xlink" x="0px" y="0px"
	 viewBox="0 0 1122 1122" style="enable-background:new 0 0 1122 1122;" xml:space="preserve">
<style type="text/css">
	.st0{opacity:0.7;}
	.st1{filter:url(#Adobe_OpacityMaskFilter);}
	.st2{mask:url(#SVGID_1_);}
	.st3{fill:#54A8D8;}
	.st4{filter:url(#Adobe_OpacityMaskFilter_1_);}
	.st5{mask:url(#SVGID_2_);}
	.st6{fill:#84D7E0;}
	.st7{fill:#FFFFFF;}
	.st8{filter:url(#Adobe_OpacityMaskFilter_2_);}
	.st9{mask:url(#SVGID_3_);}
	.st10{filter:url(#Adobe_OpacityMaskFilter_3_);}
	.st11{mask:url(#SVGID_4_);}
	.st12{filter:url(#Adobe_OpacityMaskFilter_4_);}
	.st13{mask:url(#SVGID_5_);}
	.st14{filter:url(#Adobe_OpacityMaskFilter_5_);}
	.st15{mask:url(#SVGID_6_);}
	.st16{filter:url(#Adobe_OpacityMaskFilter_6_);}
	.st17{mask:url(#SVGID_7_);}
	.st18{filter:url(#Adobe_OpacityMaskFilter_7_);}
	.st19{mask:url(#SVGID_8_);}
	.st20{filter:url(#Adobe_OpacityMaskFilter_8_);}
	.st21{mask:url(#SVGID_9_);fill:#54A8D8;}
	.st22{filter:url(#Adobe_OpacityMaskFilter_9_);}
	.st23{mask:url(#SVGID_10_);fill:#54A8D8;}
	.st24{filter:url(#Adobe_OpacityMaskFilter_10_);}
	.st25{mask:url(#SVGID_11_);fill:#54A8D8;}
	.st26{filter:url(#Adobe_OpacityMaskFilter_11_);}
	.st27{mask:url(#SVGID_12_);fill:#54A8D8;}
	.st28{filter:url(#Adobe_OpacityMaskFilter_12_);}
	.st29{mask:url(#SVGID_13_);fill:#54A8D8;}
	.st30{filter:url(#Adobe_OpacityMaskFilter_13_);}
	.st31{mask:url(#SVGID_14_);fill:#54A8D8;}
	.st32{filter:url(#Adobe_OpacityMaskFilter_14_);}
	.st33{mask:url(#SVGID_15_);fill:#54A8D8;}
	.st34{filter:url(#Adobe_OpacityMaskFilter_15_);}
	.st35{mask:url(#SVGID_16_);fill:#54A8D8;}
	.st36{filter:url(#Adobe_OpacityMaskFilter_16_);}
	.st37{mask:url(#SVGID_17_);fill:#54A8D8;}
	.st38{filter:url(#Adobe_OpacityMaskFilter_17_);}
	.st39{mask:url(#SVGID_18_);fill:#54A8D8;}
	.st40{filter:url(#Adobe_OpacityMaskFilter_18_);}
	.st41{mask:url(#SVGID_19_);fill:#54A8D8;}
	.st42{filter:url(#Adobe_OpacityMaskFilter_19_);}
	.st43{mask:url(#SVGID_20_);fill:#54A8D8;}
	.st44{filter:url(#Adobe_OpacityMaskFilter_20_);}
	.st45{mask:url(#SVGID_21_);fill:#54A8D8;}
	.st46{filter:url(#Adobe_OpacityMaskFilter_21_);}
	.st47{mask:url(#SVGID_22_);fill:#54A8D8;}
	.st48{filter:url(#Adobe_OpacityMaskFilter_22_);}
	.st49{mask:url(#SVGID_23_);fill:#54A8D8;}
	.st50{filter:url(#Adobe_OpacityMaskFilter_23_);}
	.st51{mask:url(#SVGID_24_);fill:#54A8D8;}
	.st52{filter:url(#Adobe_OpacityMaskFilter_24_);}
	.st53{mask:url(#SVGID_25_);fill:#54A8D8;}
	.st54{filter:url(#Adobe_OpacityMaskFilter_25_);}
	.st55{mask:url(#SVGID_26_);fill:#54A8D8;}
	.st56{filter:url(#Adobe_OpacityMaskFilter_26_);}
	.st57{mask:url(#SVGID_27_);fill:#54A8D8;}
	.st58{filter:url(#Adobe_OpacityMaskFilter_27_);}
	.st59{mask:url(#SVGID_28_);fill:#54A8D8;}
	.st60{filter:url(#Adobe_OpacityMaskFilter_28_);}
	.st61{mask:url(#SVGID_29_);fill:#54A8D8;}
	.st62{filter:url(#Adobe_OpacityMaskFilter_29_);}
	.st63{mask:url(#SVGID_30_);fill:#54A8D8;}
	.st64{filter:url(#Adobe_OpacityMaskFilter_30_);}
	.st65{mask:url(#SVGID_31_);fill:#54A8D8;}
	.st66{filter:url(#Adobe_OpacityMaskFilter_31_);}
	.st67{mask:url(#SVGID_32_);fill:#54A8D8;}
	.st68{filter:url(#Adobe_OpacityMaskFilter_32_);}
	.st69{mask:url(#SVGID_33_);fill:#54A8D8;}
	.st70{filter:url(#Adobe_OpacityMaskFilter_33_);}
	.st71{mask:url(#SVGID_34_);fill:#54A8D8;}
	.st72{filter:url(#Adobe_OpacityMaskFilter_34_);}
	.st73{mask:url(#SVGID_35_);fill:#54A8D8;}
	.st74{filter:url(#Adobe_OpacityMaskFilter_35_);}
	.st75{mask:url(#SVGID_36_);fill:#54A8D8;}
	.st76{filter:url(#Adobe_OpacityMaskFilter_36_);}
	.st77{mask:url(#SVGID_37_);fill:#54A8D8;}
	.st78{filter:url(#Adobe_OpacityMaskFilter_37_);}
	.st79{mask:url(#SVGID_38_);fill:#54A8D8;}
	.st80{filter:url(#Adobe_OpacityMaskFilter_38_);}
	.st81{mask:url(#SVGID_39_);fill:#54A8D8;}
	.st82{filter:url(#Adobe_OpacityMaskFilter_39_);}
	.st83{mask:url(#SVGID_40_);fill:#54A8D8;}
	.st84{filter:url(#Adobe_OpacityMaskFilter_40_);}
	.st85{mask:url(#SVGID_41_);fill:#54A8D8;}
	.st86{filter:url(#Adobe_OpacityMaskFilter_41_);}
	.st87{mask:url(#SVGID_42_);fill:#54A8D8;}
	.st88{filter:url(#Adobe_OpacityMaskFilter_42_);}
	.st89{mask:url(#SVGID_43_);fill:#54A8D8;}
	.st90{filter:url(#Adobe_OpacityMaskFilter_43_);}
	.st91{mask:url(#SVGID_44_);fill:#54A8D8;}
	.st92{filter:url(#Adobe_OpacityMaskFilter_44_);}
	.st93{mask:url(#SVGID_45_);fill:#54A8D8;}
	.st94{filter:url(#Adobe_OpacityMaskFilter_45_);}
	.st95{mask:url(#SVGID_46_);fill:#54A8D8;}
	.st96{filter:url(#Adobe_OpacityMaskFilter_46_);}
	.st97{mask:url(#SVGID_47_);fill:#54A8D8;}
	.st98{filter:url(#Adobe_OpacityMaskFilter_47_);}
	.st99{mask:url(#SVGID_48_);fill:#54A8D8;}
	.st100{filter:url(#Adobe_OpacityMaskFilter_48_);}
	.st101{mask:url(#SVGID_49_);fill:#54A8D8;}
	.st102{filter:url(#Adobe_OpacityMaskFilter_49_);}
	.st103{mask:url(#SVGID_50_);fill:#54A8D8;}
	.st104{filter:url(#Adobe_OpacityMaskFilter_50_);}
	.st105{mask:url(#SVGID_51_);fill:#54A8D8;}
	.st106{filter:url(#Adobe_OpacityMaskFilter_51_);}
	.st107{mask:url(#SVGID_52_);fill:#54A8D8;}
</style>
<g id="BG">
</g>
<g id="Bars">
	<g class="st0">
		<g>
			<path d="M992.2,639.1H129.8c-2.8,0-5-2.2-5-5c0-2.8,2.2-5,5-5h862.4c2.8,0,5,2.2,5,5C997.2,636.9,995,639.1,992.2,639.1z"/>
		</g>
		<g>
			<path d="M992.2,699.1H129.8c-2.8,0-5-2.2-5-5c0-2.8,2.2-5,5-5h862.4c2.8,0,5,2.2,5,5C997.2,696.9,995,699.1,992.2,699.1z"/>
		</g>
	</g>
	<g class="st0">
		<g>
			<path d="M992.2,433.3H129.8c-2.8,0-5-2.2-5-5c0-2.8,2.2-5,5-5h862.4c2.8,0,5,2.2,5,5C997.2,431.1,995,433.3,992.2,433.3z"/>
		</g>
		<g>
			<path d="M992.2,493.3H129.8c-2.8,0-5-2.2-5-5s2.2-5,5-5h862.4c2.8,0,5,2.2,5,5S995,493.3,992.2,493.3z"/>
		</g>
	</g>
	<g class="st0">
		<g>
			<path d="M992.2,226.5H129.8c-2.8,0-5-2.2-5-5c0-2.8,2.2-5,5-5h862.4c2.8,0,5,2.2,5,5C997.2,224.3,995,226.5,992.2,226.5z"/>
		</g>
		<g>
			<path d="M992.2,286.5H129.8c-2.8,0-5-2.2-5-5c0-2.8,2.2-5,5-5h862.4c2.8,0,5,2.2,5,5C997.2,284.3,995,286.5,992.2,286.5z"/>
		</g>
	</g>
	<g class="st0">
		<g>
			<path d="M992.2,847.7H129.8c-2.8,0-5-2.2-5-5s2.2-5,5-5h862.4c2.8,0,5,2.2,5,5S995,847.7,992.2,847.7z"/>
		</g>
		<g>
			<path d="M992.2,907.7H129.8c-2.8,0-5-2.2-5-5c0-2.8,2.2-5,5-5h862.4c2.8,0,5,2.2,5,5C997.2,905.5,995,907.7,992.2,907.7z"/>
		</g>
	</g>
</g>
<g id="Alphabet">
	<g>
		<defs>
			<filter id="Adobe_OpacityMaskFilter" filterUnits="userSpaceOnUse" x="132.4" y="136.6" width="212.7" height="230.1">
				<feColorMatrix  type="matrix" values="1 0 0 0 0  0 1 0 0 0  0 0 1 0 0  0 0 0 1 0"/>
			</filter>
		</defs>
		<mask maskUnits="userSpaceOnUse" x="132.4" y="136.6" width="212.7" height="230.1" id="SVGID_1_">
			<g class="st1">
				
					<image style="overflow:visible;" width="213" height="230.4" xlink:href="2085950C.png"  transform="matrix(1 0 0 1 132.2633 136.4823)"/>
			</g>
		</mask>
		<g class="st2">
			<g>
				<rect x="132.4" y="136.6" class="st3" width="212.7" height="230.1"/>
			</g>
		</g>
		<defs>
			<filter id="Adobe_OpacityMaskFilter_1_" filterUnits="userSpaceOnUse" x="131.4" y="136.6" width="212.7" height="230.1">
				<feColorMatrix  type="matrix" values="1 0 0 0 0  0 1 0 0 0  0 0 1 0 0  0 0 0 1 0"/>
			</filter>
		</defs>
		<mask maskUnits="userSpaceOnUse" x="131.4" y="136.6" width="212.7" height="230.1" id="SVGID_2_">
			<g class="st4">
				
					<image style="overflow:visible;" width="213" height="230.4" xlink:href="20859502.png"  transform="matrix(1 0 0 1 131.3269 136.4823)"/>
			</g>
		</mask>
		<g class="st5">
			<g>
				<rect x="131.4" y="136.6" class="st3" width="212.7" height="230.1"/>
			</g>
		</g>
		<g>
			<g>
				<path class="st6" d="M194.8,310.8c1.1,0.4,2.3,0.6,3.5,0.6c4.4,0,8.4-2.8,9.9-7l6.8-19.1h34.6c5,0,9.2-3.5,10.2-8.2l9.6,27.4
					c1.5,4.2,5.4,7,9.9,7c1.2,0,2.3-0.2,3.5-0.6c2.6-0.9,4.8-2.8,6-5.3c1.2-2.5,1.4-5.4,0.4-8l-34.6-98.5c-1.5-4.2-5.4-7-9.9-7
					c-1.2,0-2.3,0.2-3.5,0.6c-2.6,0.9-4.8,2.8-6,5.3c-0.8,1.6-1.1,3.4-1,5.1c-0.4-0.2-0.7-0.3-1.1-0.5c-1.1-0.4-2.3-0.6-3.5-0.6
					c0,0,0,0,0,0c-4.4,0-8.4,2.8-9.9,7l-31.2,88.5C186.5,302.9,189.4,308.8,194.8,310.8z M249.5,264.3h-27.2l16.5-46.8l17.3,49.2
					C254.3,265.2,252,264.3,249.5,264.3z"/>
			</g>
			<g>
				<g>
					<path class="st3" d="M272.8,303.1c1,2.7,3.5,4.5,6.4,4.5c0.8,0,1.5-0.1,2.2-0.4c1.7-0.6,3.1-1.8,3.9-3.5
						c0.8-1.6,0.9-3.5,0.3-5.2L251,200.2c-1-2.7-3.5-4.5-6.4-4.5c-0.8,0-1.5,0.1-2.2,0.4c-1.7,0.6-3.1,1.8-3.9,3.5
						c-0.8,1.6-0.9,3.5-0.3,5.2L272.8,303.1z"/>
				</g>
				<g>
					<path class="st3" d="M196.1,307.3c0.7,0.3,1.5,0.4,2.2,0.4c2.9,0,5.4-1.8,6.4-4.5l7.6-21.6h37.2c3.7,0,6.8-3,6.8-6.8
						c0-3.7-3-6.8-6.8-6.8h-32.4l18.8-53.4c1.2-3.5-0.6-7.4-4.1-8.6c-0.7-0.3-1.5-0.4-2.3-0.4c-2.9,0-5.4,1.8-6.4,4.5l-31.2,88.5
						C190.7,302.2,192.5,306,196.1,307.3z"/>
				</g>
			</g>
			<g>
				<g>
					<path class="st7" d="M283.8,299.3l-34.6-98.5c-0.9-2.6-3.7-3.9-6.3-3c-2.6,0.9-3.9,3.7-3,6.3l34.6,98.5c0.7,2,2.6,3.3,4.6,3.3
						c0.5,0,1.1-0.1,1.6-0.3C283.4,304.6,284.7,301.8,283.8,299.3z"/>
				</g>
				<g>
					<path class="st7" d="M249.5,269.9h-35l19.7-55.9c0.9-2.6-0.4-5.4-3-6.3c-2.6-0.9-5.4,0.4-6.3,3l-31.2,88.5
						c-0.9,2.6,0.4,5.4,3,6.3c0.5,0.2,1.1,0.3,1.6,0.3c2,0,3.9-1.3,4.6-3.3l8.1-22.8h38.5c2.7,0,4.9-2.2,4.9-4.9
						C254.4,272.1,252.2,269.9,249.5,269.9z"/>
				</g>
			</g>
		</g>
	</g>
	<g>
		<defs>
			<filter id="Adobe_OpacityMaskFilter_2_" filterUnits="userSpaceOnUse" x="271.7" y="136.6" width="196.5" height="230.1">
				<feColorMatrix  type="matrix" values="1 0 0 0 0  0 1 0 0 0  0 0 1 0 0  0 0 0 1 0"/>
			</filter>
		</defs>
		<mask maskUnits="userSpaceOnUse" x="271.7" y="136.6" width="196.5" height="230.1" id="SVGID_3_">
			<g class="st8">
				
					<image style="overflow:visible;" width="196.8" height="230.4" xlink:href="20859500.png"  transform="matrix(1 0 0 1 271.5215 136.4332)"/>
			</g>
		</mask>
		<g class="st9">
			<g>
				<rect x="271.7" y="136.6" class="st3" width="196.5" height="230.1"/>
			</g>
		</g>
		<defs>
			<filter id="Adobe_OpacityMaskFilter_3_" filterUnits="userSpaceOnUse" x="271.7" y="136.6" width="196.5" height="230.1">
				<feColorMatrix  type="matrix" values="1 0 0 0 0  0 1 0 0 0  0 0 1 0 0  0 0 0 1 0"/>
			</filter>
		</defs>
		<mask maskUnits="userSpaceOnUse" x="271.7" y="136.6" width="196.5" height="230.1" id="SVGID_4_">
			<g class="st10">
				
					<image style="overflow:visible;" width="196.8" height="230.4" xlink:href="20859501.png"  transform="matrix(1 0 0 1 271.5215 136.4332)"/>
			</g>
		</mask>
		<g class="st11">
			<g>
				<rect x="271.7" y="136.6" class="st3" width="196.5" height="230.1"/>
			</g>
		</g>
		<g>
			<g>
				<path class="st6" d="M337.7,311.2c4.6,0,8.5-3,9.9-7.1c1.4,4.1,5.3,7.1,9.9,7.1h12.4c12.4,0,22.5-3.2,30.2-9.5
					c8.3-6.8,12.6-15.8,12.6-26.7c0-8.6-2.8-16.3-8.3-22.8c-0.7-0.8-1.4-1.6-2.1-2.3c6.6-7.1,8.1-15.4,8.1-21.5
					c0-10.7-4.2-19.6-12.4-26.6c-7.7-6.5-17.9-9.8-30.5-9.8h-10.1c-4.6,0-8.5,3-9.9,7.1c-1.4-4.1-5.3-7.1-9.9-7.1
					c-5.8,0-10.5,4.7-10.5,10.5v98.2C327.2,306.5,331.9,311.2,337.7,311.2z M357.4,213h10.1c7.5,0,13.2,1.6,17,4.8
					c3.4,2.9,5,6.2,5,10.6c0,3,0,8.6-11.6,12.1c-4.7,1.4-7.8,5.9-7.5,10.8c0.3,4.9,4.1,8.9,8.9,9.6c3.9,0.6,6.8,2.1,9,4.7
					c2.3,2.8,3.4,5.8,3.4,9.4c0,4.5-1.5,7.8-4.9,10.5c-3.9,3.2-9.6,4.8-17,4.8h-12.4c-4.1,0-7.6,2.3-9.3,5.7v-88.7
					C349.8,210.7,353.4,213,357.4,213z"/>
			</g>
			<g>
				<g>
					<path class="st3" d="M337.7,307.5c3.7,0,6.8-3,6.8-6.8v-98.2c0-3.7-3-6.8-6.8-6.8c-3.7,0-6.8,3-6.8,6.8v98.2
						C330.9,304.5,333.9,307.5,337.7,307.5z"/>
				</g>
				<g>
					<path class="st3" d="M389.2,288.4c-4.6,3.7-11.1,5.6-19.4,5.6h-12.4c-3.7,0-6.8,3-6.8,6.8c0,3.7,3,6.8,6.8,6.8h12.4
						c11.5,0,20.9-2.9,27.9-8.6c7.4-6.1,11.2-14.1,11.2-23.9c0-7.7-2.5-14.6-7.4-20.5c-1.4-1.7-3-3.2-4.8-4.6
						c8.1-6.6,9.9-15.3,9.9-21.5c0-9.6-3.7-17.5-11.1-23.7c-7-5.9-16.4-8.9-28.1-8.9h-10.1c-3.7,0-6.8,3-6.8,6.8s3,6.8,6.8,6.8h10.1
						c8.3,0,14.9,1.9,19.3,5.7c4.2,3.6,6.3,7.9,6.3,13.4c0,5.3-1.6,11.9-14.3,15.6c-3,0.9-5.1,3.8-4.8,7c0.2,3.1,2.7,5.8,5.8,6.2
						c4.8,0.7,8.5,2.7,11.3,6c2.9,3.4,4.3,7.3,4.3,11.8C395.4,280.6,393.4,285,389.2,288.4z"/>
				</g>
			</g>
			<g>
				<g>
					<g>
						<path class="st7" d="M337.7,305.7c-2.7,0-4.9-2.2-4.9-4.9v-98.2c0-2.7,2.2-4.9,4.9-4.9c2.7,0,4.9,2.2,4.9,4.9v98.2
							C342.6,303.5,340.4,305.7,337.7,305.7z"/>
					</g>
				</g>
				<g>
					<g>
						<path class="st7" d="M369.8,305.7h-12.4c-2.7,0-4.9-2.2-4.9-4.9c0-2.7,2.2-4.9,4.9-4.9h12.4c8.7,0,15.6-2,20.5-6
							c4.7-3.8,6.9-8.6,6.9-14.8c0-4.9-1.5-9.2-4.7-13c-3.1-3.7-7.2-5.9-12.5-6.7c-2.3-0.3-4-2.2-4.2-4.5c-0.2-2.3,1.3-4.4,3.5-5.1
							c14-4.1,15.6-11.9,15.6-17.4c0-6-2.3-10.9-6.9-14.8c-4.8-4.1-11.7-6.2-20.5-6.2h-10.1c-2.7,0-4.9-2.2-4.9-4.9
							c0-2.7,2.2-4.9,4.9-4.9h10.1c11.2,0,20.2,2.9,26.9,8.5c6.9,5.8,10.4,13.3,10.4,22.3c0,6.9-2.2,15.4-11.2,21.6
							c2.4,1.5,4.6,3.4,6.5,5.7c4.6,5.5,7,12,7,19.3c0,9.2-3.5,16.8-10.5,22.5C389.9,302.9,380.9,305.7,369.8,305.7z"/>
					</g>
				</g>
			</g>
		</g>
	</g>
	<g>
		<defs>
			<filter id="Adobe_OpacityMaskFilter_4_" filterUnits="userSpaceOnUse" x="391.4" y="134.2" width="210.4" height="232.2">
				<feColorMatrix  type="matrix" values="1 0 0 0 0  0 1 0 0 0  0 0 1 0 0  0 0 0 1 0"/>
			</filter>
		</defs>
		<mask maskUnits="userSpaceOnUse" x="391.4" y="134.2" width="210.4" height="232.2" id="SVGID_5_">
			<g class="st12">
				
					<image style="overflow:visible;" width="210.7" height="232.2" xlink:href="2085951F.png"  transform="matrix(1 0 0 1 391.3437 134.2337)"/>
			</g>
		</mask>
		<g class="st13">
			<g>
				<rect x="391.4" y="134.2" class="st3" width="210.4" height="232.2"/>
			</g>
		</g>
		<defs>
			<filter id="Adobe_OpacityMaskFilter_5_" filterUnits="userSpaceOnUse" x="391.4" y="134.5" width="210.4" height="232.2">
				<feColorMatrix  type="matrix" values="1 0 0 0 0  0 1 0 0 0  0 0 1 0 0  0 0 0 1 0"/>
			</filter>
		</defs>
		<mask maskUnits="userSpaceOnUse" x="391.4" y="134.5" width="210.4" height="232.2" id="SVGID_6_">
			<g class="st14">
				
					<image style="overflow:visible;" width="210.7" height="232.2" xlink:href="2085951D.png"  transform="matrix(1 0 0 1 391.3437 134.5153)"/>
			</g>
		</mask>
		<g class="st15">
			<g>
				<rect x="391.4" y="134.5" class="st3" width="210.4" height="232.2"/>
			</g>
		</g>
		<g>
			<g>
				<path class="st6" d="M507.4,311c12.7,0,24.2-3.3,34.2-9.8c2.3-1.5,3.9-3.9,4.5-6.6c0.6-2.7,0.1-5.5-1.5-7.9
					c-1.9-3-5.2-4.8-8.8-4.8c-2,0-4,0.6-5.7,1.7c-6.5,4.2-14.2,6.4-22.8,6.4c-11.4,0-20.7-3.7-28.4-11.2
					c-7.6-7.5-11.4-16.8-11.4-28.6c0-11.7,3.7-21,11.4-28.5c7.8-7.6,17-11.2,28.4-11.2c8.6,0,16.2,2.2,22.8,6.5
					c1.7,1.1,3.7,1.7,5.7,1.7c3.5,0,6.8-1.8,8.7-4.7c3.2-4.8,1.8-11.3-3-14.5c-10-6.5-21.5-9.9-34.2-9.9c-16.8,0-31.3,5.8-43,17.2
					c-11.8,11.5-17.7,26.1-17.7,43.5c0,17.4,5.9,32,17.6,43.5C476,305.2,490.5,311,507.4,311z"/>
			</g>
			<g>
				<path class="st3" d="M507.4,307.3c12,0,22.8-3.1,32.2-9.2c1.5-1,2.6-2.5,2.9-4.3c0.4-1.8,0-3.6-0.9-5.1
					c-1.3-1.9-3.4-3.1-5.7-3.1c-1.3,0-2.6,0.4-3.7,1.1c-7.1,4.6-15.5,7-24.8,7c-12.4,0-22.6-4-31-12.3c-8.4-8.2-12.5-18.4-12.5-31.2
					c0-12.8,4.1-23,12.5-31.2c8.5-8.3,18.6-12.3,30.9-12.3c9.3,0,17.6,2.4,24.8,7.1c1.1,0.7,2.4,1.1,3.7,1.1c2.3,0,4.4-1.1,5.7-3.1
					c2-3.1,1.2-7.3-1.9-9.4c-9.4-6.1-20.2-9.3-32.2-9.3c-15.8,0-29.4,5.4-40.4,16.1c-11,10.8-16.6,24.5-16.6,40.9
					c0,16.4,5.6,30.1,16.5,40.8C477.9,301.9,491.5,307.3,507.4,307.3z"/>
			</g>
			<g>
				<g>
					<path class="st7" d="M507.4,305.5c-15.4,0-28.6-5.3-39.2-15.6c-10.6-10.4-16-23.7-16-39.5c0-15.8,5.4-29.1,16-39.5
						c10.6-10.4,23.8-15.6,39.1-15.6c11.6,0,22.1,3,31.2,9c2.3,1.5,2.9,4.5,1.4,6.8c-1.5,2.3-4.5,2.9-6.8,1.4
						c-7.5-4.9-16.1-7.4-25.8-7.4c-12.9,0-23.4,4.2-32.2,12.8c-8.8,8.6-13.1,19.2-13.1,32.5c0,13.3,4.3,23.9,13,32.5
						c8.8,8.6,19.3,12.8,32.3,12.8c9.7,0,18.4-2.5,25.8-7.3c2.3-1.5,5.3-0.8,6.8,1.4c1.5,2.3,0.8,5.3-1.4,6.8
						C529.5,302.5,519,305.5,507.4,305.5z"/>
				</g>
			</g>
		</g>
	</g>
	<g>
		<defs>
			<filter id="Adobe_OpacityMaskFilter_6_" filterUnits="userSpaceOnUse" x="519.2" y="136.6" width="208" height="230.1">
				<feColorMatrix  type="matrix" values="1 0 0 0 0  0 1 0 0 0  0 0 1 0 0  0 0 0 1 0"/>
			</filter>
		</defs>
		<mask maskUnits="userSpaceOnUse" x="519.2" y="136.6" width="208" height="230.1" id="SVGID_7_">
			<g class="st16">
				
					<image style="overflow:visible;" width="208.3" height="230.4" xlink:href="2085951C.png"  transform="matrix(1 0 0 1 519.0515 136.4332)"/>
			</g>
		</mask>
		<g class="st17">
			<g>
				<rect x="519.2" y="136.6" class="st3" width="208" height="230.1"/>
			</g>
		</g>
		<defs>
			<filter id="Adobe_OpacityMaskFilter_7_" filterUnits="userSpaceOnUse" x="519.2" y="136.6" width="208" height="230.1">
				<feColorMatrix  type="matrix" values="1 0 0 0 0  0 1 0 0 0  0 0 1 0 0  0 0 0 1 0"/>
			</filter>
		</defs>
		<mask maskUnits="userSpaceOnUse" x="519.2" y="136.6" width="208" height="230.1" id="SVGID_8_">
			<g class="st18">
				
					<image style="overflow:visible;" width="208.3" height="230.4" xlink:href="20859531.png"  transform="matrix(1 0 0 1 519.0515 136.4332)"/>
			</g>
		</mask>
		<g class="st19">
			<g>
				<rect x="519.2" y="136.6" class="st3" width="208" height="230.1"/>
			</g>
		</g>
		<g>
			<g>
				<path class="st6" d="M585.1,311.2c4.6,0,8.5-3,9.9-7.1c1.4,4.1,5.3,7.1,9.9,7.1h3.7c18.4,0,33.6-5.4,45.3-16.1
					c11.9-10.9,17.9-25.5,17.9-43.3c0-17.8-6-32.4-17.9-43.4c-11.7-10.8-26.9-16.3-45.3-16.3h-3.7c-4.6,0-8.5,3-9.9,7.1
					c-1.4-4.1-5.3-7.1-9.9-7.1c-5.8,0-10.5,4.7-10.5,10.5v98.2C574.7,306.5,579.3,311.2,585.1,311.2z M604.9,213h3.7
					c13.1,0,23.3,3.5,31.1,10.7c7.5,7,11.2,16.2,11.2,28.1c0,11.9-3.7,21-11.2,27.9c-7.8,7.1-18,10.6-31.1,10.6h-3.7
					c-4.1,0-7.6,2.3-9.3,5.7v-88.8C597.3,210.7,600.8,213,604.9,213z"/>
			</g>
			<g>
				<g>
					<path class="st3" d="M642.2,282.4c-8.5,7.8-19.5,11.6-33.6,11.6h-3.7c-3.7,0-6.8,3-6.8,6.8c0,3.7,3,6.8,6.8,6.8h3.7
						c17.4,0,31.8-5.1,42.8-15.1c11.1-10.2,16.8-23.9,16.8-40.6c0-16.7-5.6-30.4-16.7-40.7c-11-10.2-25.4-15.3-42.8-15.3h-3.7
						c-3.7,0-6.8,3-6.8,6.8s3,6.8,6.8,6.8h3.7c14.1,0,25.1,3.8,33.6,11.7c8.3,7.7,12.4,17.8,12.4,30.8
						C654.5,264.8,650.5,274.8,642.2,282.4z"/>
				</g>
				<g>
					<path class="st3" d="M585.1,307.5c3.7,0,6.8-3,6.8-6.8v-98.2c0-3.7-3-6.8-6.8-6.8s-6.8,3-6.8,6.8v98.2
						C578.3,304.5,581.4,307.5,585.1,307.5z"/>
				</g>
			</g>
			<g>
				<g>
					<g>
						<g>
							<path class="st7" d="M608.5,305.7h-3.7c-2.7,0-4.9-2.2-4.9-4.9c0-2.7,2.2-4.9,4.9-4.9h3.7c14.6,0,26-3.9,34.9-12.1
								c8.7-8,13-18.5,13-32c0-13.5-4.2-24-13-32.1c-8.8-8.2-20.3-12.2-34.9-12.2h-3.7c-2.7,0-4.9-2.2-4.9-4.9
								c0-2.7,2.2-4.9,4.9-4.9h3.7c17,0,30.9,5,41.5,14.8c10.7,9.9,16.1,23.2,16.1,39.3c0,16.2-5.4,29.4-16.2,39.2
								C639.5,300.7,625.5,305.7,608.5,305.7z"/>
						</g>
					</g>
				</g>
				<g>
					<g>
						<path class="st7" d="M585.1,305.7c-2.7,0-4.9-2.2-4.9-4.9v-98.2c0-2.7,2.2-4.9,4.9-4.9c2.7,0,4.9,2.2,4.9,4.9v98.2
							C590,303.5,587.8,305.7,585.1,305.7z"/>
					</g>
				</g>
			</g>
		</g>
	</g>
	<g>
		<defs>
			<filter id="Adobe_OpacityMaskFilter_8_" filterUnits="userSpaceOnUse" x="654.3" y="136.6" width="191.2" height="230.1">
				<feColorMatrix  type="matrix" values="1 0 0 0 0  0 1 0 0 0  0 0 1 0 0  0 0 0 1 0"/>
			</filter>
		</defs>
		<mask maskUnits="userSpaceOnUse" x="654.3" y="136.6" width="191.2" height="230.1" id="SVGID_9_">
			<g class="st20">
				
					<image style="overflow:visible;" width="191.5" height="230.4" xlink:href="20859532.png"  transform="matrix(1 0 0 1 654.1027 136.4332)"/>
			</g>
		</mask>
		<rect x="654.3" y="136.6" class="st21" width="191.2" height="230.1"/>
		<defs>
			<filter id="Adobe_OpacityMaskFilter_9_" filterUnits="userSpaceOnUse" x="654.3" y="136.6" width="191.2" height="230.1">
				<feColorMatrix  type="matrix" values="1 0 0 0 0  0 1 0 0 0  0 0 1 0 0  0 0 0 1 0"/>
			</filter>
		</defs>
		<mask maskUnits="userSpaceOnUse" x="654.3" y="136.6" width="191.2" height="230.1" id="SVGID_10_">
			<g class="st22">
				
					<image style="overflow:visible;" width="191.5" height="230.4" xlink:href="B34E8AAC.png"  transform="matrix(1 0 0 1 654.1027 136.4332)"/>
			</g>
		</mask>
		<rect x="654.3" y="136.6" class="st23" width="191.2" height="230.1"/>
		<g>
			<g>
				<path class="st6" d="M720.3,311.4h59.1c5.8,0,10.5-4.7,10.5-10.5c0-5.8-4.7-10.5-10.5-10.5h-48.7v-33.8c1.8,3.3,5.2,5.6,9.2,5.6
					h28c5.8,0,10.5-4.7,10.5-10.5c0-5.8-4.7-10.5-10.5-10.5h-28c-4,0-7.5,2.3-9.2,5.6v-34.1h48.7c5.8,0,10.5-4.7,10.5-10.5
					c0-5.8-4.7-10.5-10.5-10.5h-59.1c-5.8,0-10.5,4.7-10.5,10.5v98.5C709.8,306.7,714.5,311.4,720.3,311.4z"/>
			</g>
			<g>
				<g>
					<path class="st3" d="M720.3,307.7h59.1c3.7,0,6.8-3,6.8-6.8c0-3.7-3-6.8-6.8-6.8H727v-85h52.4c3.7,0,6.8-3,6.8-6.8
						c0-3.7-3-6.8-6.8-6.8h-59.1c-3.7,0-6.8,3-6.8,6.8v98.5C713.5,304.6,716.5,307.7,720.3,307.7z"/>
				</g>
				<g>
					<path class="st3" d="M740,245c-3.7,0-6.8,3-6.8,6.8s3,6.8,6.8,6.8h28c3.7,0,6.8-3,6.8-6.8s-3-6.8-6.8-6.8H740z"/>
				</g>
			</g>
			<g>
				<g>
					<g>
						<path class="st7" d="M779.4,305.8h-59.1c-2.7,0-4.9-2.2-4.9-4.9v-98.5c0-2.7,2.2-4.9,4.9-4.9h59.1c2.7,0,4.9,2.2,4.9,4.9
							c0,2.7-2.2,4.9-4.9,4.9h-54.2V296h54.2c2.7,0,4.9,2.2,4.9,4.9C784.3,303.6,782.1,305.8,779.4,305.8z"/>
					</g>
				</g>
				<g>
					<g>
						<path class="st7" d="M768,256.7h-28c-2.7,0-4.9-2.2-4.9-4.9s2.2-4.9,4.9-4.9h28c2.7,0,4.9,2.2,4.9,4.9S770.7,256.7,768,256.7z
							"/>
					</g>
				</g>
			</g>
		</g>
	</g>
	<g>
		<defs>
			<filter id="Adobe_OpacityMaskFilter_10_" filterUnits="userSpaceOnUse" x="781" y="136.3" width="190.9" height="230.4">
				<feColorMatrix  type="matrix" values="1 0 0 0 0  0 1 0 0 0  0 0 1 0 0  0 0 0 1 0"/>
			</filter>
		</defs>
		<mask maskUnits="userSpaceOnUse" x="781" y="136.3" width="190.9" height="230.4" id="SVGID_11_">
			<g class="st24">
				
					<image style="overflow:visible;" width="191.2" height="230.7" xlink:href="B34E8AB2.png"  transform="matrix(1 0 0 1 780.8184 136.1381)"/>
			</g>
		</mask>
		<rect x="781" y="136.3" class="st25" width="190.9" height="230.4"/>
		<defs>
			<filter id="Adobe_OpacityMaskFilter_11_" filterUnits="userSpaceOnUse" x="781" y="136.3" width="190.9" height="230.4">
				<feColorMatrix  type="matrix" values="1 0 0 0 0  0 1 0 0 0  0 0 1 0 0  0 0 0 1 0"/>
			</filter>
		</defs>
		<mask maskUnits="userSpaceOnUse" x="781" y="136.3" width="190.9" height="230.4" id="SVGID_12_">
			<g class="st26">
				
					<image style="overflow:visible;" width="191.2" height="230.7" xlink:href="B34E8AB0.png"  transform="matrix(1 0 0 1 780.8184 136.1381)"/>
			</g>
		</mask>
		<rect x="781" y="136.3" class="st27" width="190.9" height="230.4"/>
		<g>
			<g>
				<path class="st6" d="M906.1,212.7c5.8,0,10.5-4.7,10.5-10.5c0-5.8-4.7-10.5-10.5-10.5h-59.1c-5.8,0-10.5,4.7-10.5,10.5v98.5
					c0,5.8,4.7,10.5,10.5,10.5c5.8,0,10.5-4.7,10.5-10.5v-44.3c1.8,3.3,5.2,5.6,9.2,5.6h28c5.8,0,10.5-4.7,10.5-10.5
					c0-5.8-4.7-10.5-10.5-10.5h-28c-4,0-7.5,2.3-9.2,5.6v-34.1H906.1z"/>
			</g>
			<g>
				<g>
					<path class="st3" d="M912.8,202.3c0-3.7-3-6.8-6.8-6.8h-59.1c-3.7,0-6.8,3-6.8,6.8v98.5c0,3.7,3,6.8,6.8,6.8
						c3.7,0,6.8-3,6.8-6.8V209h52.4C909.8,209,912.8,206,912.8,202.3z"/>
				</g>
				<g>
					<path class="st3" d="M866.6,244.9c-3.7,0-6.8,3-6.8,6.8s3,6.8,6.8,6.8h28c3.7,0,6.8-3,6.8-6.8s-3-6.8-6.8-6.8H866.6z"/>
				</g>
			</g>
			<g>
				<g>
					<g>
						<path class="st7" d="M846.9,305.7c-2.7,0-4.9-2.2-4.9-4.9v-98.5c0-2.7,2.2-4.9,4.9-4.9h59.1c2.7,0,4.9,2.2,4.9,4.9
							c0,2.7-2.2,4.9-4.9,4.9h-54.2v93.6C851.8,303.5,849.6,305.7,846.9,305.7z"/>
					</g>
				</g>
				<g>
					<g>
						<path class="st7" d="M894.7,256.6h-28c-2.7,0-4.9-2.2-4.9-4.9c0-2.7,2.2-4.9,4.9-4.9h28c2.7,0,4.9,2.2,4.9,4.9
							C899.6,254.4,897.4,256.6,894.7,256.6z"/>
					</g>
				</g>
			</g>
		</g>
	</g>
	<g>
		<defs>
			<filter id="Adobe_OpacityMaskFilter_12_" filterUnits="userSpaceOnUse" x="123.5" y="341.2" width="214.2" height="232.2">
				<feColorMatrix  type="matrix" values="1 0 0 0 0  0 1 0 0 0  0 0 1 0 0  0 0 0 1 0"/>
			</filter>
		</defs>
		<mask maskUnits="userSpaceOnUse" x="123.5" y="341.2" width="214.2" height="232.2" id="SVGID_13_">
			<g class="st28">
				
					<image style="overflow:visible;" width="214.5" height="232.5" xlink:href="B34E8AB1.png"  transform="matrix(1 0 0 1 123.319 341.0401)"/>
			</g>
		</mask>
		<rect x="123.5" y="341.2" class="st29" width="214.2" height="232.2"/>
		<defs>
			<filter id="Adobe_OpacityMaskFilter_13_" filterUnits="userSpaceOnUse" x="123.5" y="341.2" width="214.2" height="232.2">
				<feColorMatrix  type="matrix" values="1 0 0 0 0  0 1 0 0 0  0 0 1 0 0  0 0 0 1 0"/>
			</filter>
		</defs>
		<mask maskUnits="userSpaceOnUse" x="123.5" y="341.2" width="214.2" height="232.2" id="SVGID_14_">
			<g class="st30">
				
					<image style="overflow:visible;" width="214.5" height="232.5" xlink:href="B34E8A86.png"  transform="matrix(1 0 0 1 123.319 341.0401)"/>
			</g>
		</mask>
		<rect x="123.5" y="341.2" class="st31" width="214.2" height="232.2"/>
		<g>
			<g>
				<path class="st6" d="M238.5,518c16,0,29.5-5,40.3-14.7c2.5-2.3,3.7-5.7,3.3-9.1c0.1-0.5,0.1-1.1,0.1-1.6v-15.1
					c0-3.9-2.1-7.3-5.3-9.1c3.2-1.8,5.3-5.2,5.3-9.1c0-5.8-4.7-10.5-10.5-10.5h-29.3c-5.8,0-10.5,4.7-10.5,10.5
					c0,5.8,4.7,10.5,10.5,10.5h22.3c-2.1,1.9-3.4,4.7-3.4,7.7v13.1c-6.3,4.4-13.7,6.6-22.8,6.6c-10.6,0-19.5-3.7-27.2-11.2
					c-7.6-7.5-11.4-16.8-11.4-28.6c0-11.7,3.7-21,11.4-28.5c7.8-7.6,17-11.2,28.4-11.2c8.6,0,16.2,2.2,22.8,6.5
					c1.7,1.1,3.7,1.7,5.7,1.7c3.5,0,6.8-1.8,8.7-4.7c3.2-4.8,1.8-11.3-3-14.5c-10-6.6-21.5-9.9-34.2-9.9c-16.8,0-31.3,5.8-43,17.2
					c-11.8,11.5-17.7,26.1-17.7,43.5c0,17.4,5.9,32,17.6,43.5C208.2,512.2,222.3,518,238.5,518z"/>
			</g>
			<g>
				<g>
					<path class="st3" d="M238.5,514.3c15,0,27.8-4.6,37.8-13.8c1.8-1.7,2.5-4.1,2-6.4c0.1-0.5,0.2-1,0.2-1.5v-15.1
						c0-3.7-3-6.8-6.8-6.8c-3.7,0-6.8,3-6.8,6.8v14.9c-7.2,5.6-15.9,8.4-26.5,8.4c-11.6,0-21.4-4-29.8-12.3
						c-8.4-8.2-12.5-18.4-12.5-31.2c0-12.8,4.1-23,12.5-31.2c8.5-8.3,18.6-12.3,30.9-12.3c9.3,0,17.6,2.4,24.8,7.1
						c1.1,0.7,2.4,1.1,3.7,1.1c2.3,0,4.4-1.1,5.7-3.1c2-3.1,1.2-7.3-1.9-9.4c-9.4-6.1-20.2-9.3-32.2-9.3c-15.8,0-29.4,5.4-40.4,16.1
						c-11,10.8-16.6,24.5-16.6,40.9c0,16.4,5.6,30.1,16.5,40.8C210.1,508.9,223.3,514.3,238.5,514.3z"/>
				</g>
				<g>
					<path class="st3" d="M242.4,452.5c-3.7,0-6.8,3-6.8,6.8c0,3.7,3,6.8,6.8,6.8h29.3c3.7,0,6.8-3,6.8-6.8c0-3.7-3-6.8-6.8-6.8
						H242.4z"/>
				</g>
			</g>
			<g>
				<g>
					<path class="st7" d="M271.7,464.2h-29.3c-2.7,0-4.9-2.2-4.9-4.9c0-2.7,2.2-4.9,4.9-4.9h29.3c2.7,0,4.9,2.2,4.9,4.9
						C276.6,462,274.4,464.2,271.7,464.2z"/>
				</g>
			</g>
			<g>
				<path class="st7" d="M276.6,477.4c0-2.7-2.2-4.9-4.9-4.9c-2.7,0-4.9,2.2-4.9,4.9v15.1c0,0.2,0,0.4,0.1,0.7
					c-7.7,6.3-17,9.4-28.4,9.4c-12.1,0-22.3-4.2-31.1-12.8c-8.8-8.6-13-19.2-13-32.5c0-13.3,4.3-23.9,13.1-32.5
					c8.8-8.6,19.4-12.8,32.2-12.8c9.7,0,18.3,2.5,25.8,7.4c2.3,1.5,5.3,0.9,6.8-1.4c1.5-2.3,0.9-5.3-1.4-6.8c-9.1-5.9-19.6-9-31.2-9
					c-15.3,0-28.5,5.3-39.1,15.6c-10.6,10.4-16,23.7-16,39.5c0,15.8,5.4,29.1,16,39.5c10.6,10.4,23.3,15.6,38,15.6
					c14.6,0,26.9-4.5,36.6-13.3c1.5-1.3,1.9-3.4,1.4-5.1c0.1-0.5,0.2-0.9,0.2-1.5V477.4z"/>
			</g>
		</g>
	</g>
	<g>
		<defs>
			<filter id="Adobe_OpacityMaskFilter_14_" filterUnits="userSpaceOnUse" x="265.1" y="343.5" width="194.4" height="229.9">
				<feColorMatrix  type="matrix" values="1 0 0 0 0  0 1 0 0 0  0 0 1 0 0  0 0 0 1 0"/>
			</filter>
		</defs>
		<mask maskUnits="userSpaceOnUse" x="265.1" y="343.5" width="194.4" height="229.9" id="SVGID_15_">
			<g class="st32">
				
					<image style="overflow:visible;" width="194.7" height="230.1" xlink:href="B34E8A87.png"  transform="matrix(1 0 0 1 265.1156 343.4797)"/>
			</g>
		</mask>
		<rect x="265.1" y="343.5" class="st33" width="194.4" height="229.9"/>
		<defs>
			<filter id="Adobe_OpacityMaskFilter_15_" filterUnits="userSpaceOnUse" x="265.1" y="343.5" width="194.4" height="229.9">
				<feColorMatrix  type="matrix" values="1 0 0 0 0  0 1 0 0 0  0 0 1 0 0  0 0 0 1 0"/>
			</filter>
		</defs>
		<mask maskUnits="userSpaceOnUse" x="265.1" y="343.5" width="194.4" height="229.9" id="SVGID_16_">
			<g class="st34">
				
					<image style="overflow:visible;" width="194.7" height="230.1" xlink:href="B34E8A88.png"  transform="matrix(1 0 0 1 265.1156 343.4797)"/>
			</g>
		</mask>
		<rect x="265.1" y="343.5" class="st35" width="194.4" height="229.9"/>
		<g>
			<g>
				<path class="st6" d="M393.7,518c5.8,0,10.5-4.7,10.5-10.5v-98.2c0-5.8-4.7-10.5-10.5-10.5c-5.8,0-10.5,4.7-10.5,10.5v43
					c-1.7-3.4-5.3-5.8-9.3-5.8h-32.5v-37.2c0-5.8-4.7-10.5-10.5-10.5c-5.8,0-10.5,4.7-10.5,10.5v98.2c0,5.8,4.7,10.5,10.5,10.5
					c5.8,0,10.5-4.7,10.5-10.5v-40.1H374c4.1,0,7.6-2.4,9.3-5.8v45.9C383.3,513.3,388,518,393.7,518z"/>
			</g>
			<g>
				<g>
					<path class="st3" d="M331,402.6c-3.7,0-6.8,3-6.8,6.8v98.2c0,3.7,3,6.8,6.8,6.8c3.7,0,6.8-3,6.8-6.8v-43.8H374
						c3.7,0,6.8-3,6.8-6.8c0-3.7-3-6.8-6.8-6.8h-36.2v-40.9C337.8,405.6,334.7,402.6,331,402.6z"/>
				</g>
				<g>
					<path class="st3" d="M400.5,507.6v-98.2c0-3.7-3-6.8-6.8-6.8c-3.7,0-6.8,3-6.8,6.8v98.2c0,3.7,3,6.8,6.8,6.8
						C397.5,514.3,400.5,511.3,400.5,507.6z"/>
				</g>
			</g>
			<g>
				<g>
					<path class="st7" d="M374,452.1h-38v-42.7c0-2.7-2.2-4.9-4.9-4.9c-2.7,0-4.9,2.2-4.9,4.9v98.2c0,2.7,2.2,4.9,4.9,4.9
						c2.7,0,4.9-2.2,4.9-4.9v-45.7h38c2.7,0,4.9-2.2,4.9-4.9C378.9,454.3,376.7,452.1,374,452.1z"/>
				</g>
				<g>
					<g>
						<path class="st7" d="M393.7,512.5c-2.7,0-4.9-2.2-4.9-4.9v-98.2c0-2.7,2.2-4.9,4.9-4.9c2.7,0,4.9,2.2,4.9,4.9v98.2
							C398.7,510.3,396.5,512.5,393.7,512.5z"/>
					</g>
				</g>
			</g>
		</g>
	</g>
	<g>
		<defs>
			<filter id="Adobe_OpacityMaskFilter_16_" filterUnits="userSpaceOnUse" x="389.7" y="343.3" width="131.9" height="230.1">
				<feColorMatrix  type="matrix" values="1 0 0 0 0  0 1 0 0 0  0 0 1 0 0  0 0 0 1 0"/>
			</filter>
		</defs>
		<mask maskUnits="userSpaceOnUse" x="389.7" y="343.3" width="131.9" height="230.1" id="SVGID_17_">
			<g class="st36">
				
					<image style="overflow:visible;" width="132.2" height="230.4" xlink:href="B34E8A89.png"  transform="matrix(1 0 0 1 389.528 343.1055)"/>
			</g>
		</mask>
		<rect x="389.7" y="343.3" class="st37" width="131.9" height="230.1"/>
		<defs>
			<filter id="Adobe_OpacityMaskFilter_17_" filterUnits="userSpaceOnUse" x="389.7" y="343.3" width="131.9" height="230.1">
				<feColorMatrix  type="matrix" values="1 0 0 0 0  0 1 0 0 0  0 0 1 0 0  0 0 0 1 0"/>
			</filter>
		</defs>
		<mask maskUnits="userSpaceOnUse" x="389.7" y="343.3" width="131.9" height="230.1" id="SVGID_18_">
			<g class="st38">
				
					<image style="overflow:visible;" width="132.2" height="230.4" xlink:href="B34E8A8A.png"  transform="matrix(1 0 0 1 389.528 343.1055)"/>
			</g>
		</mask>
		<rect x="389.7" y="343.3" class="st39" width="131.9" height="230.1"/>
		<g>
			<path class="st6" d="M455.6,517.9c5.8,0,10.5-4.7,10.5-10.5v-98.2c0-5.8-4.7-10.5-10.5-10.5c-5.8,0-10.5,4.7-10.5,10.5v98.2
				C445.2,513.2,449.9,517.9,455.6,517.9z"/>
			<g>
				<path class="st3" d="M455.6,514.2c3.7,0,6.8-3,6.8-6.8v-98.2c0-3.7-3-6.8-6.8-6.8c-3.7,0-6.8,3-6.8,6.8v98.2
					C448.9,511.2,451.9,514.2,455.6,514.2z"/>
			</g>
			<g>
				<g>
					<path class="st7" d="M455.6,512.4c-2.7,0-4.9-2.2-4.9-4.9v-98.2c0-2.7,2.2-4.9,4.9-4.9c2.7,0,4.9,2.2,4.9,4.9v98.2
						C460.5,510.2,458.3,512.4,455.6,512.4z"/>
				</g>
			</g>
		</g>
	</g>
	<g>
		<defs>
			<filter id="Adobe_OpacityMaskFilter_18_" filterUnits="userSpaceOnUse" x="441.2" y="342.4" width="193.3" height="231">
				<feColorMatrix  type="matrix" values="1 0 0 0 0  0 1 0 0 0  0 0 1 0 0  0 0 0 1 0"/>
			</filter>
		</defs>
		<mask maskUnits="userSpaceOnUse" x="441.2" y="342.4" width="193.3" height="231" id="SVGID_19_">
			<g class="st40">
				
					<image style="overflow:visible;" width="193.6" height="231.3" xlink:href="B34E8A8B.png"  transform="matrix(1 0 0 1 441.0221 342.2203)"/>
			</g>
		</mask>
		<rect x="441.2" y="342.4" class="st41" width="193.3" height="231"/>
		<defs>
			<filter id="Adobe_OpacityMaskFilter_19_" filterUnits="userSpaceOnUse" x="441.2" y="342.4" width="193.3" height="231">
				<feColorMatrix  type="matrix" values="1 0 0 0 0  0 1 0 0 0  0 0 1 0 0  0 0 0 1 0"/>
			</filter>
		</defs>
		<mask maskUnits="userSpaceOnUse" x="441.2" y="342.4" width="193.3" height="231" id="SVGID_20_">
			<g class="st42">
				
					<image style="overflow:visible;" width="193.6" height="231.3" xlink:href="B34E8AE6.png"  transform="matrix(1 0 0 1 441.0221 342.2203)"/>
			</g>
		</mask>
		<rect x="441.2" y="342.4" class="st43" width="193.3" height="231"/>
		<g>
			<path class="st6" d="M508.6,507.1c7.7,7.2,17.5,10.8,29.2,10.8c11.7,0,21.5-3.7,29.2-10.9c7.8-7.4,11.8-17.4,11.8-29.8v-68.9
				c0-5.8-4.7-10.5-10.5-10.5c-5.8,0-10.5,4.7-10.5,10.5v68.9c0,6.5-1.7,11.3-5.2,14.6c-3.7,3.5-8.6,5.2-14.9,5.2
				c-6.3,0-11.2-1.7-15-5.2c-3.5-3.3-5.3-8.1-5.3-14.6c0-5.8-4.7-10.5-10.5-10.5c-5.8,0-10.5,4.7-10.5,10.5
				C496.7,489.7,500.8,499.7,508.6,507.1z"/>
			<g>
				<path class="st3" d="M511.2,504.4c7,6.5,16,9.8,26.7,9.8c10.7,0,19.7-3.3,26.7-9.9c7.1-6.7,10.6-15.8,10.6-27.2v-68.9
					c0-3.7-3-6.8-6.8-6.8c-3.7,0-6.8,3-6.8,6.8v68.9c0,7.6-2.1,13.3-6.4,17.3c-4.4,4.2-10.1,6.2-17.4,6.2c-7.3,0-13-2-17.5-6.2
					c-4.3-4-6.4-9.7-6.4-17.3c0-3.7-3-6.8-6.8-6.8c-3.7,0-6.8,3-6.8,6.8C500.4,488.6,504,497.8,511.2,504.4z"/>
			</g>
			<g>
				<g>
					<path class="st7" d="M537.9,512.4c-10.3,0-18.8-3.1-25.4-9.3c-6.7-6.3-10.1-15-10.1-25.8c0-2.7,2.2-4.9,4.9-4.9
						s4.9,2.2,4.9,4.9c0,8.1,2.3,14.2,7,18.6c4.8,4.5,10.9,6.7,18.7,6.7c7.8,0,13.9-2.2,18.6-6.7c4.7-4.4,7-10.5,7-18.7v-68.9
						c0-2.7,2.2-4.9,4.9-4.9c2.7,0,4.9,2.2,4.9,4.9v68.9c0,10.8-3.4,19.5-10.1,25.8C556.7,509.3,548.1,512.4,537.9,512.4z"/>
				</g>
			</g>
		</g>
	</g>
	<g>
		<defs>
			<filter id="Adobe_OpacityMaskFilter_20_" filterUnits="userSpaceOnUse" x="567.4" y="343.3" width="194.4" height="230.1">
				<feColorMatrix  type="matrix" values="1 0 0 0 0  0 1 0 0 0  0 0 1 0 0  0 0 0 1 0"/>
			</filter>
		</defs>
		<mask maskUnits="userSpaceOnUse" x="567.4" y="343.3" width="194.4" height="230.1" id="SVGID_21_">
			<g class="st44">
				
					<image style="overflow:visible;" width="194.7" height="230.4" xlink:href="B34E8AE0.png"  transform="matrix(1 0 0 1 567.3261 343.0072)"/>
			</g>
		</mask>
		<rect x="567.4" y="343.3" class="st45" width="194.4" height="230.1"/>
		<defs>
			<filter id="Adobe_OpacityMaskFilter_21_" filterUnits="userSpaceOnUse" x="567.4" y="343.3" width="194.4" height="230.1">
				<feColorMatrix  type="matrix" values="1 0 0 0 0  0 1 0 0 0  0 0 1 0 0  0 0 0 1 0"/>
			</filter>
		</defs>
		<mask maskUnits="userSpaceOnUse" x="567.4" y="343.3" width="194.4" height="230.1" id="SVGID_22_">
			<g class="st46">
				
					<image style="overflow:visible;" width="194.7" height="230.4" xlink:href="B34E8AE1.png"  transform="matrix(1 0 0 1 567.3261 343.0072)"/>
			</g>
		</mask>
		<rect x="567.4" y="343.3" class="st47" width="194.4" height="230.1"/>
		<g>
			<g>
				<path class="st6" d="M667,458.4l36.7-42.4c3.8-4.4,3.3-11-1.1-14.7c-1.9-1.6-4.3-2.6-6.8-2.6h0c-3,0-5.9,1.3-7.9,3.6l-42.6,49.2
					c-0.6,0.7-1,1.4-1.4,2.1v-44.5c0-5.8-4.7-10.5-10.5-10.5c-5.8,0-10.5,4.7-10.5,10.5v98.2c0,5.8,4.7,10.5,10.5,10.5
					c5.8,0,10.5-4.7,10.5-10.5v-44.2c0.4,0.8,0.9,1.5,1.4,2.1l42.6,49c2,2.3,4.9,3.6,7.9,3.6c2.5,0,5-0.9,6.9-2.6
					c2.1-1.8,3.4-4.4,3.6-7.2c0.2-2.8-0.7-5.5-2.5-7.6L667,458.4z"/>
			</g>
			<g>
				<g>
					<path class="st3" d="M640.2,507.4v-98.2c0-3.7-3-6.8-6.8-6.8s-6.8,3-6.8,6.8v98.2c0,3.7,3,6.8,6.8,6.8S640.2,511.2,640.2,507.4
						z"/>
				</g>
				<g>
					<path class="st3" d="M662.1,458.5l38.8-44.8c2.4-2.8,2.1-7.1-0.7-9.5c-1.2-1.1-2.8-1.6-4.4-1.6h0c-2,0-3.8,0.9-5.1,2.3L648,454
						c-2.2,2.5-2.2,6.3,0,8.9l42.6,49c1.3,1.5,3.1,2.3,5.1,2.3c1.6,0,3.2-0.6,4.4-1.7c1.4-1.2,2.2-2.8,2.3-4.6
						c0.1-1.8-0.5-3.5-1.6-4.9L662.1,458.5z"/>
				</g>
			</g>
			<g>
				<g>
					<g>
						<path class="st7" d="M633.4,512.4c-2.7,0-4.9-2.2-4.9-4.9v-98.2c0-2.7,2.2-4.9,4.9-4.9c2.7,0,4.9,2.2,4.9,4.9v98.2
							C638.3,510.2,636.1,512.4,633.4,512.4z"/>
					</g>
				</g>
				<g>
					<g>
						<path class="st7" d="M695.8,512.4c-1.4,0-2.7-0.6-3.7-1.7l-42.6-49c-1.6-1.8-1.6-4.6,0-6.4l42.6-49.2c1.8-2.1,4.9-2.3,6.9-0.5
							c2.1,1.8,2.3,4.9,0.5,6.9l-39.8,46l39.8,45.7c1.8,2,1.6,5.2-0.5,6.9C698.1,512,696.9,512.4,695.8,512.4z"/>
					</g>
				</g>
			</g>
		</g>
	</g>
	<g>
		<defs>
			<filter id="Adobe_OpacityMaskFilter_22_" filterUnits="userSpaceOnUse" x="689.7" y="343.3" width="181.5" height="230.1">
				<feColorMatrix  type="matrix" values="1 0 0 0 0  0 1 0 0 0  0 0 1 0 0  0 0 0 1 0"/>
			</filter>
		</defs>
		<mask maskUnits="userSpaceOnUse" x="689.7" y="343.3" width="181.5" height="230.1" id="SVGID_23_">
			<g class="st48">
				
					<image style="overflow:visible;" width="181.8" height="230.4" xlink:href="B34E8AE2.png"  transform="matrix(1 0 0 1 689.5198 343.1055)"/>
			</g>
		</mask>
		<rect x="689.7" y="343.3" class="st49" width="181.5" height="230.1"/>
		<defs>
			<filter id="Adobe_OpacityMaskFilter_23_" filterUnits="userSpaceOnUse" x="689.7" y="343.3" width="181.5" height="230.1">
				<feColorMatrix  type="matrix" values="1 0 0 0 0  0 1 0 0 0  0 0 1 0 0  0 0 0 1 0"/>
			</filter>
		</defs>
		<mask maskUnits="userSpaceOnUse" x="689.7" y="343.3" width="181.5" height="230.1" id="SVGID_24_">
			<g class="st50">
				
					<image style="overflow:visible;" width="181.8" height="230.4" xlink:href="B34E8AE3.png"  transform="matrix(1 0 0 1 689.5198 343.1055)"/>
			</g>
		</mask>
		<rect x="689.7" y="343.3" class="st51" width="181.5" height="230.1"/>
		<g>
			<path class="st6" d="M755.7,398.8c-5.8,0-10.5,4.7-10.5,10.5v98.2c0,5.8,4.7,10.5,10.5,10.5h49.4c5.8,0,10.5-4.7,10.5-10.5
				c0-5.8-4.7-10.5-10.5-10.5h-38.9v-87.8C766.2,403.5,761.5,398.8,755.7,398.8z"/>
			<g>
				<path class="st3" d="M755.7,402.5c-3.7,0-6.8,3-6.8,6.8v98.2c0,3.7,3,6.8,6.8,6.8h49.4c3.7,0,6.8-3,6.8-6.8c0-3.7-3-6.8-6.8-6.8
					h-42.6v-91.5C762.5,405.5,759.4,402.5,755.7,402.5z"/>
			</g>
			<g>
				<g>
					<path class="st7" d="M805.1,512.4h-49.4c-2.7,0-4.9-2.2-4.9-4.9v-98.2c0-2.7,2.2-4.9,4.9-4.9c2.7,0,4.9,2.2,4.9,4.9v93.3h44.5
						c2.7,0,4.9,2.2,4.9,4.9S807.8,512.4,805.1,512.4z"/>
				</g>
			</g>
		</g>
	</g>
	<g>
		<defs>
			<filter id="Adobe_OpacityMaskFilter_24_" filterUnits="userSpaceOnUse" x="778.4" y="343.3" width="220.1" height="230.1">
				<feColorMatrix  type="matrix" values="1 0 0 0 0  0 1 0 0 0  0 0 1 0 0  0 0 0 1 0"/>
			</filter>
		</defs>
		<mask maskUnits="userSpaceOnUse" x="778.4" y="343.3" width="220.1" height="230.1" id="SVGID_25_">
			<g class="st52">
				
					<image style="overflow:visible;" width="220.4" height="230.4" xlink:href="B34E8AE4.png"  transform="matrix(1 0 0 1 778.2688 343.1055)"/>
			</g>
		</mask>
		<rect x="778.4" y="343.3" class="st53" width="220.1" height="230.1"/>
		<defs>
			<filter id="Adobe_OpacityMaskFilter_25_" filterUnits="userSpaceOnUse" x="778.4" y="343.3" width="220.1" height="230.1">
				<feColorMatrix  type="matrix" values="1 0 0 0 0  0 1 0 0 0  0 0 1 0 0  0 0 0 1 0"/>
			</filter>
		</defs>
		<mask maskUnits="userSpaceOnUse" x="778.4" y="343.3" width="220.1" height="230.1" id="SVGID_26_">
			<g class="st54">
				
					<image style="overflow:visible;" width="220.4" height="230.4" xlink:href="B34E8AE5.png"  transform="matrix(1 0 0 1 778.2688 343.1055)"/>
			</g>
		</mask>
		<rect x="778.4" y="343.3" class="st55" width="220.1" height="230.1"/>
		<g>
			<g>
				<path class="st6" d="M844.3,517.9c5.8,0,10.5-4.7,10.5-10.5v-50.8l25.6,55.2c1.7,3.7,5.4,6.1,9.5,6.1c1.5,0,3-0.3,4.4-1
					c5.2-2.4,7.5-8.6,5.1-13.9l-5.6-12c0.3,0.2,0.5,0.3,0.8,0.4c1.4,0.6,2.9,1,4.4,1c4.1,0,7.8-2.4,9.5-6.1l13.8-29.7v50.8
					c0,5.8,4.7,10.5,10.5,10.5c5.8,0,10.5-4.7,10.5-10.5v-98.2c0-4.9-3.4-9.2-8.2-10.2c-0.7-0.2-1.5-0.2-2.3-0.2
					c-4.1,0-7.8,2.4-9.5,6.1l-33.7,72.7c-0.4,0.8-0.6,1.7-0.8,2.5l-34.9-75.3c-1.7-3.7-5.4-6.1-9.5-6.1c-0.8,0-1.5,0.1-2.3,0.2
					c-4.7,1-8.2,5.3-8.2,10.2v98.2C833.9,513.2,838.6,517.9,844.3,517.9z"/>
			</g>
			<g>
				<g>
					<path class="st3" d="M844.3,514.2c3.7,0,6.8-3,6.8-6.8v-67.5l32.6,70.4c1.1,2.4,3.5,3.9,6.1,3.9c1,0,1.9-0.2,2.8-0.6
						c3.4-1.6,4.9-5.6,3.3-9l-45.5-98.2c-1.1-2.4-3.5-3.9-6.1-3.9c-0.5,0-1,0.1-1.5,0.2c-3.1,0.7-5.3,3.5-5.3,6.6v98.2
						C837.6,511.2,840.6,514.2,844.3,514.2z"/>
				</g>
				<g>
					<path class="st3" d="M926.5,406.4l-33.7,72.7c-1.6,3.4-0.1,7.4,3.3,9c0.9,0.4,1.9,0.6,2.8,0.6c2.6,0,5-1.5,6.1-3.9l20.8-44.9
						v67.5c0,3.7,3,6.8,6.8,6.8c3.7,0,6.8-3,6.8-6.8v-98.2c0-3.1-2.2-5.9-5.3-6.6c-0.5-0.1-1-0.2-1.5-0.2
						C930,402.5,927.6,404,926.5,406.4z"/>
				</g>
			</g>
			<g>
				<g>
					<g>
						<path class="st7" d="M889.8,512.4c-1.9,0-3.6-1.1-4.5-2.9l-36.1-78v75.9c0,2.7-2.2,4.9-4.9,4.9c-2.7,0-4.9-2.2-4.9-4.9v-98.2
							c0-2.3,1.6-4.3,3.9-4.8c2.2-0.5,4.5,0.6,5.5,2.7l45.5,98.2c1.1,2.5,0.1,5.4-2.4,6.5C891.2,512.2,890.5,512.4,889.8,512.4z"/>
					</g>
				</g>
				<g>
					<g>
						<path class="st7" d="M932.6,512.4c-2.7,0-4.9-2.2-4.9-4.9v-75.9L903.4,484c-1.1,2.5-4.1,3.5-6.5,2.4c-2.5-1.1-3.5-4.1-2.4-6.5
							l33.7-72.7c1-2.1,3.3-3.2,5.5-2.7c2.3,0.5,3.9,2.5,3.9,4.8v98.2C937.5,510.2,935.3,512.4,932.6,512.4z"/>
					</g>
				</g>
			</g>
		</g>
	</g>
	<g>
		<defs>
			<filter id="Adobe_OpacityMaskFilter_26_" filterUnits="userSpaceOnUse" x="246.7" y="552" width="232.8" height="232.8">
				<feColorMatrix  type="matrix" values="1 0 0 0 0  0 1 0 0 0  0 0 1 0 0  0 0 0 1 0"/>
			</filter>
		</defs>
		<mask maskUnits="userSpaceOnUse" x="246.7" y="552" width="232.8" height="232.8" id="SVGID_27_">
			<g class="st56">
				
					<image style="overflow:visible;" width="233.1" height="233.1" xlink:href="B34E8AFE.png"  transform="matrix(1 0 0 1 246.5343 551.8366)"/>
			</g>
		</mask>
		<rect x="246.7" y="552" class="st57" width="232.8" height="232.8"/>
		<defs>
			<filter id="Adobe_OpacityMaskFilter_27_" filterUnits="userSpaceOnUse" x="246.7" y="552" width="232.8" height="232.8">
				<feColorMatrix  type="matrix" values="1 0 0 0 0  0 1 0 0 0  0 0 1 0 0  0 0 0 1 0"/>
			</filter>
		</defs>
		<mask maskUnits="userSpaceOnUse" x="246.7" y="552" width="232.8" height="232.8" id="SVGID_28_">
			<g class="st58">
				
					<image style="overflow:visible;" width="233.1" height="233.1" xlink:href="B34E8AFF.png"  transform="matrix(1 0 0 1 246.5343 551.8366)"/>
			</g>
		</mask>
		<rect x="246.7" y="552" class="st59" width="232.8" height="232.8"/>
		<g>
			<path class="st6" d="M303.4,657.3c-3.2,17.1,0,32.6,9.4,46c9.4,13.3,22.6,21.7,39.2,24.7c4.1,0.8,8.3,1.2,12.2,1.2
				c12,0,23.1-3.4,33.2-10.2c13.6-9.2,22.1-22.5,25.3-39.6c3.2-17.1,0-32.6-9.4-46c-9.4-13.3-22.5-21.7-39.1-24.7
				c-4.1-0.8-8.3-1.2-12.2-1.2c-0.6,0-1.3,0-1.9,0c-2.8,0.1-5.4,1.3-7.3,3.3c-1.9,2-2.9,4.7-2.8,7.5c0.2,5.7,4.8,10.1,10.4,10.1
				c0.1,0,0.2,0,0.4,0c0.4,0,0.8,0,1.3,0c2.7,0,5.5,0.3,8.4,0.8c11.2,2.1,19.6,7.4,25.8,16.2c6.2,8.8,8.1,18.6,6,30.2
				c-2.1,11.6-7.5,20.1-16.4,26.1c-6.7,4.5-13.7,6.7-21.5,6.7c-2.7,0-5.6-0.3-8.5-0.8c-11.2-2.1-19.7-7.4-25.9-16.2
				c-6.2-8.8-8.1-18.6-6-30.2c2.1-11.6,7.5-20.1,16.4-26.1c4.8-3.2,6.1-9.7,2.9-14.5c-1.9-2.9-5.2-4.6-8.7-4.6
				c-2.1,0-4.1,0.6-5.8,1.8C315.1,626.9,306.6,640.2,303.4,657.3z"/>
			<g>
				<path class="st3" d="M307,658c-3,16.1,0,30.7,8.8,43.2c8.8,12.5,21.2,20.3,36.9,23.2c3.9,0.7,7.8,1.1,11.6,1.1
					c11.2,0,21.7-3.2,31.2-9.6c12.7-8.6,20.7-21.1,23.7-37.2c3-16.1,0-30.7-8.8-43.2c-8.8-12.5-21.2-20.3-36.8-23.2
					c-3.9-0.7-7.8-1.1-11.6-1.1c-0.6,0-1.2,0-1.8,0c-1.8,0.1-3.5,0.8-4.7,2.1c-1.2,1.3-1.9,3-1.8,4.8c0.1,3.7,3.1,6.6,6.7,6.6
					c0.1,0,0.2,0,0.2,0c0.5,0,0.9,0,1.4,0c2.9,0,6,0.3,9.1,0.9c12.2,2.3,21.4,8,28.2,17.7c6.8,9.6,8.9,20.4,6.6,33
					c-2.3,12.6-8.2,21.9-17.9,28.5c-7.3,4.9-15,7.3-23.5,7.3c-2.9,0-6-0.3-9.2-0.9c-12.2-2.3-21.5-8.1-28.3-17.7
					c-6.8-9.6-8.9-20.4-6.6-33c2.3-12.6,8.2-21.9,18-28.5c3.1-2.1,3.9-6.3,1.9-9.4c-1.3-1.9-3.4-3-5.6-3c-1.3,0-2.6,0.4-3.8,1.1
					C318,629.3,310,641.9,307,658z"/>
			</g>
			<g>
				<g>
					<g>
						<path class="st7" d="M364.3,723.7c-3.7,0-7.4-0.4-11.2-1.1c-15.2-2.8-27.2-10.4-35.7-22.5c-8.5-12.1-11.4-26.2-8.5-41.8
							c2.9-15.6,10.6-27.7,23-36c2.3-1.5,5.3-0.9,6.8,1.3c1.5,2.3,0.9,5.3-1.3,6.8c-10.2,6.8-16.4,16.5-18.8,29.6
							c-2.4,13.1-0.2,24.4,6.9,34.4c7.1,10.1,16.7,16.1,29.4,18.5c12.7,2.4,23.9,0.2,34.1-6.7c10.2-6.9,16.3-16.6,18.7-29.7
							c2.4-13.1,0.2-24.4-6.9-34.4c-7.1-10.1-16.7-16.1-29.4-18.5c-3.7-0.7-7.4-1-10.9-0.9c-2.7,0.1-5-2-5.1-4.8
							c-0.1-2.7,2-5,4.8-5.1c4.2-0.1,8.6,0.2,13,1c15.1,2.8,27.1,10.4,35.6,22.5c8.5,12.1,11.4,26.2,8.5,41.8
							c-2.9,15.6-10.6,27.7-22.9,36C385.2,720.6,375.1,723.7,364.3,723.7z"/>
					</g>
				</g>
			</g>
		</g>
	</g>
	<g>
		<defs>
			<filter id="Adobe_OpacityMaskFilter_28_" filterUnits="userSpaceOnUse" x="134.1" y="554.6" width="196.2" height="230.1">
				<feColorMatrix  type="matrix" values="1 0 0 0 0  0 1 0 0 0  0 0 1 0 0  0 0 0 1 0"/>
			</filter>
		</defs>
		<mask maskUnits="userSpaceOnUse" x="134.1" y="554.6" width="196.2" height="230.1" id="SVGID_29_">
			<g class="st60">
				
					<image style="overflow:visible;" width="196.5" height="230.4" xlink:href="B34E8AF0.png"  transform="matrix(1 0 0 1 133.9866 554.5744)"/>
			</g>
		</mask>
		<rect x="134.1" y="554.6" class="st61" width="196.2" height="230.1"/>
		<defs>
			<filter id="Adobe_OpacityMaskFilter_29_" filterUnits="userSpaceOnUse" x="134.1" y="554.6" width="196.2" height="230.1">
				<feColorMatrix  type="matrix" values="1 0 0 0 0  0 1 0 0 0  0 0 1 0 0  0 0 0 1 0"/>
			</filter>
		</defs>
		<mask maskUnits="userSpaceOnUse" x="134.1" y="554.6" width="196.2" height="230.1" id="SVGID_30_">
			<g class="st62">
				
					<image style="overflow:visible;" width="196.5" height="230.4" xlink:href="B34E8AC6.png"  transform="matrix(1 0 0 1 133.9866 554.5744)"/>
			</g>
		</mask>
		<rect x="134.1" y="554.6" class="st63" width="196.2" height="230.1"/>
		<g>
			<g>
				<path class="st6" d="M200,729.4c5.8,0,10.5-4.7,10.5-10.5v-63.5l27.5,41.8c1.9,3,5.2,4.7,8.7,4.7c2,0,4-0.6,5.7-1.7
					c0.5-0.4,1-0.7,1.5-1.2V719c0,5.8,4.7,10.5,10.5,10.5c5.8,0,10.5-4.7,10.5-10.5v-98.5c0-5.8-4.7-10.5-10.5-10.5
					c-5.8,0-10.5,4.7-10.5,10.5v63l-45.1-68.7c-1.9-3-5.2-4.7-8.7-4.7c-1,0-2,0.1-3,0.4c-4.5,1.3-7.5,5.4-7.5,10V719
					C189.6,724.7,194.3,729.4,200,729.4z"/>
			</g>
			<g>
				<g>
					<path class="st3" d="M200,725.7c3.7,0,6.8-3,6.8-6.8v-75.9l34.2,52.1c1.3,1.9,3.4,3.1,5.7,3.1c1.3,0,2.6-0.4,3.7-1.1
						c1.5-1,2.5-2.5,2.9-4.3c0.4-1.8,0-3.6-1-5.1l-46.6-71.1c-1.3-1.9-3.4-3.1-5.7-3.1c-0.7,0-1.3,0.1-1.9,0.3
						c-2.9,0.9-4.8,3.5-4.8,6.5V719C193.3,722.7,196.3,725.7,200,725.7z"/>
				</g>
				<g>
					<path class="st3" d="M271.1,719v-98.5c0-3.7-3-6.8-6.8-6.8c-3.7,0-6.8,3-6.8,6.8V719c0,3.7,3,6.8,6.8,6.8
						C268.1,725.7,271.1,722.7,271.1,719z"/>
				</g>
			</g>
			<g>
				<g>
					<g>
						<path class="st7" d="M200,723.9c-2.7,0-4.9-2.2-4.9-4.9v-98.5c0-2.2,1.4-4.1,3.5-4.7c2.1-0.6,4.3,0.2,5.5,2l46.6,71.1
							c1.5,2.3,0.9,5.3-1.4,6.8c-2.3,1.5-5.3,0.9-6.8-1.4l-37.6-57.3v82C204.9,721.7,202.7,723.9,200,723.9z"/>
					</g>
				</g>
				<g>
					<g>
						<path class="st7" d="M264.3,723.9c-2.7,0-4.9-2.2-4.9-4.9v-98.5c0-2.7,2.2-4.9,4.9-4.9c2.7,0,4.9,2.2,4.9,4.9V719
							C269.2,721.7,267,723.9,264.3,723.9z"/>
					</g>
				</g>
			</g>
		</g>
	</g>
	<g>
		<defs>
			<filter id="Adobe_OpacityMaskFilter_30_" filterUnits="userSpaceOnUse" x="397.2" y="554.6" width="193.6" height="230.1">
				<feColorMatrix  type="matrix" values="1 0 0 0 0  0 1 0 0 0  0 0 1 0 0  0 0 0 1 0"/>
			</filter>
		</defs>
		<mask maskUnits="userSpaceOnUse" x="397.2" y="554.6" width="193.6" height="230.1" id="SVGID_31_">
			<g class="st64">
				
					<image style="overflow:visible;" width="193.9" height="230.4" xlink:href="B34E8AC7.png"  transform="matrix(1 0 0 1 397.0671 554.4922)"/>
			</g>
		</mask>
		<rect x="397.2" y="554.6" class="st65" width="193.6" height="230.1"/>
		<defs>
			<filter id="Adobe_OpacityMaskFilter_31_" filterUnits="userSpaceOnUse" x="397.2" y="554.6" width="193.6" height="230.1">
				<feColorMatrix  type="matrix" values="1 0 0 0 0  0 1 0 0 0  0 0 1 0 0  0 0 0 1 0"/>
			</filter>
		</defs>
		<mask maskUnits="userSpaceOnUse" x="397.2" y="554.6" width="193.6" height="230.1" id="SVGID_32_">
			<g class="st66">
				
					<image style="overflow:visible;" width="193.9" height="230.4" xlink:href="B34E8AC0.png"  transform="matrix(1 0 0 1 397.0671 554.4922)"/>
			</g>
		</mask>
		<rect x="397.2" y="554.6" class="st67" width="193.6" height="230.1"/>
		<g>
			<g>
				<path class="st6" d="M452.7,620.6v98.2c0,5.8,4.7,10.5,10.5,10.5c5.8,0,10.5-4.7,10.5-10.5v-34.4c1.7,3.4,5.2,5.7,9.3,5.7h6.5
					c7.7,0,14.7-1.2,20.7-3.4c6.5-2.5,11.7-6,15.4-10.5c6.5-7.8,9.9-16.9,9.9-27.1c0-10.7-4.2-20-12.6-27.7
					c-8.1-7.5-19.3-11.3-33.3-11.3h-6.5c-4.6,0-8.5,3-9.9,7.1c-1.4-4.1-5.3-7.1-9.9-7.1C457.4,610.2,452.7,614.8,452.7,620.6z
					 M482.9,631.1h6.5c8.6,0,15,1.9,19.2,5.7c4,3.7,5.9,7.6,5.9,12.4c0,5.2-1.7,9.7-5,13.7c-1.4,1.7-3.6,3.1-6.7,4.3
					c-3.6,1.4-8.1,2.1-13.3,2.1h-6.5c-4.1,0-7.6,2.3-9.3,5.7v-49.6C475.3,628.7,478.8,631.1,482.9,631.1z"/>
			</g>
			<g>
				<g>
					<path class="st3" d="M503.9,670.6c-4,1.5-8.9,2.3-14.6,2.3h-6.5c-3.7,0-6.8,3-6.8,6.8s3,6.8,6.8,6.8h6.5
						c7.3,0,13.8-1.1,19.4-3.2c5.9-2.2,10.6-5.4,13.8-9.4c6-7.1,9-15.4,9-24.7c0-9.6-3.8-18-11.4-25c-7.4-6.8-17.8-10.3-30.8-10.3
						h-6.5c-3.7,0-6.8,3-6.8,6.8s3,6.8,6.8,6.8h6.5c9.5,0,16.8,2.3,21.7,6.7c4.7,4.4,7,9.3,7,15.1c0,6.1-1.9,11.4-5.9,16.1
						C510.4,667.4,507.6,669.2,503.9,670.6z"/>
				</g>
				<g>
					<path class="st3" d="M463.1,613.8c-3.7,0-6.8,3-6.8,6.8v98.2c0,3.7,3,6.8,6.8,6.8c3.7,0,6.8-3,6.8-6.8v-98.2
						C469.9,616.9,466.9,613.8,463.1,613.8z"/>
				</g>
			</g>
			<g>
				<g>
					<path class="st7" d="M519,625.5c-7.1-6.5-17-9.8-29.6-9.8h-6.5c-2.7,0-4.9,2.2-4.9,4.9c0,2.7,2.2,4.9,4.9,4.9h6.5
						c10,0,17.7,2.4,22.9,7.2c5.1,4.7,7.6,10.1,7.6,16.4c0,6.6-2.1,12.2-6.3,17.3c-2,2.4-5,4.4-9,5.9c-4.3,1.6-9.4,2.4-15.2,2.4
						h-6.5c-2.7,0-4.9,2.2-4.9,4.9c0,2.7,2.2,4.9,4.9,4.9h6.5c7,0,13.3-1,18.7-3.1c5.6-2.1,10-5.1,13.1-8.8
						c5.7-6.8,8.6-14.7,8.6-23.6C529.8,640.1,526.1,632.1,519,625.5z"/>
				</g>
				<g>
					<path class="st7" d="M463.1,615.7c-2.7,0-4.9,2.2-4.9,4.9v98.2c0,2.7,2.2,4.9,4.9,4.9c2.7,0,4.9-2.2,4.9-4.9v-98.2
						C468.1,617.9,465.9,615.7,463.1,615.7z"/>
				</g>
			</g>
		</g>
	</g>
	<g>
		<defs>
			<filter id="Adobe_OpacityMaskFilter_32_" filterUnits="userSpaceOnUse" x="508.8" y="543.4" width="232.2" height="241.4">
				<feColorMatrix  type="matrix" values="1 0 0 0 0  0 1 0 0 0  0 0 1 0 0  0 0 0 1 0"/>
			</filter>
		</defs>
		<mask maskUnits="userSpaceOnUse" x="508.8" y="543.4" width="232.2" height="241.4" id="SVGID_33_">
			<g class="st68">
				
					<image style="overflow:visible;" width="232.5" height="241.7" xlink:href="B34E8AA7.png"  transform="matrix(1 0 0 1 508.6516 543.2798)"/>
			</g>
		</mask>
		<rect x="508.8" y="543.4" class="st69" width="232.2" height="241.4"/>
		<defs>
			<filter id="Adobe_OpacityMaskFilter_33_" filterUnits="userSpaceOnUse" x="508.8" y="543.4" width="232.2" height="241.4">
				<feColorMatrix  type="matrix" values="1 0 0 0 0  0 1 0 0 0  0 0 1 0 0  0 0 0 1 0"/>
			</filter>
		</defs>
		<mask maskUnits="userSpaceOnUse" x="508.8" y="543.4" width="232.2" height="241.4" id="SVGID_34_">
			<g class="st70">
				
					<image style="overflow:visible;" width="232.5" height="241.7" xlink:href="B34E8AA0.png"  transform="matrix(1 0 0 1 508.6516 543.2798)"/>
			</g>
		</mask>
		<rect x="508.8" y="543.4" class="st71" width="232.2" height="241.4"/>
		<g>
			<g>
				<path class="st6" d="M665.3,613.5c-11.2-9.8-24.6-14.7-39.8-14.7c-1.4,0-2.8,0-4.2,0.1c-16.9,1-31,7.6-42,19.7
					c-11,12.1-16,27.1-15,44.5c1,17.4,7.8,31.7,20.2,42.4c11.2,9.8,24.6,14.7,39.7,14.7c1.4,0,2.8,0,4.2-0.1
					c5.3-0.3,9.4-4.5,9.8-9.6l8.6,13.9c1.9,3.1,5.2,5,8.9,5c1.9,0,3.8-0.5,5.5-1.6c4.9-3,6.4-9.5,3.4-14.4l-6.6-10.7
					c1.4,0.7,3,1.1,4.7,1.1c2.9,0,5.8-1.2,7.7-3.4c11.1-12.2,16.1-27.1,15.1-44.6C684.4,638.5,677.7,624.3,665.3,613.5z M647,685.1
					c-1.9-3.1-5.2-5-8.9-5h0c-1.9,0-3.8,0.5-5.5,1.6c-4.9,3-6.4,9.5-3.4,14.4l2.5,4c-1.2-0.5-2.5-0.8-3.9-0.8c-0.2,0-0.4,0-0.7,0
					c-1,0.1-2,0.1-3,0.1c-10,0-18.5-3.1-25.9-9.6c-8.1-7-12.3-16.2-13-27.9c-0.7-11.7,2.4-21.3,9.6-29.3c7.2-8,16.3-12.2,27.7-12.9
					c1-0.1,2.1-0.1,3.1-0.1c10.1,0,18.6,3.1,26,9.6c8.1,7,12.3,16.2,13,27.9c0.7,11.7-2.5,21.3-9.7,29.2c-1.8,1.9-2.7,4.4-2.7,7
					L647,685.1z"/>
			</g>
			<g>
				<g>
					<path class="st3" d="M662.9,616.3c-10.5-9.2-23.1-13.8-37.4-13.8c-1.3,0-2.7,0-4,0.1c-15.9,0.9-29.2,7.2-39.4,18.5
						c-10.3,11.4-15,25.5-14.1,41.8c1,16.4,7.3,29.8,18.9,39.9c10.5,9.2,23.1,13.8,37.3,13.8c1.3,0,2.7,0,4-0.1
						c3.7-0.2,6.6-3.4,6.3-7.2c-0.2-3.6-3.2-6.4-6.7-6.4c-0.1,0-0.3,0-0.4,0c-1.1,0.1-2.2,0.1-3.3,0.1c-10.9,0-20.2-3.4-28.3-10.5
						c-8.9-7.7-13.5-17.7-14.3-30.5c-0.8-12.8,2.7-23.2,10.6-32c7.9-8.7,17.8-13.4,30.2-14.1c1.1-0.1,2.2-0.1,3.3-0.1
						c11,0,20.3,3.4,28.4,10.5c8.9,7.7,13.5,17.7,14.3,30.5c0.8,12.8-2.7,23.2-10.6,31.9c-1.2,1.3-1.8,3.1-1.8,4.9
						c0.1,1.8,0.9,3.5,2.2,4.7c1.2,1.1,2.9,1.8,4.5,1.8c1.9,0,3.7-0.8,5-2.2c10.4-11.4,15.1-25.5,14.1-41.8
						C680.8,639.8,674.5,626.4,662.9,616.3z"/>
				</g>
				<g>
					<path class="st3" d="M655.7,725.7c1.3,0,2.5-0.3,3.5-1c3.2-2,4.2-6.1,2.2-9.3L643.9,687c-1.2-2-3.4-3.2-5.8-3.2
						c-1.3,0-2.5,0.3-3.5,1c-3.2,2-4.2,6.1-2.2,9.3l17.6,28.4C651.2,724.5,653.4,725.7,655.7,725.7z"/>
				</g>
			</g>
			<g>
				<g>
					<g>
						<g>
							<path class="st7" d="M624.2,714.8c-13.7,0-25.9-4.5-36.1-13.4c-11.2-9.7-17.4-22.7-18.3-38.6c-0.9-15.9,3.6-29.5,13.6-40.5
								c9.9-11,22.8-17,38.2-17.9c15.4-0.9,28.9,3.5,40,13.3c11.2,9.7,17.4,22.7,18.3,38.6c0.9,15.9-3.6,29.5-13.7,40.5
								c-1.8,2-4.9,2.2-6.9,0.3c-2-1.8-2.2-4.9-0.3-6.9c8.3-9.1,11.9-20,11.1-33.3c-0.8-13.3-5.7-23.7-14.9-31.7
								c-9.3-8.1-20.1-11.6-33-10.9c-12.9,0.8-23.2,5.6-31.5,14.7c-8.2,9.1-11.8,20-11.1,33.3c0.8,13.3,5.7,23.7,14.9,31.7
								c9.3,8.1,20.1,11.6,32.9,10.9c2.7-0.2,5,1.9,5.2,4.6c0.2,2.7-1.9,5-4.6,5.2C626.8,714.8,625.5,714.8,624.2,714.8z"/>
						</g>
					</g>
				</g>
				<g>
					<g>
						<path class="st7" d="M655.7,723.9c-1.6,0-3.3-0.8-4.2-2.3L634,693.1c-1.4-2.3-0.7-5.3,1.6-6.8c2.3-1.4,5.3-0.7,6.8,1.6
							l17.6,28.4c1.4,2.3,0.7,5.3-1.6,6.8C657.5,723.7,656.6,723.9,655.7,723.9z"/>
					</g>
				</g>
			</g>
		</g>
	</g>
	<g>
		<defs>
			<filter id="Adobe_OpacityMaskFilter_34_" filterUnits="userSpaceOnUse" x="659" y="554.6" width="193.6" height="230.1">
				<feColorMatrix  type="matrix" values="1 0 0 0 0  0 1 0 0 0  0 0 1 0 0  0 0 0 1 0"/>
			</filter>
		</defs>
		<mask maskUnits="userSpaceOnUse" x="659" y="554.6" width="193.6" height="230.1" id="SVGID_35_">
			<g class="st72">
				
					<image style="overflow:visible;" width="193.9" height="230.4" xlink:href="B34E8AA1.png"  transform="matrix(1 0 0 1 658.8893 554.4922)"/>
			</g>
		</mask>
		<rect x="659" y="554.6" class="st73" width="193.6" height="230.1"/>
		<defs>
			<filter id="Adobe_OpacityMaskFilter_35_" filterUnits="userSpaceOnUse" x="659" y="554.6" width="193.6" height="230.1">
				<feColorMatrix  type="matrix" values="1 0 0 0 0  0 1 0 0 0  0 0 1 0 0  0 0 0 1 0"/>
			</filter>
		</defs>
		<mask maskUnits="userSpaceOnUse" x="659" y="554.6" width="193.6" height="230.1" id="SVGID_36_">
			<g class="st74">
				
					<image style="overflow:visible;" width="193.9" height="230.4" xlink:href="B34E8AA2.png"  transform="matrix(1 0 0 1 658.8893 554.4922)"/>
			</g>
		</mask>
		<rect x="659" y="554.6" class="st75" width="193.6" height="230.1"/>
		<g>
			<g>
				<path class="st6" d="M796.3,656.4c2.8-12.8-1.5-25.5-11.7-35c-8.1-7.5-19.3-11.3-33.3-11.3h-6.5c-4.6,0-8.5,3-9.9,7.1
					c-1.4-4.1-5.3-7.1-9.9-7.1c-5.8,0-10.5,4.7-10.5,10.5v98.2c0,5.8,4.7,10.5,10.5,10.5c5.8,0,10.5-4.7,10.5-10.5v-93.5
					c1.7,3.4,5.2,5.7,9.3,5.7h6.5c8.6,0,15,1.9,19.2,5.7c4.6,4.3,6.6,9.8,5.5,15.2c-1.2,5.7-5.7,10.4-12,12.5
					c-0.7,0.2-7,1.8-14.9,3.8c-3.5,0.9-6.3,3.6-7.4,7c-1.1,3.4-0.3,7.3,2.1,10l35.2,40.4c2,2.3,4.9,3.6,7.9,3.6c2.5,0,5-0.9,6.9-2.6
					c4.3-3.8,4.8-10.4,1-14.7l-24.1-27.7C783.8,679.9,793.5,669.4,796.3,656.4z"/>
			</g>
			<g>
				<g>
					<path class="st3" d="M731.8,718.8v-98.2c0-3.7-3-6.8-6.8-6.8c-3.7,0-6.8,3-6.8,6.8v98.2c0,3.7,3,6.8,6.8,6.8
						C728.7,725.6,731.8,722.6,731.8,718.8z"/>
				</g>
				<g>
					<path class="st3" d="M792.7,655.6c2.5-11.5-1.4-22.9-10.6-31.5c-7.4-6.8-17.8-10.3-30.8-10.3h-6.5c-3.7,0-6.8,3-6.8,6.8
						s3,6.8,6.8,6.8h6.5c9.5,0,16.8,2.3,21.7,6.7c5.6,5.2,8,12,6.6,18.7c-1.5,7-6.9,12.7-14.5,15.2c-0.8,0.3-7.6,2-15.2,3.9
						c-2.3,0.6-4.1,2.3-4.8,4.5c-0.7,2.2-0.2,4.7,1.4,6.5l35.2,40.4c1.3,1.5,3.1,2.3,5.1,2.3c1.6,0,3.2-0.6,4.4-1.7
						c2.8-2.4,3.1-6.7,0.7-9.5l-28-32.1c4.6-1.2,5.2-1.4,5.5-1.5C781.4,676.8,790.1,667.4,792.7,655.6z"/>
				</g>
			</g>
			<g>
				<g>
					<g>
						<path class="st7" d="M725,723.7c-2.7,0-4.9-2.2-4.9-4.9v-98.2c0-2.7,2.2-4.9,4.9-4.9c2.7,0,4.9,2.2,4.9,4.9v98.2
							C729.9,721.5,727.7,723.7,725,723.7z"/>
					</g>
				</g>
				<g>
					<g>
						<path class="st7" d="M786.6,723.7c-1.4,0-2.7-0.6-3.7-1.7l-35.2-40.4c-1.1-1.3-1.5-3.1-1-4.7c0.5-1.6,1.8-2.9,3.5-3.3
							c6.8-1.7,14.4-3.6,15.3-4c8.2-2.7,14-8.9,15.7-16.6c1.6-7.3-1-14.8-7.1-20.4c-5.2-4.8-12.9-7.2-22.9-7.2h-6.5
							c-2.7,0-4.9-2.2-4.9-4.9c0-2.7,2.2-4.9,4.9-4.9h6.5c12.6,0,22.5,3.3,29.6,9.8c8.7,8.1,12.4,18.9,10.1,29.7
							c-2.4,11.1-10.7,20-22.2,23.8c-0.8,0.3-4.5,1.2-8.2,2.2l29.9,34.3c1.8,2,1.6,5.2-0.5,6.9C788.9,723.3,787.8,723.7,786.6,723.7
							z"/>
					</g>
				</g>
			</g>
		</g>
	</g>
	<g>
		<defs>
			<filter id="Adobe_OpacityMaskFilter_36_" filterUnits="userSpaceOnUse" x="785.5" y="552.3" width="202.4" height="232.5">
				<feColorMatrix  type="matrix" values="1 0 0 0 0  0 1 0 0 0  0 0 1 0 0  0 0 0 1 0"/>
			</filter>
		</defs>
		<mask maskUnits="userSpaceOnUse" x="785.5" y="552.3" width="202.4" height="232.5" id="SVGID_37_">
			<g class="st76">
				
					<image style="overflow:visible;" width="202.7" height="232.8" xlink:href="B34E8AA3.png"  transform="matrix(1 0 0 1 785.3745 552.1317)"/>
			</g>
		</mask>
		<rect x="785.5" y="552.3" class="st77" width="202.4" height="232.5"/>
		<defs>
			<filter id="Adobe_OpacityMaskFilter_37_" filterUnits="userSpaceOnUse" x="785.5" y="552.3" width="202.4" height="232.5">
				<feColorMatrix  type="matrix" values="1 0 0 0 0  0 1 0 0 0  0 0 1 0 0  0 0 0 1 0"/>
			</filter>
		</defs>
		<mask maskUnits="userSpaceOnUse" x="785.5" y="552.3" width="202.4" height="232.5" id="SVGID_38_">
			<g class="st78">
				
					<image style="overflow:visible;" width="202.7" height="232.8" xlink:href="B34E8AA4.png"  transform="matrix(1 0 0 1 785.3745 552.1317)"/>
			</g>
		</mask>
		<rect x="785.5" y="552.3" class="st79" width="202.4" height="232.5"/>
		<g>
			<g>
				<path class="st6" d="M887.1,708.4c-9.1,0-20.7-2.1-24.2-12c-1.5-4.2-5.4-7-9.9-7c-1.2,0-2.4,0.2-3.5,0.6
					c-5.4,1.9-8.3,7.9-6.4,13.3c3.4,9.7,13.7,25.9,43.9,25.9c18.1,0,34-9,41.3-23.4c7.6-14.9,4.3-30.5-8.2-38.7
					c-6.1-4-13.9-6.4-23.1-7.2c-0.3,0-0.6,0-0.9,0h0c-3.9,0-7.3,2.2-9.1,5.4c-0.3-0.8-0.7-1.6-1.1-2.3c-1.5-2.3-3.9-3.9-6.6-4.5
					c-4.7-0.9-11.2-2.9-15.3-7.1c-2.9-3-3-9.1,1.9-14.2c5.1-5.3,13-8.7,20.3-8.7c13.4,0,21.4,4.5,23.7,13.2
					c1.2,4.6,5.4,7.8,10.1,7.8c0.9,0,1.8-0.1,2.6-0.3c2.7-0.7,5-2.4,6.4-4.8c1.4-2.4,1.8-5.2,1.1-7.9c-1.3-5.2-4.4-12.6-11.3-18.6
					c-7.9-6.8-18.8-10.3-32.6-10.3c-12.9,0-26.4,5.8-35.3,15.1c-10.7,11.2-14.3,30.4-1.7,43.3c6.2,6.3,15.2,10.8,26.1,13
					c0.7,0.1,1.4,0.2,2.1,0.2c3.9,0,7.4-2.2,9.1-5.4c0.4,1.2,1,2.3,1.9,3.3c1.8,2.1,4.3,3.4,7.1,3.7c5.7,0.5,10.2,1.8,13.4,3.9
					c5,3.3,1.8,10.3,1.1,11.7C906,703.8,897.3,708.4,887.1,708.4z"/>
			</g>
			<g>
				<g>
					<path class="st3" d="M925.1,704.2c6.7-13.2,3.9-26.8-7-33.9c-5.6-3.7-12.8-5.9-21.4-6.6c-0.2,0-0.4,0-0.6,0
						c-3.5,0-6.4,2.7-6.7,6.2c-0.1,1.8,0.4,3.5,1.6,4.9c1.2,1.4,2.8,2.2,4.6,2.4c6.3,0.5,11.4,2,15.1,4.4c5.9,3.9,5,11.3,2.3,16.5
						c-4.4,8.7-14.4,14-26,14c-10.3,0-23.5-2.5-27.7-14.4c-1-2.7-3.5-4.5-6.4-4.5c-0.8,0-1.5,0.1-2.3,0.4c-3.5,1.2-5.4,5.1-4.1,8.6
						c3.1,8.7,12.5,23.4,40.4,23.4C903.8,725.6,918.4,717.4,925.1,704.2z"/>
				</g>
				<g>
					<path class="st3" d="M886.1,625c15.1,0,24.5,5.5,27.3,16c0.8,3,3.5,5.1,6.5,5.1c0.6,0,1.1-0.1,1.7-0.2c1.7-0.5,3.2-1.6,4.1-3.1
						c0.9-1.6,1.2-3.4,0.7-5.1c-2.5-9.8-11.1-26.1-40.3-26.1c-11.9,0-24.4,5.3-32.7,14c-9.5,9.9-12.8,26.9-1.7,38.2
						c5.7,5.8,14,9.9,24.2,11.9c0.4,0.1,0.9,0.1,1.3,0.1c3.2,0,6-2.3,6.6-5.4c0.4-1.8,0-3.6-1-5.1c-1-1.5-2.5-2.5-4.3-2.9
						c-5.2-1-12.4-3.3-17.2-8.1c-4.2-4.2-4.6-12.6,1.8-19.3C868.9,628.8,877.9,625,886.1,625z"/>
				</g>
			</g>
			<g>
				<g>
					<g>
						<path class="st7" d="M887.1,723.8c-11.5,0-31.9-2.9-38.7-22.2c-0.9-2.6,0.4-5.4,3-6.3c2.6-0.9,5.4,0.4,6.3,3
							c3.6,10.2,13.8,15.6,29.4,15.6c12.3,0,22.9-5.8,27.7-15c3-5.8,4-14.3-3-18.8c-4-2.6-9.4-4.2-16-4.7c-2.7-0.2-4.7-2.6-4.5-5.3
							c0.2-2.7,2.6-4.7,5.3-4.5c8.3,0.7,15.2,2.8,20.6,6.3c10.1,6.6,12.6,19.3,6.3,31.6C917,715.9,903.1,723.8,887.1,723.8z"/>
					</g>
				</g>
				<g>
					<g>
						<path class="st7" d="M877.2,673.8c-0.3,0-0.6,0-1-0.1c-9.8-2-17.8-5.9-23.2-11.4c-10.3-10.5-7.2-26.3,1.7-35.6
							c7.9-8.3,19.9-13.4,31.3-13.4c28,0,36.2,15.5,38.6,24.7c0.7,2.6-0.9,5.3-3.5,6c-2.6,0.7-5.3-0.9-6-3.5
							c-2.1-7.9-8.8-17.4-29-17.4c-8.7,0-18.2,4.1-24.2,10.4c-7.2,7.5-6.6,17-1.8,21.9c5.1,5.2,12.7,7.6,18.1,8.7
							c2.7,0.5,4.4,3.1,3.9,5.8C881.5,672.2,879.5,673.8,877.2,673.8z"/>
					</g>
				</g>
			</g>
		</g>
	</g>
	<g>
		<defs>
			<filter id="Adobe_OpacityMaskFilter_38_" filterUnits="userSpaceOnUse" x="90.1" y="765.3" width="204.8" height="222.5">
				<feColorMatrix  type="matrix" values="1 0 0 0 0  0 1 0 0 0  0 0 1 0 0  0 0 0 1 0"/>
			</filter>
		</defs>
		<mask maskUnits="userSpaceOnUse" x="90.1" y="765.3" width="204.8" height="222.5" id="SVGID_39_">
			<g class="st80">
				
					<image style="overflow:visible;" width="205.1" height="222.8" xlink:href="B34E8AA5.png"  transform="matrix(1 0 0 1 89.8752 765.0006)"/>
			</g>
		</mask>
		<rect x="90.1" y="765.3" class="st81" width="204.8" height="222.5"/>
		<defs>
			<filter id="Adobe_OpacityMaskFilter_39_" filterUnits="userSpaceOnUse" x="90.1" y="765.3" width="204.8" height="222.5">
				<feColorMatrix  type="matrix" values="1 0 0 0 0  0 1 0 0 0  0 0 1 0 0  0 0 0 1 0"/>
			</filter>
		</defs>
		<mask maskUnits="userSpaceOnUse" x="90.1" y="765.3" width="204.8" height="222.5" id="SVGID_40_">
			<g class="st82">
				
					<image style="overflow:visible;" width="205.1" height="222.8" xlink:href="B34E8B21.png"  transform="matrix(1 0 0 1 89.8752 765.0006)"/>
			</g>
		</mask>
		<rect x="90.1" y="765.3" class="st83" width="204.8" height="222.5"/>
		<g>
			<g>
				<path class="st6" d="M239.3,831.2c0-5.8-4.7-10.5-10.5-10.5h-72.7c-5.8,0-10.5,4.7-10.5,10.5s4.7,10.5,10.5,10.5h28.5
					c-1.7,1.9-2.7,4.3-2.7,7v73.2c0,5.8,4.7,10.5,10.5,10.5c5.8,0,10.5-4.7,10.5-10.5v-73.2c0-2.7-1-5.1-2.7-7h28.7
					C234.7,841.7,239.3,837,239.3,831.2z"/>
			</g>
			<g>
				<g>
					<path class="st3" d="M235.7,831.2c0-3.7-3-6.8-6.8-6.8h-72.7c-3.7,0-6.8,3-6.8,6.8s3,6.8,6.8,6.8h72.7
						C232.6,838,235.7,834.9,235.7,831.2z"/>
				</g>
				<g>
					<path class="st3" d="M185.7,848.7v73.2c0,3.7,3,6.8,6.8,6.8s6.8-3,6.8-6.8v-73.2c0-3.7-3-6.8-6.8-6.8S185.7,844.9,185.7,848.7z
						"/>
				</g>
			</g>
			<g>
				<g>
					<path class="st7" d="M228.9,826.3h-72.7c-2.7,0-4.9,2.2-4.9,4.9c0,2.7,2.2,4.9,4.9,4.9h72.7c2.7,0,4.9-2.2,4.9-4.9
						C233.8,828.5,231.6,826.3,228.9,826.3z"/>
				</g>
				<g>
					<path class="st7" d="M192.5,843.7c-2.7,0-4.9,2.2-4.9,4.9v73.2c0,2.7,2.2,4.9,4.9,4.9c2.7,0,4.9-2.2,4.9-4.9v-73.2
						C197.4,845.9,195.2,843.7,192.5,843.7z"/>
				</g>
			</g>
		</g>
	</g>
	<g>
		<defs>
			<filter id="Adobe_OpacityMaskFilter_40_" filterUnits="userSpaceOnUse" x="209.1" y="756.7" width="211.3" height="231">
				<feColorMatrix  type="matrix" values="1 0 0 0 0  0 1 0 0 0  0 0 1 0 0  0 0 0 1 0"/>
			</filter>
		</defs>
		<mask maskUnits="userSpaceOnUse" x="209.1" y="756.7" width="211.3" height="231" id="SVGID_41_">
			<g class="st84">
				
					<image style="overflow:visible;" width="211.6" height="231.3" xlink:href="B34E8B20.png"  transform="matrix(1 0 0 1 208.9182 756.5843)"/>
			</g>
		</mask>
		<rect x="209.1" y="756.7" class="st85" width="211.3" height="231"/>
		<defs>
			<filter id="Adobe_OpacityMaskFilter_41_" filterUnits="userSpaceOnUse" x="209.1" y="756.7" width="211.3" height="231">
				<feColorMatrix  type="matrix" values="1 0 0 0 0  0 1 0 0 0  0 0 1 0 0  0 0 0 1 0"/>
			</filter>
		</defs>
		<mask maskUnits="userSpaceOnUse" x="209.1" y="756.7" width="211.3" height="231" id="SVGID_42_">
			<g class="st86">
				
					<image style="overflow:visible;" width="211.6" height="231.3" xlink:href="B34E8B2F.png"  transform="matrix(1 0 0 1 208.9182 756.5843)"/>
			</g>
		</mask>
		<rect x="209.1" y="756.7" class="st87" width="211.3" height="231"/>
		<g>
			<g>
				<path class="st6" d="M354.4,812.2c-5.8,0-10.5,4.7-10.5,10.5v60.5c0,9.3-2.6,16.1-8,20.7c-5.9,5.1-12.9,7.5-21.6,7.5
					c-8.6,0-15.5-2.4-21.1-7.4c-5.2-4.6-7.7-11.5-7.7-20.9v-60.5c0-5.8-4.7-10.5-10.5-10.5c-5.8,0-10.5,4.7-10.5,10.5v60.5
					c0,15.5,5,27.8,14.8,36.5c9.4,8.4,21.2,12.6,34.9,12.6c13.7,0,25.5-4.2,35.2-12.6c10.2-8.7,15.3-21,15.3-36.6v-60.5
					C364.8,816.9,360.1,812.2,354.4,812.2z"/>
			</g>
			<g>
				<path class="st3" d="M354.4,815.9c-3.7,0-6.8,3-6.8,6.8v60.5c0,10.4-3.1,18.1-9.3,23.5c-6.6,5.7-14.4,8.4-24,8.4
					c-9.5,0-17.2-2.7-23.5-8.3c-6-5.4-9-13.1-9-23.6v-60.5c0-3.7-3-6.8-6.8-6.8c-3.7,0-6.8,3-6.8,6.8v60.5
					c0,14.4,4.6,25.8,13.5,33.8c8.7,7.8,19.7,11.7,32.5,11.7c12.8,0,23.8-3.9,32.8-11.7c9.3-8,14-19.4,14-33.8v-60.5
					C361.1,818.9,358.1,815.9,354.4,815.9z"/>
			</g>
			<g>
				<g>
					<path class="st7" d="M314.3,926.8c-12.4,0-22.9-3.8-31.3-11.2c-8.6-7.6-12.9-18.5-12.9-32.4v-60.5c0-2.7,2.2-4.9,4.9-4.9
						c2.7,0,4.9,2.2,4.9,4.9v60.5c0,11.1,3.1,19.3,9.6,25c6.6,5.9,14.7,8.8,24.7,8.8c10,0,18.3-2.9,25.2-8.9
						c6.7-5.8,10-13.9,10-24.9v-60.5c0-2.7,2.2-4.9,4.9-4.9c2.7,0,4.9,2.2,4.9,4.9v60.5c0,13.8-4.5,24.7-13.4,32.4
						C337.2,923,326.6,926.8,314.3,926.8z"/>
				</g>
			</g>
		</g>
	</g>
	<g>
		<defs>
			<filter id="Adobe_OpacityMaskFilter_42_" filterUnits="userSpaceOnUse" x="335" y="757.6" width="207.7" height="230.1">
				<feColorMatrix  type="matrix" values="1 0 0 0 0  0 1 0 0 0  0 0 1 0 0  0 0 0 1 0"/>
			</filter>
		</defs>
		<mask maskUnits="userSpaceOnUse" x="335" y="757.6" width="207.7" height="230.1" id="SVGID_43_">
			<g class="st88">
				
					<image style="overflow:visible;" width="208" height="230.4" xlink:href="B34E8B2C.png"  transform="matrix(1 0 0 1 334.8641 757.4695)"/>
			</g>
		</mask>
		<rect x="335" y="757.6" class="st89" width="207.7" height="230.1"/>
		<defs>
			<filter id="Adobe_OpacityMaskFilter_43_" filterUnits="userSpaceOnUse" x="335" y="757.6" width="207.7" height="230.1">
				<feColorMatrix  type="matrix" values="1 0 0 0 0  0 1 0 0 0  0 0 1 0 0  0 0 0 1 0"/>
			</filter>
		</defs>
		<mask maskUnits="userSpaceOnUse" x="335" y="757.6" width="207.7" height="230.1" id="SVGID_44_">
			<g class="st90">
				
					<image style="overflow:visible;" width="208" height="230.4" xlink:href="B34E8B2D.png"  transform="matrix(1 0 0 1 334.8641 757.4695)"/>
			</g>
		</mask>
		<rect x="335" y="757.6" class="st91" width="207.7" height="230.1"/>
		<g>
			<g>
				<path class="st6" d="M480.3,813.8c-1.2-0.4-2.4-0.6-3.6-0.6h0c-4.4,0-8.3,2.8-9.8,6.9l-27.8,75.8c-0.1,0.3-0.2,0.7-0.3,1
					l-28-76.7c-1.5-4.1-5.4-6.9-9.8-6.9h0c-1.2,0-2.4,0.2-3.6,0.6c-2.6,1-4.7,2.9-5.9,5.4c-1.2,2.5-1.3,5.4-0.3,8l35.9,98.2
					c1.5,4.1,5.4,6.9,9.8,6.9c1.2,0,2.4-0.2,3.6-0.6c2.6-1,4.7-2.9,5.9-5.4c1.2-2.5,1.3-5.4,0.3-8l-3.8-10.4c0.7,0.5,1.6,1,2.5,1.3
					c1.2,0.4,2.4,0.6,3.6,0.6c4.4,0,8.3-2.8,9.8-6.9l27.8-75.8C488.5,821.8,485.8,815.8,480.3,813.8z"/>
			</g>
			<g>
				<g>
					<path class="st3" d="M436.9,928.6c0.8,0,1.6-0.1,2.3-0.4c1.7-0.6,3-1.9,3.8-3.5c0.8-1.6,0.8-3.5,0.2-5.2l-35.9-98.2
						c-1-2.7-3.5-4.4-6.3-4.4h0c-0.8,0-1.6,0.1-2.3,0.4c-1.7,0.6-3,1.9-3.8,3.5c-0.8,1.6-0.8,3.5-0.2,5.2l35.9,98.2
						C431.5,926.8,434.1,928.6,436.9,928.6z"/>
				</g>
				<g>
					<path class="st3" d="M479.1,817.2c-0.8-0.3-1.5-0.4-2.3-0.4c-2.8,0-5.4,1.8-6.4,4.4L442.6,897c-1.3,3.5,0.5,7.4,4,8.7
						c0.8,0.3,1.5,0.4,2.3,0.4c2.8,0,5.4-1.8,6.3-4.4l27.8-75.8C484.4,822.4,482.6,818.5,479.1,817.2z"/>
				</g>
			</g>
			<g>
				<g>
					<g>
						<path class="st7" d="M436.9,926.7c-2,0-3.9-1.2-4.6-3.2l-35.9-98.2c-0.9-2.6,0.4-5.4,2.9-6.3c2.6-0.9,5.4,0.4,6.3,2.9
							l35.9,98.2c0.9,2.6-0.4,5.4-2.9,6.3C438,926.6,437.4,926.7,436.9,926.7z"/>
					</g>
				</g>
				<g>
					<g>
						<path class="st7" d="M449,904.3c-0.6,0-1.1-0.1-1.7-0.3c-2.6-0.9-3.9-3.8-2.9-6.3l27.8-75.8c0.9-2.6,3.8-3.9,6.3-2.9
							c2.6,0.9,3.9,3.8,2.9,6.3L453.6,901C452.8,903,451,904.3,449,904.3z"/>
					</g>
				</g>
			</g>
		</g>
	</g>
	<g>
		<defs>
			<filter id="Adobe_OpacityMaskFilter_44_" filterUnits="userSpaceOnUse" x="449.9" y="757.6" width="252.3" height="230.1">
				<feColorMatrix  type="matrix" values="1 0 0 0 0  0 1 0 0 0  0 0 1 0 0  0 0 0 1 0"/>
			</filter>
		</defs>
		<mask maskUnits="userSpaceOnUse" x="449.9" y="757.6" width="252.3" height="230.1" id="SVGID_45_">
			<g class="st92">
				
					<image style="overflow:visible;" width="252.6" height="230.4" xlink:href="B34E8B56.png"  transform="matrix(1 0 0 1 449.7701 757.4695)"/>
			</g>
		</mask>
		<rect x="449.9" y="757.6" class="st93" width="252.3" height="230.1"/>
		<defs>
			<filter id="Adobe_OpacityMaskFilter_45_" filterUnits="userSpaceOnUse" x="449.9" y="757.6" width="252.3" height="230.1">
				<feColorMatrix  type="matrix" values="1 0 0 0 0  0 1 0 0 0  0 0 1 0 0  0 0 0 1 0"/>
			</filter>
		</defs>
		<mask maskUnits="userSpaceOnUse" x="449.9" y="757.6" width="252.3" height="230.1" id="SVGID_46_">
			<g class="st94">
				
					<image style="overflow:visible;" width="252.6" height="230.4" xlink:href="B34E8B57.png"  transform="matrix(1 0 0 1 449.7701 757.4695)"/>
			</g>
		</mask>
		<rect x="449.9" y="757.6" class="st95" width="252.3" height="230.1"/>
		<g>
			<g>
				<path class="st6" d="M645.5,818.5c-1.3-2.4-3.6-4.2-6.2-5c-1-0.3-1.9-0.4-2.9-0.4c-4.6,0-8.7,3.1-10,7.5l-18.8,64.5l-19.8-64.7
					c-1.4-4.4-5.4-7.4-10-7.4c-4.6,0-8.6,3-10,7.4L546,891.9l-20.2-71.2c-1.3-4.5-5.4-7.6-10.1-7.6h0c-1,0-1.9,0.1-2.8,0.4
					c-5.6,1.6-8.8,7.4-7.2,12.9l27.9,98.2c1.3,4.5,5.4,7.6,10.1,7.6c1,0,1.9-0.1,2.8-0.4c5.6-1.6,8.8-7.4,7.2-12.9l-4.5-15.9
					c1.1,0.9,2.3,1.6,3.7,2.1c1,0.3,2,0.5,3.1,0.5c4.6,0,8.6-3,10-7.4l11.9-38.8l20,65.5c1.4,4.4,5.4,7.4,10,7.4
					c4.6,0,8.8-3.1,10-7.5l28.5-98.2C647.2,823.8,646.9,821,645.5,818.5z"/>
			</g>
			<g>
				<g>
					<path class="st3" d="M537.1,923.6c0.8,2.9,3.5,4.9,6.5,4.9c0.6,0,1.2-0.1,1.8-0.3c3.6-1,5.7-4.8,4.7-8.4l-27.9-98.2
						c-0.8-2.9-3.5-4.9-6.5-4.9h0c-0.6,0-1.2,0.1-1.8,0.3c-3.6,1-5.7,4.8-4.7,8.4L537.1,923.6z"/>
				</g>
				<g>
					<path class="st3" d="M638.2,817.1c-0.6-0.2-1.3-0.3-1.9-0.3c-3,0-5.7,2-6.5,4.9l-22.2,76.4l-23.4-76.5
						c-0.9-2.9-3.5-4.8-6.5-4.8c-3,0-5.6,1.9-6.5,4.8l-21.9,71.5c-1.1,3.6,0.9,7.4,4.5,8.4c0.6,0.2,1.3,0.3,2,0.3
						c3,0,5.6-1.9,6.5-4.8l15.4-50.4l23.5,77c0.9,2.9,3.5,4.8,6.5,4.8c3,0,5.7-2,6.5-4.9l28.5-98.2c0.5-1.7,0.3-3.6-0.6-5.1
						C641.4,818.7,640,817.6,638.2,817.1z"/>
				</g>
			</g>
			<g>
				<g>
					<g>
						<path class="st7" d="M543.6,926.7c-2.1,0-4.1-1.4-4.7-3.6L511,824.9c-0.7-2.6,0.8-5.3,3.4-6.1c2.6-0.7,5.3,0.8,6.1,3.4
							l27.9,98.2c0.7,2.6-0.8,5.3-3.4,6.1C544.5,926.7,544.1,926.7,543.6,926.7z"/>
					</g>
				</g>
				<g>
					<g>
						<path class="st7" d="M607.8,926.7c-2.2,0-4.1-1.4-4.7-3.5l-25.3-82.8l-17.2,56.1c-0.8,2.6-3.5,4.1-6.1,3.3
							c-2.6-0.8-4.1-3.5-3.3-6.1l21.9-71.5c0.6-2.1,2.5-3.5,4.7-3.5l0,0c2.2,0,4.1,1.4,4.7,3.5l25.2,82.4l23.9-82.4
							c0.8-2.6,3.5-4.1,6.1-3.3c2.6,0.8,4.1,3.5,3.3,6.1l-28.5,98.2C611.9,925.3,610,926.7,607.8,926.7
							C607.8,926.7,607.8,926.7,607.8,926.7z"/>
					</g>
				</g>
			</g>
		</g>
	</g>
	<g>
		<defs>
			<filter id="Adobe_OpacityMaskFilter_46_" filterUnits="userSpaceOnUse" x="614.4" y="754.1" width="195.6" height="233.7">
				<feColorMatrix  type="matrix" values="1 0 0 0 0  0 1 0 0 0  0 0 1 0 0  0 0 0 1 0"/>
			</filter>
		</defs>
		<mask maskUnits="userSpaceOnUse" x="614.4" y="754.1" width="195.6" height="233.7" id="SVGID_47_">
			<g class="st96">
				
					<image style="overflow:visible;" width="195.9" height="234" xlink:href="B34E8B58.png"  transform="matrix(1 0 0 1 614.2789 753.9287)"/>
			</g>
		</mask>
		<rect x="614.4" y="754.1" class="st97" width="195.6" height="233.7"/>
		<defs>
			<filter id="Adobe_OpacityMaskFilter_47_" filterUnits="userSpaceOnUse" x="614.4" y="754.1" width="195.6" height="233.7">
				<feColorMatrix  type="matrix" values="1 0 0 0 0  0 1 0 0 0  0 0 1 0 0  0 0 0 1 0"/>
			</filter>
		</defs>
		<mask maskUnits="userSpaceOnUse" x="614.4" y="754.1" width="195.6" height="233.7" id="SVGID_48_">
			<g class="st98">
				
					<image style="overflow:visible;" width="195.9" height="234" xlink:href="B34E8B59.png"  transform="matrix(1 0 0 1 614.2789 753.9287)"/>
			</g>
		</mask>
		<rect x="614.4" y="754.1" class="st99" width="195.6" height="233.7"/>
		<g>
			<g>
				<path class="st6" d="M744.1,932.3c2,0,3.9-0.5,5.5-1.6c2.4-1.5,4-3.8,4.6-6.5c0.6-2.7,0.2-5.5-1.3-7.9l-21.3-34.1
					c-1.9-3.1-5.2-4.9-8.9-4.9h0c-1.9,0-3.8,0.5-5.5,1.6l33.4-53.4c3.1-4.9,1.6-11.3-3.3-14.4c-1.7-1-3.6-1.6-5.5-1.6h0
					c-3.6,0-6.9,1.8-8.9,4.9l-21.9,35c-0.1-0.3-0.3-0.6-0.5-0.8l-21.3-34.1c-1.9-3.1-5.2-4.9-8.9-4.9h0c-2,0-3.9,0.5-5.5,1.6
					c-4.9,3.1-6.4,9.5-3.3,14.4l21.3,34.1c1.9,3,5.2,4.9,8.7,4.9l-30.1,48.1c-3.1,4.9-1.6,11.3,3.3,14.4c1.7,1,3.6,1.6,5.5,1.6
					c3.6,0,6.9-1.8,8.9-4.9l23.2-37.1c-0.2,2.3,0.3,4.6,1.5,6.6l21.3,34.1C737.2,930.5,740.5,932.3,744.1,932.3z"/>
			</g>
			<g>
				<g>
					<path class="st3" d="M745.4,814.2c-1.1-0.7-2.3-1-3.6-1c-2.3,0-4.5,1.2-5.7,3.2l-61.5,98.2c-2,3.2-1,7.3,2.1,9.3
						c1.1,0.7,2.3,1,3.6,1c2.3,0,4.5-1.2,5.7-3.2l61.5-98.2C749.6,820.4,748.6,816.2,745.4,814.2z"/>
				</g>
				<g>
					<path class="st3" d="M744.1,928.6c1.3,0,2.5-0.4,3.6-1c1.5-1,2.6-2.5,3-4.2c0.4-1.8,0.1-3.6-0.9-5.1l-21.3-34.1
						c-1.2-2-3.4-3.2-5.7-3.2c-1.3,0-2.5,0.4-3.6,1c-1.5,1-2.6,2.5-3,4.2c-0.4,1.8-0.1,3.6,0.9,5.1l21.3,34.1
						C739.6,927.4,741.8,928.6,744.1,928.6z"/>
				</g>
				<g>
					<path class="st3" d="M680.5,813.2c-1.3,0-2.5,0.4-3.6,1c-3.2,2-4.1,6.2-2.2,9.3l21.3,34.1c1.2,2,3.4,3.2,5.7,3.2
						c1.3,0,2.5-0.4,3.6-1c1.5-1,2.6-2.5,3-4.2c0.4-1.8,0.1-3.6-0.9-5.1l-21.3-34.1C684.9,814.4,682.8,813.2,680.5,813.2z"/>
				</g>
			</g>
			<g>
				<g>
					<g>
						<path class="st7" d="M680.4,923.1c-0.9,0-1.8-0.2-2.6-0.8c-2.3-1.4-3-4.5-1.6-6.8l61.5-98.2c1.4-2.3,4.5-3,6.8-1.6
							c2.3,1.4,3,4.5,1.6,6.8l-61.5,98.2C683.6,922.3,682,923.1,680.4,923.1z"/>
					</g>
				</g>
				<g>
					<g>
						<path class="st7" d="M744.1,926.8c-1.6,0-3.2-0.8-4.2-2.3l-21.3-34.1c-1.4-2.3-0.7-5.3,1.6-6.8c2.3-1.4,5.3-0.7,6.8,1.6
							l21.3,34.1c1.4,2.3,0.7,5.3-1.6,6.8C745.9,926.6,745,926.8,744.1,926.8z"/>
					</g>
				</g>
				<g>
					<g>
						<path class="st7" d="M701.8,859c-1.6,0-3.2-0.8-4.2-2.3l-21.3-34.1c-1.4-2.3-0.7-5.3,1.6-6.8c2.3-1.4,5.3-0.7,6.8,1.6
							l21.3,34.1c1.4,2.3,0.7,5.3-1.6,6.8C703.6,858.8,702.7,859,701.8,859z"/>
					</g>
				</g>
			</g>
		</g>
	</g>
	<g>
		<defs>
			<filter id="Adobe_OpacityMaskFilter_48_" filterUnits="userSpaceOnUse" x="721.6" y="757.9" width="197.7" height="229.9">
				<feColorMatrix  type="matrix" values="1 0 0 0 0  0 1 0 0 0  0 0 1 0 0  0 0 0 1 0"/>
			</filter>
		</defs>
		<mask maskUnits="userSpaceOnUse" x="721.6" y="757.9" width="197.7" height="229.9" id="SVGID_49_">
			<g class="st100">
				
					<image style="overflow:visible;" width="198" height="230.1" xlink:href="B34E8B5A.png"  transform="matrix(1 0 0 1 721.4121 757.7645)"/>
			</g>
		</mask>
		<rect x="721.6" y="757.9" class="st101" width="197.7" height="229.9"/>
		<defs>
			<filter id="Adobe_OpacityMaskFilter_49_" filterUnits="userSpaceOnUse" x="721.6" y="757.9" width="197.7" height="229.9">
				<feColorMatrix  type="matrix" values="1 0 0 0 0  0 1 0 0 0  0 0 1 0 0  0 0 0 1 0"/>
			</filter>
		</defs>
		<mask maskUnits="userSpaceOnUse" x="721.6" y="757.9" width="197.7" height="229.9" id="SVGID_50_">
			<g class="st102">
				
					<image style="overflow:visible;" width="198" height="230.1" xlink:href="B34E8B00.png"  transform="matrix(1 0 0 1 721.4121 757.7645)"/>
			</g>
		</mask>
		<rect x="721.6" y="757.9" class="st103" width="197.7" height="229.9"/>
		<g>
			<g>
				<path class="st6" d="M827,877.5c1.2,0.4,2.4,0.7,3.6,0.7c3.9,0,7.5-2.2,9.3-5.7l22.7-44c2.6-5.1,0.6-11.4-4.5-14.1
					c-1.5-0.8-3.1-1.2-4.8-1.2c-3.9,0-7.5,2.2-9.3,5.7l-22.7,44c-0.3,0.7-0.6,1.4-0.8,2.1l-23.8-46.1c-1.8-3.5-5.4-5.7-9.3-5.7
					c-1.7,0-3.3,0.4-4.8,1.2c-2.5,1.3-4.3,3.4-5.2,6.1c-0.9,2.7-0.6,5.5,0.7,8l32,62.2v31.2c0,5.8,4.7,10.5,10.5,10.5
					c5.8,0,10.5-4.7,10.5-10.5v-33.8c0-1.7-0.4-3.3-1.2-4.8L827,877.5z"/>
			</g>
			<g>
				<g>
					<path class="st3" d="M793.5,820.6c-1.2-2.3-3.5-3.7-6-3.7c-1.1,0-2.1,0.3-3.1,0.8c-1.6,0.8-2.8,2.2-3.3,4
						c-0.6,1.7-0.4,3.6,0.4,5.2l32.5,63v32.1c0,3.7,3,6.8,6.8,6.8c3.7,0,6.8-3,6.8-6.8v-33.8c0-1.1-0.3-2.1-0.8-3.1L793.5,820.6z"/>
				</g>
				<g>
					<path class="st3" d="M856.4,817.7c-1-0.5-2-0.8-3.1-0.8c-2.5,0-4.9,1.4-6,3.7l-22.7,44c-0.8,1.6-1,3.4-0.4,5.2
						c0.6,1.7,1.7,3.1,3.3,4c1,0.5,2,0.8,3.1,0.8c2.5,0,4.8-1.4,6-3.7l22.7-44C861,823.5,859.7,819.4,856.4,817.7z"/>
				</g>
			</g>
			<g>
				<g>
					<g>
						<path class="st7" d="M820.7,926.9c-2.7,0-4.9-2.2-4.9-4.9v-32.6L783.1,826c-1.2-2.4-0.3-5.4,2.1-6.6c2.4-1.2,5.4-0.3,6.6,2.1
							l33.2,64.4c0.4,0.7,0.5,1.5,0.5,2.3v33.8C825.6,924.7,823.4,926.9,820.7,926.9z"/>
					</g>
				</g>
				<g>
					<g>
						<path class="st7" d="M830.6,872.7c-0.8,0-1.5-0.2-2.2-0.5c-2.4-1.2-3.4-4.2-2.1-6.6l22.7-44c1.2-2.4,4.2-3.4,6.6-2.1
							c2.4,1.2,3.4,4.2,2.1,6.6L835,870C834.1,871.7,832.4,872.7,830.6,872.7z"/>
					</g>
				</g>
			</g>
		</g>
	</g>
	<g>
		<defs>
			<filter id="Adobe_OpacityMaskFilter_50_" filterUnits="userSpaceOnUse" x="833.3" y="765.9" width="198.6" height="221.9">
				<feColorMatrix  type="matrix" values="1 0 0 0 0  0 1 0 0 0  0 0 1 0 0  0 0 0 1 0"/>
			</filter>
		</defs>
		<mask maskUnits="userSpaceOnUse" x="833.3" y="765.9" width="198.6" height="221.9" id="SVGID_51_">
			<g class="st104">
				
					<image style="overflow:visible;" width="198.9" height="222.2" xlink:href="B34E8B01.png"  transform="matrix(1 0 0 1 833.1378 765.7313)"/>
			</g>
		</mask>
		<rect x="833.3" y="765.9" class="st105" width="198.6" height="221.9"/>
		<defs>
			<filter id="Adobe_OpacityMaskFilter_51_" filterUnits="userSpaceOnUse" x="833.3" y="765.9" width="198.6" height="221.9">
				<feColorMatrix  type="matrix" values="1 0 0 0 0  0 1 0 0 0  0 0 1 0 0  0 0 0 1 0"/>
			</filter>
		</defs>
		<mask maskUnits="userSpaceOnUse" x="833.3" y="765.9" width="198.6" height="221.9" id="SVGID_52_">
			<g class="st106">
				
					<image style="overflow:visible;" width="198.9" height="222.2" xlink:href="B34E8B0E.png"  transform="matrix(1 0 0 1 833.1378 765.7313)"/>
			</g>
		</mask>
		<rect x="833.3" y="765.9" class="st107" width="198.6" height="221.9"/>
		<g>
			<g>
				<path class="st6" d="M966.1,932.3c5.8,0,10.5-4.7,10.5-10.5c0-5.8-4.7-10.5-10.5-10.5h-58.5l66.3-72.6c2.8-3.1,3.5-7.5,1.8-11.3
					c-1.7-3.8-5.4-6.2-9.6-6.2h-67c-5.8,0-10.5,4.7-10.5,10.5c0,5.8,4.7,10.5,10.5,10.5h43.3l-51,55.9c-3.9,4.3-3.6,10.9,0.7,14.8
					c0.3,0.2,0.5,0.4,0.8,0.6c-2.5,1.9-4.2,4.9-4.2,8.3c0,5.8,4.7,10.5,10.5,10.5H966.1z"/>
			</g>
			<g>
				<g>
					<path class="st3" d="M899.1,838.5h51.6l-56.6,62c-2.5,2.8-2.3,7,0.4,9.6c1.3,1.1,2.9,1.8,4.6,1.8c1.9,0,3.7-0.8,5-2.2l67-73.4
						c1.8-2,2.3-4.8,1.2-7.3c-1.1-2.4-3.5-4-6.2-4h-67c-3.7,0-6.8,3-6.8,6.8C892.3,835.5,895.4,838.5,899.1,838.5z"/>
				</g>
				<g>
					<path class="st3" d="M966.1,928.6c3.7,0,6.8-3,6.8-6.8c0-3.7-3-6.8-6.8-6.8h-67c-3.7,0-6.8,3-6.8,6.8c0,3.7,3,6.8,6.8,6.8
						H966.1z"/>
				</g>
			</g>
			<g>
				<g>
					<g>
						<path class="st7" d="M899.1,910.1c-1.2,0-2.4-0.4-3.3-1.3c-2-1.8-2.1-4.9-0.3-6.9l59.5-65.1h-55.8c-2.7,0-4.9-2.2-4.9-4.9
							c0-2.7,2.2-4.9,4.9-4.9h67c1.9,0,3.7,1.2,4.5,2.9c0.8,1.8,0.4,3.9-0.9,5.3l-67,73.4C901.7,909.5,900.4,910.1,899.1,910.1z"/>
					</g>
				</g>
				<g>
					<g>
						<path class="st7" d="M966.1,926.8h-67c-2.7,0-4.9-2.2-4.9-4.9c0-2.7,2.2-4.9,4.9-4.9h67c2.7,0,4.9,2.2,4.9,4.9
							C971,924.6,968.8,926.8,966.1,926.8z"/>
					</g>
				</g>
			</g>
		</g>
	</g>
</g>
</svg>
