<?xml version="1.0" encoding="utf-8"?>
<!-- Generator: Adobe Illustrator 22.0.1, SVG Export Plug-In . SVG Version: 6.00 Build 0)  -->
<svg version="1.1" id="Слой_1" xmlns="http://www.w3.org/2000/svg" xmlns:xlink="http://www.w3.org/1999/xlink" x="0px" y="0px"
	 viewBox="0 0 100 100" style="enable-background:new 0 0 100 100;" xml:space="preserve">
<style type="text/css">
	.st0{fill:#00D5FF;}
	.st1{fill:#85E0FF;}
	.st2{fill:#E2FAFF;}
	.st3{filter:url(#Adobe_OpacityMaskFilter);}
	.st4{mask:url(#SVGID_1_);}
	.st5{filter:url(#Adobe_OpacityMaskFilter_1_);}
	.st6{mask:url(#SVGID_2_);}
</style>
<g>
	<image style="overflow:visible;" width="138" height="108" xlink:href="D63BF1C0.png"  transform="matrix(1 0 0 1 -18.5 -2.5)">
	</image>
	<g>
		<g>
			<path class="st0" d="M76,83.5H24.9c-0.8,0-1.4-0.6-1.4-1.5V52.9l-5,5c-0.3,0.3-0.7,0.5-1.1,0.4c-0.4,0-0.8-0.2-1-0.5L3.4,42.6
				c-0.5-0.6-0.5-1.4,0.1-2l16.8-16.8c0,0,0.1-0.1,0.1-0.1c0.2-0.2,5.5-5.2,11.6-5.2c0.6,0,1.1,0.4,1.3,0.9
				c2.1,5.1,8.4,8.3,16.5,8.5c0.8,0,0.5,0,1.4,0c8.1-0.2,14.5-3.4,16.5-8.5c0.2-0.5,0.8-0.9,1.3-0.9c6.1,0,11.4,5,11.6,5.2
				l16.9,16.9c0.5,0.5,0.6,1.4,0.1,2L84.6,57.8c-0.3,0.3-0.6,0.5-1,0.5c-0.4,0-0.8-0.1-1.1-0.4l-5-5v29.2
				C77.4,82.9,76.8,83.5,76,83.5z M26.4,80.6h48.2V49.4c0-0.6,0.4-1.1,0.9-1.3c0.5-0.2,1.2-0.1,1.6,0.3l6.4,6.4l11-13L78.6,25.9
				c0,0-4.1-3.9-8.7-4.4c-2.8,5.6-9.9,9.1-18.7,9.3c-0.8,0-0.7,0-1.5,0c-8.8-0.2-15.8-3.7-18.7-9.3c-4.3,0.4-8.1,3.8-8.6,4.3
				c0,0,0,0-0.1,0.1L6.4,41.7l11,13l6.4-6.4c0.4-0.4,1-0.5,1.6-0.3c0.5,0.2,0.9,0.8,0.9,1.3V80.6z"/>
		</g>
	</g>
	<image style="overflow:visible;" width="138" height="108" xlink:href="D63BF1C1.png"  transform="matrix(1 0 0 1 -18.5 -2.5)">
	</image>
	<g>
		<path class="st1" d="M76,83H24.9c-0.5,0-0.9-0.4-0.9-0.9V51.5l-6,6c-0.2,0.2-0.4,0.3-0.7,0.3c-0.2,0-0.5-0.1-0.6-0.3L3.8,42.2
			c-0.3-0.3-0.3-0.9,0-1.2l16.8-16.8c0,0,0-0.1,0.1-0.1c0.2-0.2,5.3-5.1,11.2-5.1c0.4,0,0.7,0.2,0.8,0.5c2.1,5.3,8.7,8.7,17,8.8
			c0.7,0,0.7,0,1.4,0c8.4-0.2,14.9-3.6,17-8.8c0.1-0.3,0.5-0.5,0.8-0.5c5.9,0,11,4.9,11.2,5.1L97,41.1c0.3,0.3,0.3,0.8,0,1.2
			L84.2,57.4c-0.2,0.2-0.4,0.3-0.6,0.3c-0.3,0-0.5-0.1-0.7-0.3l-6-6v30.6C76.9,82.6,76.5,83,76,83z M25.8,81.2h49.3V49.4
			c0-0.4,0.2-0.7,0.5-0.8c0.3-0.1,0.7-0.1,0.9,0.2l6.8,6.9l11.8-13.9L79,25.4c0,0-4.5-4.3-9.4-4.6c-2.6,5.6-9.6,9.2-18.4,9.4
			c-0.8,0-0.7,0-1.5,0c-8.8-0.2-15.7-3.8-18.4-9.4c-4.7,0.3-8.8,4-9.4,4.5c0,0,0,0,0,0L5.7,41.7l11.8,13.9l6.9-6.9
			c0.2-0.2,0.6-0.3,0.9-0.2c0.3,0.1,0.5,0.5,0.5,0.8V81.2z"/>
	</g>
	<g>
		<path class="st2" d="M76,82.4H24.9c-0.2,0-0.3-0.1-0.3-0.3v-32l-7,7c-0.1,0.1-0.1,0.1-0.2,0.1c-0.1,0-0.2,0-0.2-0.1L4.3,41.9
			c-0.1-0.1-0.1-0.3,0-0.4l16.8-16.8c0,0,0,0,0,0c0.2-0.2,5.1-4.9,10.8-4.9c0.1,0,0.2,0.1,0.3,0.2c2.2,5.5,9,9,17.6,9.2
			c0.9,0-0.4,0,1.4,0c8.6-0.2,15.3-3.7,17.6-9.2c0-0.1,0.2-0.2,0.3-0.2c5.7,0,10.6,4.7,10.8,4.9l16.8,16.8c0.1,0.1,0.1,0.3,0,0.4
			L83.7,57.1c-0.1,0.1-0.1,0.1-0.2,0.1c-0.1,0-0.2,0-0.2-0.1l-7-7v32C76.3,82.2,76.1,82.4,76,82.4z M25.2,81.8h50.5V49.4
			c0-0.1,0.1-0.2,0.2-0.3c0.1,0,0.2,0,0.3,0.1l7.3,7.3L96,41.7L79.4,25c0,0-4.8-4.6-10.2-4.7c-2.4,5.6-9.3,9.2-18,9.4
			c-0.9,0,0.3,0-1.4,0c-8.7-0.2-15.6-3.8-18-9.4c-5.1,0.1-9.7,4.3-10.2,4.7c0,0,0,0,0,0L4.9,41.7l12.6,14.8l7.3-7.3
			c0.1-0.1,0.2-0.1,0.3-0.1c0.1,0,0.2,0.2,0.2,0.3V81.8z"/>
	</g>
	<defs>
		<filter id="Adobe_OpacityMaskFilter" filterUnits="userSpaceOnUse" x="13.5" y="-24.5" width="75" height="121">
			<feColorMatrix  type="matrix" values="1 0 0 0 0  0 1 0 0 0  0 0 1 0 0  0 0 0 1 0"/>
		</filter>
	</defs>
	<mask maskUnits="userSpaceOnUse" x="13.5" y="-24.5" width="75" height="121" id="SVGID_1_">
		<g class="st3">
			
				<image style="overflow:visible;" width="74" height="120.8" xlink:href="593DC51E.png"  transform="matrix(1 0 0 1 13.5958 -24.4035)"/>
		</g>
	</mask>
	<g class="st4">
		<g>
			<image style="overflow:visible;" width="75" height="121" xlink:href="D63BF1C2.png"  transform="matrix(1 0 0 1 13.5 -24.5)">
			</image>
		</g>
	</g>
	<defs>
		<filter id="Adobe_OpacityMaskFilter_1_" filterUnits="userSpaceOnUse" x="13.5" y="-24.5" width="75" height="121">
			<feColorMatrix  type="matrix" values="1 0 0 0 0  0 1 0 0 0  0 0 1 0 0  0 0 0 1 0"/>
		</filter>
	</defs>
	<mask maskUnits="userSpaceOnUse" x="13.5" y="-24.5" width="75" height="121" id="SVGID_2_">
		<g class="st5">
			
				<image style="overflow:visible;" width="74" height="120.8" xlink:href="593DC51D.png"  transform="matrix(1 0 0 1 13.5952 -24.4035)"/>
		</g>
	</mask>
	<g class="st6">
		<g>
			<image style="overflow:visible;" width="75" height="121" xlink:href="D63BF1C7.png"  transform="matrix(1 0 0 1 13.5 -24.5)">
			</image>
		</g>
	</g>
</g>
</svg>
