<?xml version="1.0" encoding="utf-8"?>
<!-- Generator: Adobe Illustrator 22.0.1, SVG Export Plug-In . SVG Version: 6.00 Build 0)  -->
<svg version="1.1" id="Слой_1" xmlns="http://www.w3.org/2000/svg" xmlns:xlink="http://www.w3.org/1999/xlink" x="0px" y="0px"
	 viewBox="0 0 150 150" style="enable-background:new 0 0 150 150;" xml:space="preserve">
<path d="M132.9,60.8c-1.7-4.7-4.2-14.2-6.3-17.7c-1.4-2.2-1.1-4.1-0.8-6.3c0.4-2.8,0.8-5.9-2.1-9.7c-3-4-10-6.5-16.7-9
	c-4.9-1.8-9.5-3.5-12.3-5.6c-0.3-0.2-0.6-0.3-0.9-0.3c-0.3,0-0.6,0.1-2.5,0.3c-3.5,0.5-10,1.6-13.7,1.6c-4.9,0-14.3-3.1-14.4-3.1
	C62.7,11,62.3,11,62,11.2c-0.1,0.1-13.2,6.9-19.1,8.5c-1.3,0.3-2.4,0.6-3.4,0.7c-3.8,0.7-6.3,1.2-9.1,6.3
	c-3.5,6.1-13.9,40.8-13.7,48.9c0,0.3,0.1,0.7,0.2,1c1.1,1.8,10.3,4.6,19.4,4.7c0.5,0.4,1.4,0.9,2.8,1.6c-0.7,2.8-2.2,9.8-0.8,13.3
	c-0.6,2.1-2.3,8.3,0.3,12.4c1.7,2.7,0.4,3.9,0.1,4.1c-0.4,0.3-0.6,0.7-0.6,1.1c-0.1,4.1-0.4,17.7,2.3,20.4c0.6,0.6,1.3,0.7,1.7,0.7
	c2.7,0,7,0.5,9.9,0.8l1.3,0.1c0.8,0.1,2.4,0.4,4.2,0.9c4.3,1,10.3,2.3,15.3,2.3c6.9,0,17.6-1.2,29.1-6.8c1.7-0.8,3.4-1.6,5.2-2.3
	c1.8-0.7,5.1-1.6,5.4-1.9c0.6-0.7,0.5-1.8,0.5-2.1c0.1-1-0.1-1.9-0.1-2.9c-0.1-1.2-0.2-2.5-0.5-3.7c-0.1-0.7-0.3-1.4-0.5-2.1
	c-0.1-0.3-0.8-1.9-0.7-2.1c1.2-2,4.1-7.9,1.5-13.7c0.4-2.2,1.8-11.4,1.1-17.3c2.2,0.2,5.1-0.6,7-3.2c0.4-0.1,1-0.2,1.5-0.4
	c7.2-1.6,12-3,13.5-4.7C136.6,74.9,137.1,72.9,132.9,60.8z M62.8,14c2.2,0.7,10.1,3.1,14.7,3.1c3.9,0,10.6-1,14.1-1.6
	c0.4-0.1,0.7-0.1,1-0.2c-0.8,1.3-1.7,2.6-2.5,3.7C75.6,22,64,17.3,63.9,17.3l0,0.1C63,16,62.3,15,62,14.4
	C62.3,14.2,62.6,14.1,62.8,14z M88.6,20.9c-3.5,4-7.2,6-10.9,5.9c-4.9-0.1-9.2-3.8-12.1-7.2C69.6,20.7,78.2,22.7,88.6,20.9z
	 M60.5,15.1c1.3,2.3,7.9,13,17.1,13.2c5.9,0.1,11.4-4.1,16.6-12.5c0.6,0.4,1.2,0.7,1.9,1.1C90.3,26.6,84,31.4,77.6,31.2
	C68,31,60.4,19.6,58.4,16.2C59.2,15.8,59.9,15.5,60.5,15.1z M133.4,74.2c-0.2,0.8-3.4,1.5-4,1.7c-1.6,0.5-3.2,1.1-4.8,1.6
	c-0.8,0.2-1.8,0.6-2.7,0.6c-1.7,0-2.8,0.3-4,1.6c-0.7,0.8-1.7,1.4-2.8,1.6c-1,0.2-1.9,0-2.3-0.1c-0.2-0.3-0.4-0.6-0.8-0.8
	c2.9-7.6,6.4-38.5,6.4-38.8c0,0-4.5,30.3-8.2,38.9c-1.4,3.2-7.9,17.8-7.2,17.1c0.7-0.7,1.2-1.5,1.7-2.4c0.8-1.4,1.5-2.7,2.3-4.1
	c0.7-1.2,1.3-2.4,1.9-3.6c0.4-0.8,1.8-2.8,1.7-3.6c0.7,5-0.5,14-1.1,17.5c0,0.2,0,0.3,0,0.5c0.1,0.8-1.4,2.8-1.9,3.5
	c-0.7,1.1-1.8,2-2.7,2.9c-1.9,1.9-4.3,3.4-5.8,5.6c0.4-0.4,0.9-0.7,1.4-1.1c0.5-0.4,1-0.8,1.4-1.1c0.9-0.7,1.7-1.4,2.5-2.1
	c1.5-1.3,3-2.6,4.4-4c0.5-0.5,1-1,1.3-1.6c0.8,3-0.1,6.1-1,8c-0.8,1.8-2.5,3.5-3.8,4.9c-0.9,1-2,1.8-3,2.5c-0.6,0.5-2.1,1.1-2.2,1.9
	c-0.1,0.6,8.2-4.7,8.1-5.2c1.7,4.3,1.7,9.7,1.3,10.1c-0.3,0.4-4.4,0.9-9.3,3.3c-11,5.4-21.1,6.5-27.8,6.5c-4.7,0-10.5-1.3-14.6-2.3
	c-2-0.4-3.6-0.8-4.6-0.9l-1.3-0.1c-3-0.3-7-0.8-9.9-0.8c-1.1-1.5-1.6-10.1-1.4-17.6c1.3-1.3,2.4-3.9,0.1-7.5c-1.3-2-1.3-5.4,0-10.2
	c0.1-0.5,0.2-0.6,0.2-0.8c0-0.2-0.1-0.5-0.2-0.7c-0.9-1.7-0.4-6.2,0.4-9.9c-0.4,2,2,6.4,2.7,8.3c1.2,3.1,10.7,18.3,15.1,24.4
	c0.3,0.4-15.9-29.8-17.1-36.3c0-0.1,0-0.1,0-0.2c-5.4-22.4-4.4-43.8-4.4-43.8c0,0.1-1.6,12.9,0.2,29.1c0.5,4,1.1,8.5,2.2,13.2
	c-0.9-0.5-1.8-1-2.1-1.2c0,0-0.1-0.1-0.1-0.1c-0.3-0.3-0.6-0.4-1-0.4c-8.4,0-15.5-2.4-17.3-3.3c0-0.6,0.1-1.4,0.2-2.3
	c3.7,0.8,12.3,2.5,14.4,2.6c0,0-10.5-3.4-14.1-4.2c2-11.8,10.1-38.1,12.9-43.1c2.2-3.9,3.6-4.2,7.2-4.9c1-0.2,2.2-0.4,3.6-0.8
	c3.5-0.9,9-3.4,13.3-5.5c2.1,3.5,9.9,15.6,20.6,15.9c7.1,0.2,13.8-4.9,20-15.2c2.5,1.1,5.3,2.2,8.2,3.2c6.3,2.3,12.9,4.8,15.4,8
	c2.2,2.9,1.9,5.1,1.6,7.6c-0.3,2.4-0.7,5,1.2,8.1c1.3,2,7.3,20.3,8.7,25.2c-1.5,0.7-12.6,5.4-12.7,5.5c-0.5,0.2,9.7-2.2,10.4-2.5
	c0.3-0.1,2.9-1,2.8-1.3C133.4,72.7,133.5,73.7,133.4,74.2z"/>
</svg>
